<svg width="47" height="38" viewBox="0 0 47 38" fill="none" xmlns="http://www.w3.org/2000/svg">
<g clip-path="url(#clip0_1214_1444)">
<path d="M0 18.6291C0.356832 17.7834 0.992016 17.49 1.89207 17.5036C4.36904 17.542 6.84724 17.5135 9.32422 17.5209C9.59154 17.5209 9.74849 17.4937 9.85027 17.1742C10.6767 14.5578 12.998 12.8342 15.6638 12.8218C18.3333 12.8095 20.6656 14.5492 21.5178 17.1878C21.5497 17.2881 21.5877 17.386 21.6343 17.5172C21.8182 17.5172 21.9997 17.5172 22.1812 17.5172C29.8586 17.5172 37.536 17.5172 45.2134 17.5172C45.3961 17.5172 45.5837 17.5073 45.7627 17.537C46.4997 17.6571 47.0368 18.3419 46.9926 19.0898C46.9497 19.8191 46.3636 20.4196 45.6315 20.4766C45.4648 20.4902 45.2955 20.4828 45.1275 20.4828C37.4808 20.4828 29.8341 20.4828 22.1873 20.4828H21.6233C21.3326 21.5315 20.8556 22.4515 20.1285 23.2267C16.9379 26.6293 11.3352 25.3701 9.88215 20.9149C9.77179 20.5756 9.63568 20.4716 9.28253 20.4741C6.82027 20.4914 4.35801 20.458 1.89574 20.4964C0.993243 20.5112 0.361737 20.2128 0.00122623 19.3708V18.6291H0ZM18.8471 18.9932C18.8422 17.2213 17.4185 15.7837 15.6712 15.7886C13.9311 15.7924 12.4916 17.251 12.4952 19.0068C12.4989 20.7614 13.9483 22.2188 15.6834 22.2126C17.4332 22.2064 18.8508 20.7638 18.8471 18.9944V18.9932Z" fill="white"/>
<path d="M0 31.4201C0.387487 30.5644 1.06559 30.3242 1.96441 30.3267C9.56579 30.3477 17.1672 30.3341 24.7685 30.349C25.2161 30.349 25.4098 30.2462 25.5644 29.7868C26.4129 27.272 28.7611 25.6351 31.3914 25.6623C33.9983 25.6883 36.2791 27.3611 37.1044 29.8847C37.2221 30.245 37.3766 30.3502 37.7432 30.3477C40.2361 30.3304 42.7291 30.3354 45.222 30.3428C45.4942 30.3428 45.7787 30.3626 46.035 30.4456C46.6689 30.6524 47.0748 31.3544 46.9853 32.0194C46.8909 32.7152 46.3293 33.2749 45.6193 33.2885C44.2434 33.3158 42.8664 33.3022 41.4906 33.3046C40.2214 33.3059 38.9511 33.3133 37.6819 33.2984C37.3778 33.2947 37.2368 33.3703 37.135 33.6897C36.3073 36.2912 33.9615 38.0099 31.2933 38.0012C28.6483 37.9926 26.3283 36.2776 25.5079 33.6848C25.3915 33.3183 25.1965 33.3034 24.9046 33.3034C17.2113 33.3071 9.51796 33.2984 1.82585 33.317C0.934384 33.3195 0.326176 33.0062 0.00122623 32.1642V31.4225L0 31.4201ZM28.1468 31.8373C28.1529 33.6105 29.5766 35.0406 31.3276 35.0344C33.0713 35.0283 34.506 33.5709 34.4986 31.8151C34.4913 30.0506 33.0615 28.6229 31.3055 28.6278C29.5447 28.6316 28.1394 30.0592 28.1468 31.8373Z" fill="white"/>
<path d="M0 5.83805C0.320045 4.98986 0.929479 4.68154 1.82217 4.68402C9.46891 4.70383 17.1169 4.69145 24.7636 4.70507C25.2112 4.70507 25.4062 4.6023 25.5594 4.14168C26.3921 1.64045 28.7636 -0.0212489 31.3803 -0.000199034C33.9726 0.0208509 36.2803 1.70732 37.0982 4.21968C37.2233 4.60477 37.3901 4.70507 37.769 4.70259C40.2766 4.6865 42.7855 4.68278 45.2931 4.70631C45.6561 4.71002 46.0656 4.80165 46.3697 4.98986C46.8945 5.31552 47.0981 5.86281 46.9571 6.47945C46.8136 7.106 46.4139 7.50594 45.7738 7.61986C45.58 7.65453 45.3789 7.65701 45.1803 7.65701C42.6874 7.65948 40.1944 7.6632 37.7015 7.65205C37.3827 7.65082 37.2307 7.72511 37.1215 8.06438C36.2926 10.6486 33.9677 12.34 31.3031 12.335C28.6422 12.3301 26.3283 10.63 25.5092 8.0359C25.3939 7.66939 25.2002 7.65453 24.9083 7.65577C17.2616 7.65948 9.61361 7.64958 1.96687 7.67187C1.06559 7.67434 0.394845 7.42174 0 6.57851V5.83681L0 5.83805ZM31.2994 9.37195C33.0554 9.37814 34.4876 7.95294 34.4986 6.18971C34.5097 4.43266 33.0762 2.97279 31.3337 2.96536C29.5778 2.95793 28.1578 4.37942 28.1468 6.15504C28.1357 7.93313 29.5398 9.36576 31.2994 9.37195Z" fill="white"/>
</g>
<defs>
<clipPath id="clip0_1214_1444">
<rect width="47" height="38" fill="white"/>
</clipPath>
</defs>
</svg>
