<svg width="237" height="139" viewBox="0 0 237 139" fill="none" xmlns="http://www.w3.org/2000/svg">
<path d="M236.573 137.713C236.285 138.432 235.775 137.478 235.03 137.216C234.297 136.955 234.349 136.798 233.617 136.55C232.884 136.289 232.793 136.537 232.06 136.276C231.328 136.014 231.38 135.858 230.648 135.609C229.915 135.348 229.902 135.374 229.169 135.113C228.437 134.851 228.463 134.773 227.731 134.512C226.998 134.25 226.959 134.355 226.226 134.094C225.494 133.832 225.507 133.806 224.774 133.545C224.042 133.283 224.055 133.257 223.322 132.996C222.59 132.735 222.603 132.709 221.87 132.447C221.138 132.186 221.151 132.147 220.419 131.885C219.686 131.624 219.686 131.637 218.94 131.376C218.208 131.114 218.208 131.114 217.475 130.853C216.743 130.592 216.677 130.788 215.932 130.526C215.199 130.265 215.265 130.082 214.519 129.834C213.787 129.573 213.774 129.612 213.041 129.35C212.309 129.089 212.295 129.115 211.563 128.854C210.83 128.593 210.83 128.593 210.085 128.331C209.352 128.07 209.352 128.044 208.62 127.795C207.887 127.534 207.822 127.691 207.089 127.43C206.357 127.168 206.383 127.103 205.637 126.842C204.905 126.58 204.905 126.58 204.159 126.319C203.427 126.058 203.492 125.875 202.747 125.613C202.014 125.352 201.949 125.522 201.216 125.261C200.484 124.999 200.536 124.842 199.803 124.594C199.071 124.333 199.071 124.307 198.338 124.058C197.85 123.884 197.362 123.71 196.873 123.536C196.141 123.274 196.088 123.405 195.356 123.144C194.623 122.882 194.623 122.896 193.878 122.634C193.145 122.373 193.145 122.373 192.4 122.125C191.667 121.863 191.628 121.981 190.882 121.72C190.15 121.458 190.189 121.328 189.457 121.079C188.724 120.818 188.75 120.726 188.018 120.465C187.285 120.204 187.22 120.4 186.474 120.138C185.742 119.877 185.781 119.746 185.048 119.485C184.316 119.224 184.342 119.145 183.609 118.884C182.877 118.623 182.838 118.74 182.092 118.479C181.36 118.218 181.32 118.296 180.588 118.035C179.855 117.773 179.842 117.8 179.11 117.538C178.377 117.277 178.43 117.107 177.697 116.846C176.965 116.584 176.899 116.767 176.154 116.506C175.421 116.245 175.499 116.009 174.767 115.748C174.034 115.487 173.93 115.787 173.184 115.526C172.452 115.265 172.53 115.029 171.798 114.768C171.065 114.507 171.039 114.572 170.306 114.311C169.574 114.049 169.613 113.945 168.868 113.684C168.135 113.422 168.109 113.475 167.376 113.213C166.644 112.952 166.605 113.043 165.872 112.782C165.14 112.521 165.127 112.534 164.394 112.272C163.661 112.011 163.675 111.959 162.942 111.697C162.21 111.436 162.17 111.541 161.438 111.279C160.705 111.018 160.692 111.031 159.96 110.77C159.227 110.508 159.24 110.456 158.508 110.195C157.775 109.933 157.775 109.92 157.03 109.659C156.297 109.398 156.323 109.332 155.578 109.071C154.845 108.81 154.78 108.967 154.047 108.705C153.315 108.444 153.328 108.379 152.595 108.117C151.863 107.856 151.889 107.791 151.143 107.529C150.411 107.268 150.424 107.203 149.691 106.941C148.959 106.68 148.854 106.941 148.122 106.68C147.389 106.419 147.455 106.21 146.722 105.948C145.989 105.687 145.976 105.713 145.244 105.452C144.511 105.19 144.446 105.373 143.7 105.112C142.968 104.851 142.994 104.772 142.248 104.524C141.516 104.263 141.503 104.289 140.77 104.027C140.038 103.766 140.09 103.596 139.358 103.335C138.625 103.074 138.573 103.23 137.827 102.969C137.095 102.708 137.134 102.59 136.401 102.329C135.669 102.067 135.695 101.989 134.949 101.728C134.217 101.466 134.191 101.545 133.445 101.283C132.713 101.022 132.647 101.179 131.915 100.918C131.182 100.656 131.248 100.447 130.515 100.186C129.783 99.9245 129.73 100.055 128.998 99.7938C128.265 99.5325 128.304 99.4018 127.572 99.1405C126.839 98.8792 126.852 98.84 126.12 98.5917C125.387 98.3304 125.309 98.5395 124.576 98.2781C123.844 98.0168 123.857 97.9645 123.124 97.7032C122.392 97.4419 122.457 97.2459 121.725 96.9845C120.992 96.7232 120.914 96.9453 120.168 96.684C119.423 96.4227 119.423 96.4357 118.69 96.1744C117.958 95.9131 118.036 95.6909 117.29 95.4296C116.558 95.1683 116.545 95.1944 115.812 94.9331C115.08 94.6718 115.014 94.8286 114.282 94.5672C113.549 94.3059 113.602 94.136 112.869 93.8747C112.137 93.6134 112.111 93.6787 111.365 93.4174C110.632 93.156 110.58 93.2867 109.848 93.0254C109.102 92.764 109.076 92.8555 108.343 92.5942C107.611 92.3328 107.637 92.2283 106.904 91.967C106.172 91.7057 106.172 91.6926 105.426 91.4313C104.694 91.1699 104.655 91.2614 103.922 91.0001C103.176 90.7387 103.242 90.5819 102.496 90.3206C101.751 90.0593 101.698 90.2422 100.953 89.9809C100.22 89.7195 100.299 89.4713 99.5662 89.2099C98.8337 88.9486 98.7683 89.1054 98.0357 88.8441C97.2901 88.5827 97.264 88.6742 96.5184 88.4129C95.7859 88.1515 95.7859 88.1385 95.0403 87.8772C94.3077 87.6158 94.3993 87.3414 93.6668 87.0801C92.9343 86.8188 92.8558 87.0409 92.1102 86.7795C91.3646 86.5182 91.4431 86.3092 90.7106 86.0478C89.978 85.7865 89.8996 85.9956 89.154 85.7342C88.6656 85.56 88.1729 85.3858 87.6758 85.2116C86.9302 84.9502 86.9826 84.8065 86.25 84.5452C85.5044 84.2838 85.4521 84.4406 84.7196 84.1793C83.974 83.918 83.9871 83.9049 83.2415 83.6305C82.4959 83.3692 82.5351 83.2516 81.8026 82.9903C81.057 82.7289 81.0047 82.8988 80.2591 82.6375C79.5135 82.3761 79.6051 82.1409 78.8595 81.8796C78.1139 81.6183 78.0616 81.762 77.316 81.5007C76.5704 81.2393 76.6358 81.0695 75.8902 80.7951C75.38 80.6121 74.9091 80.4031 74.4513 80.1287C73.9804 79.8543 73.4964 79.6452 73.0778 79.3055C72.6723 78.9527 72.3322 78.5476 71.9921 78.1295C71.652 77.7114 71.2727 77.3194 71.0111 76.849C70.7625 76.3786 70.4748 75.9082 70.3047 75.3855C70.1347 74.8759 69.9908 74.3402 69.9254 73.8045C69.8207 73.0205 70.03 72.9943 69.9254 72.2234C69.8207 71.4394 69.7553 71.4525 69.6507 70.6815C69.546 69.8976 69.5984 69.8976 69.5068 69.1136C69.4021 68.3296 69.1929 68.3557 69.0882 67.5848C68.9836 66.8008 69.0882 66.7877 68.9966 66.0037C68.892 65.2197 68.9836 65.2067 68.8789 64.4357C68.7743 63.6517 68.8528 63.6517 68.7481 62.8677C68.6435 62.0838 68.4473 62.1099 68.3426 61.339C68.238 60.555 68.3034 60.555 68.1987 59.771C68.0941 58.987 68.2249 58.9739 68.1202 58.1899C68.0156 57.4059 67.9371 57.419 67.8325 56.635C67.7278 55.851 67.8325 55.8379 67.7409 55.0539C67.6363 54.27 67.3485 54.3092 67.2438 53.5252C67.1392 52.7412 67.2438 52.7281 67.1392 51.9572C67.0345 51.1732 67.1392 51.1601 67.0345 50.3892C66.9299 49.6052 66.7599 49.6313 66.6552 48.8473C66.5506 48.0633 66.629 48.0503 66.5244 47.2793C66.4198 46.4953 66.5113 46.4823 66.4067 45.7114C66.302 44.9274 66.1974 44.9404 66.1058 44.1564C66.0012 43.3724 66.1058 43.3594 66.0143 42.5754C65.9096 41.7914 65.8965 41.7914 65.7919 41.0205C65.6872 40.2365 65.5826 40.2495 65.4779 39.4655C65.3733 38.6815 65.2948 38.6946 65.1902 37.9237C65.0855 37.1397 65.2425 37.1266 65.1378 36.3426C65.0332 35.5586 65.0201 35.5586 64.9155 34.7877C64.8108 34.0037 64.7062 34.0168 64.6015 33.2459C64.4969 32.4619 64.4577 32.4619 64.3661 31.6779C64.2614 30.8939 64.5231 30.8547 64.4315 30.0838C64.3268 29.2998 64.1176 29.3259 64.0129 28.5419C63.9083 27.7579 64.0914 27.7318 63.9867 26.9478C63.8821 26.1638 63.8429 26.1768 63.7382 25.3929C63.6336 24.6089 63.4635 24.635 63.3589 23.851C63.2542 23.067 63.2935 23.0539 63.1888 22.2699C63.0842 21.486 62.3909 21.0809 63.058 20.6497C63.7121 20.2316 63.7775 21.0548 64.4184 21.486C65.0724 21.9302 64.9678 22.0609 65.6218 22.5051C66.2759 22.9363 66.3543 22.8187 66.9953 23.263C67.6493 23.7073 67.5708 23.7987 68.2249 24.243C68.8789 24.6873 68.8658 24.6873 69.5199 25.1315C70.1739 25.5758 70.2916 25.3798 70.9457 25.8241C71.5997 26.2683 71.4427 26.4774 72.0968 26.9216C72.7508 27.3659 72.8031 27.2744 73.4441 27.7187C74.0981 28.163 74.1766 28.0323 74.8306 28.4635C75.4847 28.9078 75.4323 28.9731 76.0733 29.4174C76.7273 29.8616 76.6488 29.9662 77.3029 30.4104C77.9569 30.8547 78.0746 30.6717 78.7287 31.1029C79.3827 31.5472 79.3565 31.5733 80.0106 32.0176C80.6646 32.4619 80.5861 32.5795 81.2271 33.0107C81.8811 33.4549 81.8942 33.4288 82.5482 33.8731C83.2023 34.3173 83.2938 34.1736 83.9479 34.6178C84.6019 35.0621 84.458 35.2712 85.112 35.7154C85.7661 36.1597 85.8576 36.0029 86.5117 36.4472C87.1657 36.8914 87.1265 36.9306 87.7805 37.3749C88.4345 37.8192 88.5261 37.6754 89.1801 38.1066C89.8342 38.5509 89.8211 38.5509 90.4751 38.9951C91.1291 39.4394 90.9853 39.6485 91.6262 40.0927C92.2802 40.537 92.3195 40.4717 92.9735 40.9029C93.6275 41.3471 93.5752 41.4125 94.2293 41.8567C94.8833 42.301 95.001 42.1311 95.642 42.5623C96.296 43.0066 96.3352 42.9412 96.9893 43.3724C97.6433 43.8167 97.5648 43.9212 98.2189 44.3524C98.8729 44.7967 98.8467 44.8228 99.5008 45.254C100.155 45.6983 100.155 45.6852 100.809 46.1164C101.463 46.5607 101.502 46.4953 102.156 46.9265C102.81 47.3708 102.692 47.5276 103.346 47.9588C104.001 48.4031 104.014 48.3769 104.655 48.8212C105.309 49.2655 105.426 49.0825 106.067 49.5268C106.721 49.9711 106.577 50.1671 107.231 50.5982C107.885 51.0425 107.951 50.938 108.592 51.3822C109.246 51.8265 109.259 51.7873 109.913 52.2316C110.567 52.6758 110.554 52.6889 111.195 53.1332C111.849 53.5774 111.849 53.5644 112.503 54.0086C113.157 54.4529 113.105 54.5182 113.759 54.9625C114.413 55.4067 114.4 55.4067 115.054 55.851C115.708 56.2953 115.682 56.3345 116.336 56.7657C116.99 57.2099 117.068 57.0793 117.722 57.5235C118.376 57.9678 118.285 58.0985 118.926 58.5427C119.58 58.987 119.697 58.8171 120.351 59.2483C121.005 59.6926 121.032 59.6403 121.686 60.0846C122.34 60.5288 122.287 60.5942 122.941 61.0384C123.595 61.4827 123.635 61.4174 124.289 61.8486C124.943 62.2928 124.877 62.3843 125.531 62.8155C126.185 63.2598 126.225 63.1944 126.866 63.6387C127.52 64.0829 127.441 64.2005 128.082 64.6317C128.736 65.076 128.88 64.8539 129.534 65.2981C130.188 65.7424 130.018 65.9776 130.672 66.4219C131.326 66.8661 131.418 66.7224 132.072 67.1536C132.726 67.5978 132.634 67.7285 133.288 68.1728C133.942 68.617 133.981 68.5517 134.635 68.996C135.289 69.4402 135.25 69.4925 135.904 69.9237C136.558 70.368 136.532 70.3941 137.186 70.8384C137.84 71.2826 137.906 71.1781 138.56 71.6223C139.214 72.0666 139.279 71.9621 139.933 72.3933C140.587 72.8375 140.548 72.9029 141.189 73.3341C141.843 73.7783 141.764 73.8829 142.418 74.3271C143.072 74.7714 143.151 74.6538 143.805 75.098C144.459 75.5423 144.407 75.6207 145.061 76.0519C145.715 76.4962 145.846 76.3002 146.5 76.7444C147.154 77.1887 147.141 77.2018 147.795 77.633C148.449 78.0772 148.331 78.2471 148.972 78.6914C149.626 79.1356 149.639 79.1095 150.293 79.5537C150.947 79.998 151.026 79.8673 151.68 80.3116C152.334 80.7559 152.347 80.7167 153.001 81.1609C153.655 81.6052 153.616 81.6444 154.27 82.0887C154.924 82.5329 154.884 82.5852 155.538 83.0164C156.192 83.4606 156.219 83.4214 156.873 83.8526C157.527 84.2969 157.409 84.4537 158.063 84.898C158.717 85.3422 158.835 85.1593 159.489 85.5905C160.143 86.0348 160.025 86.1916 160.679 86.6358C161.333 87.0801 161.359 87.0409 162.013 87.4851C162.667 87.9294 162.654 87.9425 163.308 88.3867C163.962 88.831 164.002 88.7657 164.656 89.2099C165.31 89.6542 165.349 89.5889 166.003 90.0201C166.657 90.4643 166.565 90.595 167.206 91.0393C167.86 91.4835 167.965 91.3137 168.619 91.7579C169.055 92.0541 169.491 92.3459 169.927 92.6334C170.581 93.0776 170.555 93.1168 171.196 93.5611C171.85 94.0054 171.811 94.0576 172.465 94.5019C173.119 94.9462 173.132 94.92 173.773 95.3643C174.427 95.8085 174.348 95.9131 174.989 96.3573C175.643 96.8016 175.748 96.6317 176.402 97.076C177.056 97.5203 176.951 97.6509 177.605 98.0952C178.26 98.5395 178.351 98.3827 179.005 98.8269C179.659 99.2712 179.541 99.441 180.182 99.8853C180.836 100.33 181.006 100.068 181.66 100.499C182.315 100.944 182.131 101.205 182.785 101.649C183.439 102.094 183.57 101.898 184.224 102.342C184.878 102.786 184.918 102.721 185.572 103.165C186.226 103.609 186.226 103.609 186.88 104.054C187.534 104.498 187.442 104.628 188.096 105.073C188.75 105.517 188.776 105.478 189.43 105.909C190.084 106.353 190.071 106.366 190.725 106.811C191.379 107.255 191.327 107.32 191.981 107.751C192.635 108.196 192.609 108.222 193.263 108.653C193.917 109.097 193.982 108.993 194.637 109.437C195.291 109.881 195.317 109.829 195.971 110.273C196.625 110.717 196.664 110.665 197.318 111.096C197.972 111.541 197.841 111.737 198.495 112.181C199.149 112.625 199.228 112.495 199.882 112.939C200.536 113.383 200.549 113.357 201.203 113.801C201.857 114.245 201.765 114.376 202.42 114.82C203.074 115.265 203.178 115.095 203.832 115.539C204.486 115.983 204.447 116.036 205.101 116.48C205.755 116.924 205.768 116.898 206.422 117.342C207.076 117.786 206.972 117.943 207.626 118.388C208.28 118.832 208.306 118.793 208.96 119.237C209.614 119.681 209.653 119.629 210.307 120.073C210.961 120.517 210.961 120.504 211.615 120.949C212.269 121.393 212.309 121.328 212.963 121.772C213.617 122.216 213.656 122.151 214.31 122.595C214.964 123.039 214.977 123.013 215.631 123.457C216.285 123.902 216.18 124.045 216.834 124.49C217.488 124.934 217.541 124.856 218.195 125.3C218.849 125.744 218.783 125.836 219.437 126.28C220.091 126.724 220.039 126.802 220.693 127.247C221.347 127.691 221.504 127.469 222.145 127.9C222.799 128.344 222.747 128.41 223.414 128.854C224.068 129.298 223.976 129.429 224.63 129.873C225.285 130.317 225.428 130.095 226.082 130.539C226.736 130.984 226.671 131.088 227.325 131.533C227.979 131.977 227.94 132.042 228.594 132.486C229.248 132.931 229.248 132.931 229.902 133.375C230.556 133.819 230.674 133.649 231.328 134.094C231.982 134.538 231.825 134.773 232.492 135.217C233.146 135.662 233.303 135.439 233.957 135.884C234.611 136.328 234.441 136.655 235.2 136.929C236.089 137.243 236.887 137.047 236.599 137.778L236.573 137.713Z" fill="#FBFFA1"/>
<path d="M3.54094 32.3704C4.3127 32.1875 4.28654 32.0829 5.04522 31.8869C5.81698 31.704 5.79082 31.6125 6.56258 31.4296C7.33434 31.2467 7.37358 31.4296 8.14534 31.2467C8.9171 31.0507 8.87786 30.8939 9.63653 30.7109C10.4083 30.5149 10.4475 30.6717 11.2193 30.4888C11.9911 30.2928 11.9257 30.0707 12.6974 29.8878C13.4692 29.7048 13.5084 29.8878 14.2802 29.6918C15.0519 29.5088 15.0127 29.3782 15.7845 29.1952C16.5562 29.0123 16.53 28.9208 17.3018 28.7379C18.0736 28.555 18.1259 28.764 18.8846 28.568C19.6563 28.372 19.6563 28.3851 20.4281 28.1891C21.1998 27.9931 21.1475 27.784 21.9193 27.6011C22.691 27.4051 22.691 27.4443 23.4628 27.2614C24.2346 27.0654 24.2346 27.0784 25.0063 26.8824C25.7781 26.6864 25.8173 26.8432 26.576 26.6603C27.3478 26.4643 27.3085 26.3206 28.0803 26.1246C28.852 25.9286 28.8782 26.0462 29.65 25.8502C30.4217 25.6542 30.4348 25.7326 31.2066 25.5497C31.9783 25.3537 31.9391 25.1838 32.6978 25.0009C33.4695 24.8049 33.5088 25.0009 34.2805 24.8049C35.0523 24.6089 35 24.4129 35.7717 24.2169C36.5435 24.0339 36.5304 23.9817 37.2891 23.7987C38.0608 23.6158 38.0739 23.6942 38.8457 23.4982C39.6174 23.3022 39.6567 23.4459 40.4284 23.263C41.2002 23.067 41.2002 23.067 41.9589 22.871C42.7306 22.675 42.6783 22.4659 43.4501 22.283C44.2218 22.087 44.248 22.2177 45.0198 22.0217C45.7915 21.8257 45.8177 21.9302 46.5894 21.7473C47.3612 21.5513 47.3612 21.5774 48.133 21.3814C48.9047 21.1854 48.8393 20.9241 49.6111 20.7412C50.3828 20.5452 50.3959 20.6236 51.1677 20.4276C51.9394 20.2316 51.9656 20.323 52.7374 20.1401C53.5091 19.9441 53.4699 19.8004 54.2547 19.6044C55.0265 19.4084 55.0919 19.6566 55.8636 19.4606C56.3607 19.343 56.8185 19.0425 57.3287 19.0164C57.8388 18.9772 58.3359 19.2124 58.8329 19.2646C59.3431 19.3169 59.8794 19.1601 60.3634 19.2908C60.8474 19.4214 61.2921 19.7089 61.7499 19.918C62.2078 20.127 62.731 20.2446 63.1627 20.519C63.8167 20.9502 63.6597 21.1724 64.3138 21.6166C64.9678 22.0609 64.9547 22.0609 65.6087 22.5051C66.2628 22.9494 66.4067 22.7273 67.0476 23.1585C67.7016 23.6027 67.597 23.7334 68.251 24.1777C68.9051 24.6219 68.8527 24.6873 69.4937 25.1315C70.1347 25.5758 70.2524 25.4059 70.9064 25.8502C71.5604 26.2945 71.482 26.399 72.1229 26.8432C72.7769 27.2875 72.8031 27.2352 73.4441 27.6795C74.0981 28.1238 74.0589 28.176 74.6998 28.6072C75.3538 29.0515 75.3277 29.0907 75.9686 29.5219C76.6227 29.9662 76.6357 29.94 77.2767 30.3843C77.9307 30.8285 77.9831 30.7371 78.6371 31.1813C79.2911 31.6256 79.3565 31.508 80.0106 31.9523C80.6646 32.3965 80.6908 32.3443 81.3448 32.7885C81.9988 33.2328 81.9334 33.3243 82.5744 33.7685C83.2284 34.2128 83.2676 34.1475 83.9217 34.5917C84.5757 35.036 84.5626 35.049 85.2167 35.4802C85.8707 35.9245 85.8707 35.9245 86.5247 36.3688C87.1788 36.813 87.0349 37.0221 87.6889 37.4533C88.3429 37.8976 88.3691 37.8584 89.0231 38.2896C89.6772 38.7338 89.7557 38.6031 90.4097 39.0474C91.0637 39.4917 91.0506 39.5047 91.7047 39.9359C92.3587 40.3802 92.3587 40.3671 93.0127 40.7983C93.6668 41.2426 93.5883 41.3602 94.2292 41.7914C94.8833 42.2357 94.9487 42.1311 95.5896 42.5754C96.2437 43.0196 96.3091 42.9151 96.9631 43.3594C97.6171 43.8036 97.4733 43.9996 98.1273 44.4308C98.7813 44.8751 98.9252 44.6399 99.5792 45.0842C100.233 45.5284 100.063 45.7636 100.717 46.2079C101.371 46.6521 101.502 46.4562 102.143 46.9004C102.797 47.3447 102.745 47.41 103.399 47.8412C104.053 48.2855 104.066 48.2463 104.72 48.6905C105.374 49.1348 105.348 49.1479 106.002 49.5921C106.656 50.0364 106.695 49.9711 107.336 50.4153C107.99 50.8596 107.964 50.8857 108.618 51.33C109.272 51.7742 109.18 51.9049 109.834 52.3361C110.489 52.7804 110.541 52.6889 111.195 53.1332C111.849 53.5774 111.901 53.499 112.542 53.9433C113.196 54.3876 113.17 54.4137 113.824 54.858C114.478 55.3022 114.517 55.2369 115.171 55.6681C115.825 56.1123 115.695 56.2953 116.349 56.7395C117.003 57.1838 117.107 57.0139 117.761 57.4582C118.415 57.9025 118.415 57.9025 119.069 58.3467C119.723 58.791 119.658 58.8825 120.312 59.3136C120.966 59.7579 121.005 59.6926 121.659 60.1238C122.313 60.568 122.3 60.568 122.954 61.0123C123.608 61.4566 123.608 61.4435 124.262 61.8878C124.917 62.332 124.799 62.5019 125.44 62.9462C126.094 63.3904 126.107 63.3512 126.761 63.7955C127.415 64.2397 127.506 64.0829 128.161 64.5272C128.815 64.9715 128.736 65.0891 129.377 65.5333C130.031 65.9776 130.123 65.8339 130.777 66.2781C131.431 66.7224 131.431 66.7093 132.085 67.1536C132.739 67.5979 132.634 67.7416 133.288 68.1858C133.942 68.6301 133.929 68.6432 134.583 69.0744C135.237 69.5186 135.276 69.4533 135.93 69.8976C136.584 70.3418 136.624 70.2765 137.278 70.7077C137.932 71.152 137.866 71.2434 138.507 71.6877C139.161 72.1319 139.174 72.1058 139.828 72.5501C140.264 72.8462 140.701 73.1381 141.137 73.4255C141.791 73.8698 141.777 73.8959 142.418 74.3271C143.072 74.7714 143.059 74.7845 143.713 75.2157C144.367 75.6599 144.472 75.5031 145.126 75.9343C145.78 76.3786 145.715 76.457 146.369 76.9012C147.023 77.3455 147.036 77.3194 147.69 77.7636C148.344 78.2079 148.357 78.1818 149.011 78.613C149.665 79.0572 149.56 79.201 150.215 79.6452C150.869 80.0895 150.934 79.9719 151.588 80.4161C152.242 80.8604 152.281 80.7951 152.935 81.2263C153.589 81.6705 153.485 81.8273 154.126 82.2716C154.78 82.7159 154.95 82.4676 155.591 82.8988C156.245 83.3431 156.219 83.3823 156.873 83.8265C157.527 84.2708 157.514 84.2838 158.168 84.715C158.822 85.1593 158.73 85.29 159.384 85.7342C160.038 86.1785 160.13 86.0478 160.771 86.4921C161.425 86.9364 161.451 86.8841 162.105 87.3283C162.759 87.7726 162.693 87.8641 163.348 88.3083C164.002 88.7526 163.91 88.8833 164.564 89.3145C165.218 89.7587 165.218 89.7457 165.872 90.1899C166.526 90.6342 166.683 90.3859 167.337 90.8302C167.991 91.2745 167.847 91.4705 168.501 91.9147C169.155 92.359 169.116 92.4243 169.757 92.8555C170.411 93.2998 170.529 93.1168 171.183 93.548C171.837 93.9923 171.732 94.136 172.386 94.5672C173.04 95.0115 173.014 95.0376 173.668 95.4688C174.322 95.9131 174.466 95.6909 175.12 96.1221C175.774 96.5664 175.722 96.6317 176.376 97.0629C177.03 97.5072 177.069 97.4288 177.723 97.86C178.377 98.3043 178.364 98.3173 179.018 98.7485C179.672 99.1928 179.633 99.2451 180.287 99.6763C180.941 100.121 180.902 100.16 181.556 100.604C182.21 101.048 182.236 100.996 182.89 101.44C183.544 101.884 183.57 101.845 184.224 102.29C184.878 102.734 184.852 102.76 185.506 103.204C186.16 103.648 186.147 103.662 186.801 104.093C187.455 104.537 187.337 104.694 187.992 105.138C188.646 105.582 188.75 105.412 189.404 105.857C190.058 106.301 189.993 106.392 190.647 106.837C191.301 107.281 191.249 107.346 191.903 107.778C192.557 108.222 192.622 108.117 193.276 108.562C193.93 109.006 193.891 109.058 194.532 109.502C195.186 109.947 195.251 109.842 195.905 110.286C196.559 110.731 196.586 110.691 197.24 111.136C197.894 111.58 197.881 111.593 198.535 112.037C199.189 112.481 199.189 112.481 199.843 112.926C200.497 113.37 200.51 113.357 201.164 113.788C201.818 114.232 201.792 114.259 202.446 114.703C203.1 115.147 203.139 115.069 203.793 115.513C204.447 115.957 204.382 116.049 205.036 116.48C205.69 116.924 205.716 116.885 206.37 117.316C207.024 117.76 206.945 117.878 207.599 118.322C208.253 118.766 208.358 118.61 209.012 119.054C209.666 119.498 209.666 119.485 210.32 119.929C210.974 120.374 210.896 120.478 211.55 120.922C212.204 121.367 212.217 121.354 212.871 121.798C213.525 122.242 213.473 122.321 214.127 122.765C214.563 123.061 214.999 123.357 215.435 123.653C216.089 124.098 216.167 123.993 216.821 124.424C217.475 124.869 217.488 124.856 218.142 125.3C218.797 125.744 218.81 125.705 219.464 126.149C220.118 126.593 220.026 126.724 220.667 127.168C221.321 127.613 221.373 127.521 222.027 127.965C222.681 128.41 222.695 128.397 223.349 128.841C224.003 129.285 224.055 129.22 224.709 129.651C225.363 130.095 225.285 130.213 225.939 130.657C226.593 131.101 226.553 131.167 227.207 131.611C227.861 132.055 227.874 132.042 228.529 132.486C229.183 132.931 229.261 132.826 229.915 133.27C230.569 133.715 230.543 133.754 231.197 134.185C231.851 134.629 231.812 134.695 232.466 135.139C233.12 135.583 233.198 135.479 233.852 135.923C234.506 136.367 234.428 136.498 235.082 136.942C235.736 137.386 236.835 136.994 236.508 137.726C236.194 138.445 235.71 137.556 234.977 137.256C234.258 136.955 234.336 136.733 233.617 136.432C232.897 136.132 232.845 136.236 232.126 135.936C231.406 135.635 231.393 135.662 230.661 135.361C229.941 135.06 229.98 134.943 229.261 134.642C228.542 134.342 228.555 134.316 227.822 134.015C227.103 133.715 227.063 133.78 226.344 133.479C225.625 133.179 225.651 133.114 224.918 132.813C224.199 132.513 224.186 132.539 223.466 132.238C222.747 131.938 222.734 131.964 222.014 131.663C221.295 131.363 221.308 131.323 220.575 131.023C219.856 130.722 219.791 130.853 219.071 130.553C218.352 130.252 218.365 130.213 217.645 129.912C216.926 129.612 216.861 129.755 216.141 129.455C215.422 129.154 215.448 129.076 214.728 128.775C214.009 128.475 214.048 128.37 213.329 128.07C212.609 127.769 212.557 127.887 211.838 127.586C211.118 127.286 211.131 127.247 210.412 126.946C209.932 126.746 209.448 126.545 208.96 126.345C208.24 126.045 208.214 126.097 207.495 125.796C206.775 125.496 206.841 125.326 206.121 125.025C205.402 124.725 205.323 124.921 204.591 124.62C203.871 124.32 203.871 124.307 203.152 124.006C202.433 123.706 202.511 123.497 201.792 123.196C201.072 122.896 200.981 123.118 200.248 122.83C199.529 122.53 199.594 122.36 198.875 122.059C198.155 121.759 198.077 121.955 197.357 121.654C196.638 121.354 196.69 121.21 195.971 120.909C195.251 120.609 195.238 120.648 194.506 120.348C193.786 120.047 193.734 120.165 193.014 119.864C192.295 119.564 192.321 119.498 191.602 119.198C190.882 118.897 190.948 118.74 190.215 118.44C189.496 118.139 189.417 118.309 188.698 118.009C187.978 117.708 188.031 117.577 187.311 117.277C186.592 116.976 186.618 116.911 185.899 116.611C185.179 116.31 185.14 116.401 184.42 116.101C183.701 115.8 183.649 115.905 182.929 115.604C182.21 115.304 182.249 115.199 181.53 114.899C180.81 114.598 180.771 114.69 180.038 114.389C179.319 114.089 179.345 114.023 178.613 113.723C177.893 113.422 177.841 113.54 177.121 113.239C176.402 112.939 176.481 112.73 175.761 112.429C175.042 112.129 175.002 112.207 174.283 111.907C173.564 111.606 173.577 111.554 172.857 111.253C172.138 110.953 172.098 111.031 171.366 110.731C170.633 110.43 170.62 110.469 169.901 110.169C169.168 109.868 169.182 109.868 168.449 109.555C167.73 109.254 167.782 109.11 167.062 108.797C166.343 108.496 166.238 108.731 165.519 108.431C164.799 108.13 164.852 107.974 164.132 107.673C163.413 107.372 163.4 107.399 162.667 107.098C161.948 106.798 161.974 106.719 161.255 106.419C160.535 106.118 160.483 106.223 159.763 105.922C159.044 105.622 159.057 105.595 158.325 105.295C157.592 104.994 157.618 104.955 156.886 104.655C156.166 104.354 156.179 104.328 155.447 104.027C154.727 103.727 154.74 103.688 154.021 103.387C153.302 103.087 153.288 103.1 152.569 102.799C151.85 102.499 151.85 102.499 151.117 102.198C150.398 101.898 150.319 102.081 149.587 101.78C148.867 101.479 148.933 101.31 148.213 101.009C147.494 100.709 147.481 100.735 146.748 100.434C146.029 100.134 146.016 100.147 145.296 99.8461C144.577 99.5456 144.577 99.5456 143.844 99.2451C143.125 98.9445 143.125 98.9184 142.405 98.6179C141.686 98.3173 141.621 98.4741 140.888 98.1736C140.169 97.8731 140.195 97.8077 139.462 97.5072C138.743 97.2067 138.743 97.2067 138.01 96.9061C137.291 96.6056 137.356 96.4227 136.637 96.1221C135.917 95.8216 135.839 95.9915 135.119 95.6909C134.387 95.3904 134.452 95.2336 133.733 94.9331C133 94.6326 133.013 94.6064 132.294 94.3059C131.806 94.1055 131.322 93.9052 130.842 93.7048C130.11 93.4043 130.07 93.5219 129.338 93.2214C128.605 92.9208 128.605 92.9339 127.886 92.6203C127.166 92.3198 127.153 92.3198 126.434 92.0192C125.714 91.7187 125.662 91.8233 124.943 91.5227C124.223 91.2222 124.276 91.0915 123.543 90.791C122.824 90.4905 122.85 90.399 122.13 90.0985C121.411 89.7979 121.332 89.9809 120.6 89.6803C119.867 89.3798 119.933 89.2491 119.2 88.9486C118.481 88.6481 118.507 88.5697 117.788 88.2691C117.068 87.9686 117.016 88.0862 116.296 87.7857C115.577 87.4852 115.538 87.5636 114.818 87.263C114.099 86.9625 114.086 86.9756 113.366 86.675C112.647 86.3745 112.712 86.2046 111.98 85.9041C111.26 85.6036 111.182 85.7865 110.449 85.486C109.73 85.1854 109.821 84.9502 109.089 84.6497C108.356 84.3492 108.239 84.6497 107.519 84.3361C106.787 84.0356 106.891 83.8004 106.159 83.4999C105.426 83.1993 105.413 83.2516 104.681 82.9511C103.948 82.6505 104.001 82.546 103.268 82.2324C102.535 81.9319 102.522 81.9841 101.79 81.6836C101.057 81.3831 101.031 81.4615 100.299 81.1609C99.5792 80.8604 99.5662 80.8735 98.8467 80.5599C98.1273 80.2593 98.1404 80.2071 97.4209 79.9065C96.7015 79.606 96.6492 79.7105 95.9297 79.397C95.2103 79.0964 95.1972 79.1095 94.4778 78.809C93.7583 78.5084 93.7714 78.4562 93.052 78.1426C92.3326 77.842 92.3326 77.829 91.6 77.5284C90.8675 77.2279 90.9068 77.1626 90.1742 76.862C89.4417 76.5615 89.3894 76.7183 88.6569 76.4047C87.9244 76.1042 87.9505 76.0388 87.2311 75.7383C86.4986 75.4378 86.5378 75.3725 85.8053 75.0719C85.0728 74.7714 85.0989 74.7061 84.3795 74.4055C83.647 74.105 83.5423 74.3663 82.8229 74.0658C82.0904 73.7653 82.1819 73.5562 81.4494 73.2557C80.7169 72.9551 80.7169 72.9813 79.9844 72.6677C79.2519 72.3671 79.1865 72.5501 78.454 72.2495C77.7214 71.949 77.7607 71.8706 77.0282 71.5701C76.2956 71.2696 76.2956 71.2826 75.5631 70.9821C74.8306 70.6816 74.9091 70.5117 74.1766 70.2112C73.4441 69.9106 73.3787 70.0674 72.6592 69.7669C71.9267 69.4664 71.979 69.3488 71.2465 69.0482C70.514 68.7477 70.5532 68.6693 69.8207 68.3688C69.0882 68.0682 69.062 68.1466 68.3426 67.833C67.6101 67.5325 67.5447 67.6893 66.8252 67.3888C66.1058 67.0883 66.1843 66.8923 65.4649 66.5787C64.7454 66.2781 64.6931 66.4088 63.9606 66.1083C63.2281 65.8077 63.2935 65.6771 62.5609 65.3765C61.8284 65.076 61.8546 65.0368 61.1221 64.7363C60.3895 64.4357 60.3111 64.6448 59.5785 64.3312C58.846 64.0307 58.8722 63.9784 58.1397 63.6779C57.4202 63.3773 57.4987 63.1814 56.7662 62.8808C56.0468 62.5803 55.9552 62.8024 55.2227 62.5019C54.5032 62.2014 54.4902 62.2144 53.7707 61.9139C53.0513 61.6134 53.1298 61.4043 52.4103 61.1038C51.6909 60.8032 51.6778 60.8294 50.9453 60.5288C50.2259 60.2283 50.1605 60.3851 49.4279 60.0846C48.6954 59.784 48.7739 59.6142 48.0414 59.3136C47.3089 59.0131 47.2827 59.0784 46.5633 58.7779C45.8308 58.4774 45.7784 58.595 45.059 58.2945C44.3265 57.9939 44.3003 58.0723 43.5678 57.7718C42.8353 57.4713 42.8876 57.3667 42.1551 57.0662C41.4226 56.7657 41.4356 56.7526 40.7031 56.4521C39.9706 56.1515 39.9445 56.2299 39.2119 55.9294C38.4794 55.6289 38.5448 55.4721 37.8254 55.1715C37.0929 54.871 37.0275 55.0409 36.2949 54.7404C35.5624 54.4398 35.6671 54.2046 34.9346 53.891C34.202 53.5905 34.1366 53.7473 33.4172 53.4468C32.6847 53.1462 32.6585 53.2377 31.926 52.9372C31.1935 52.6366 31.2066 52.6236 30.474 52.323C29.7415 52.0225 29.8593 51.7481 29.1267 51.4476C28.3942 51.147 28.3027 51.3692 27.5832 51.0686C26.8507 50.7681 26.9423 50.5591 26.2097 50.2585C25.4772 49.958 25.3987 50.1671 24.6662 49.8665C24.1779 49.6662 23.6895 49.4658 23.2012 49.2655C22.4687 48.9649 22.5341 48.8212 21.8016 48.5207C21.0821 48.2201 21.0167 48.3769 20.2842 48.0633C19.5517 47.7628 19.5648 47.7497 18.8322 47.4361C18.0997 47.1356 18.1521 47.018 17.4195 46.7175C16.687 46.417 16.6216 46.5868 15.8891 46.2863C15.1566 45.9858 15.2612 45.7506 14.5287 45.45C13.7962 45.1495 13.7439 45.2932 13.0113 44.9796C12.2788 44.6791 12.3573 44.5092 11.6248 44.2087L10.1598 43.6076C9.42724 43.3071 9.388 43.4116 8.65548 43.1111C7.92297 42.8106 7.94913 42.7714 7.21661 42.4578C6.48409 42.1573 6.44485 42.2487 5.71233 41.9482C4.97981 41.6477 4.95365 41.713 4.22114 41.4125C3.48862 41.1119 3.47554 41.125 2.74302 40.8245C2.21979 40.6023 1.86661 40.145 1.50036 39.8053C1.09485 39.4394 0.741676 39.0474 0.506224 38.5901C0.270772 38.1066 0.179207 37.584 0.139965 37.0613C0.0876425 36.5386 -0.0824063 35.9637 0.0484005 35.4541C0.179207 34.9445 0.506224 34.4611 0.82016 34.0299C1.12102 33.5987 1.55268 33.2851 2.0105 32.9845C2.42908 32.7101 2.92615 32.5925 3.47554 32.4619L3.54094 32.3704Z" fill="#FBFFA1"/>
<path d="M95.9036 9.41246C96.6753 9.21646 96.7015 9.29486 97.4732 9.11192C97.9877 8.98126 98.5066 8.85495 99.0298 8.73299C99.8016 8.537 99.7754 8.4194 100.547 8.2234C101.319 8.0274 101.319 8.04047 102.104 7.84447C102.876 7.64847 102.889 7.70074 103.673 7.5178C104.445 7.32181 104.432 7.24341 105.204 7.06047C105.976 6.86448 105.976 6.82528 106.747 6.64234C107.519 6.44635 107.558 6.61621 108.343 6.42021C109.115 6.22421 109.089 6.10662 109.861 5.91062C110.632 5.71462 110.632 5.67542 111.404 5.47942C112.176 5.28342 112.241 5.54475 113.026 5.36182C113.798 5.16582 113.798 5.15276 114.583 4.95676C115.355 4.76076 115.368 4.82609 116.152 4.63009C116.924 4.4341 116.911 4.3557 117.683 4.1597C118.455 3.9637 118.402 3.75463 119.187 3.5717C119.972 3.38877 120.037 3.66317 120.809 3.46717C121.594 3.27117 121.568 3.21891 122.353 3.02291C123.124 2.82691 123.151 2.90531 123.922 2.70931C124.707 2.51331 124.655 2.33038 125.427 2.13438C126.211 1.93838 126.172 1.82078 126.957 1.62479C127.742 1.42879 127.742 1.44185 128.514 1.24586C129.299 1.04986 129.364 1.35039 130.149 1.16746C130.934 0.971457 130.934 0.971457 131.705 0.775459C132.49 0.579461 132.451 0.422662 133.223 0.226664C133.759 0.0959979 134.295 0.0175986 134.832 0.004532C135.381 -0.0216011 135.904 0.0698648 136.441 0.161331C136.977 0.252797 137.526 0.27893 138.036 0.461862C138.547 0.644793 138.991 0.984524 139.449 1.25892C139.907 1.54639 140.443 1.75545 140.836 2.12131C141.228 2.48718 141.437 3.02291 141.751 3.46717C142.196 4.10743 142.183 4.1205 142.628 4.76076C143.072 5.40102 143.099 5.37489 143.556 6.01515C144.001 6.65541 144.145 6.55088 144.603 7.19114C145.048 7.8314 144.917 7.92287 145.362 8.56313C145.806 9.20339 145.989 9.07272 146.434 9.71299C146.879 10.3532 146.709 10.4708 147.154 11.1111C147.598 11.7514 147.625 11.7383 148.069 12.3655C148.514 12.9927 148.54 12.9927 148.985 13.633C149.43 14.2732 149.534 14.1948 149.979 14.8351C150.424 15.4753 150.267 15.5799 150.725 16.2201C151.169 16.8604 151.222 16.8212 151.666 17.4615C152.111 18.1017 152.19 18.0495 152.648 18.6766C153.092 19.3169 153.132 19.2908 153.589 19.931C154.034 20.5713 153.864 20.6889 154.322 21.3292C154.767 21.9694 154.91 21.8649 155.368 22.5051C155.813 23.1454 155.865 23.1193 156.31 23.7465C156.755 24.3867 156.781 24.3737 157.239 25.0139C157.684 25.6542 157.474 25.7979 157.932 26.4382C158.377 27.0784 158.416 27.0523 158.861 27.6926C159.306 28.3328 159.423 28.2544 159.868 28.8947C160.313 29.535 160.274 29.5611 160.731 30.2014C161.176 30.8416 161.268 30.7763 161.726 31.4165C162.17 32.0568 162.105 32.1091 162.55 32.7493C162.994 33.3896 162.877 33.4811 163.321 34.1083C163.766 34.7485 163.858 34.6832 164.315 35.3234C164.773 35.9637 164.747 35.9768 165.205 36.604C165.663 37.2312 165.741 37.1789 166.199 37.8192C166.657 38.4594 166.5 38.564 166.958 39.2042C167.403 39.8445 167.389 39.8575 167.834 40.4978C168.279 41.1381 168.449 41.0205 168.894 41.6607C169.338 42.301 169.142 42.4317 169.6 43.0719C170.045 43.7122 170.097 43.673 170.542 44.3132C170.987 44.9535 171.131 44.862 171.575 45.4892C172.02 46.1295 171.955 46.1818 172.412 46.822C172.857 47.4623 172.805 47.5015 173.263 48.1417C173.707 48.782 173.668 48.8081 174.126 49.4484C174.571 50.0887 174.819 49.9188 175.277 50.5591C175.722 51.1993 175.709 51.2124 176.153 51.8526C176.598 52.4929 176.454 52.5974 176.899 53.2377C177.344 53.878 177.462 53.7996 177.919 54.4268C178.364 55.067 178.351 55.0801 178.796 55.7203C179.241 56.3606 179.201 56.3867 179.659 57.027C180.104 57.6673 180.182 57.615 180.627 58.2553C181.072 58.8955 181.006 58.9478 181.451 59.588C181.896 60.2283 181.974 60.176 182.432 60.8163C182.877 61.4566 182.838 61.4958 183.282 62.123C183.727 62.7632 183.675 62.8024 184.12 63.4427C184.577 64.0829 184.46 64.1613 184.918 64.8016C185.362 65.4419 185.441 65.3896 185.886 66.0299C186.33 66.6701 186.526 66.5395 186.971 67.1797C187.416 67.82 187.311 67.8984 187.756 68.5386C188.201 69.1789 188.292 69.1136 188.75 69.7538C189.195 70.3941 189.116 70.4464 189.574 71.0866C190.019 71.7269 190.084 71.6877 190.529 72.3279C190.974 72.9682 191.026 72.929 191.471 73.5693C191.767 73.9961 192.068 74.4186 192.374 74.8367C192.818 75.477 192.701 75.5554 193.145 76.1956C193.59 76.8359 193.669 76.7706 194.126 77.4108C194.571 78.0511 194.44 78.1426 194.885 78.7698C195.33 79.41 195.264 79.4623 195.709 80.0895C196.154 80.7297 196.324 80.6121 196.769 81.2393C197.213 81.8796 197.135 81.9319 197.58 82.5721C198.024 83.2124 198.116 83.147 198.574 83.7873C199.019 84.4276 198.927 84.506 199.372 85.1332C199.83 85.7734 199.96 85.682 200.405 86.3222C200.863 86.9625 200.667 87.0932 201.111 87.7334C201.408 88.1603 201.709 88.5871 202.014 89.0139C202.459 89.6542 202.55 89.5889 202.995 90.2291C203.44 90.8694 203.584 90.7649 204.041 91.4051C204.486 92.0454 204.303 92.176 204.761 92.8163C205.206 93.4566 205.179 93.4696 205.637 94.1099C206.082 94.7502 206.134 94.711 206.592 95.3512C207.037 95.9915 207.194 95.8869 207.639 96.5272C208.083 97.1675 207.913 97.2851 208.371 97.9253C208.676 98.3522 208.977 98.779 209.274 99.2059C209.732 99.8461 209.889 99.7285 210.346 100.369C210.804 101.009 210.686 101.087 211.144 101.728C211.589 102.368 211.524 102.42 211.968 103.06C212.413 103.701 212.4 103.714 212.845 104.354C213.29 104.994 213.525 104.838 213.97 105.478C214.428 106.118 214.179 106.288 214.637 106.928C215.095 107.568 215.173 107.503 215.631 108.143C216.089 108.784 216.01 108.836 216.455 109.476C216.913 110.116 217.083 109.999 217.528 110.639C217.985 111.279 217.92 111.319 218.365 111.959C218.823 112.599 218.81 112.612 219.254 113.252C219.712 113.893 219.699 113.893 220.157 114.533C220.615 115.173 220.667 115.134 221.112 115.774C221.57 116.415 221.465 116.48 221.923 117.12C222.381 117.76 222.524 117.656 222.969 118.296C223.427 118.936 223.283 119.041 223.741 119.681C224.186 120.321 224.12 120.374 224.578 121.014C225.023 121.654 225.193 121.537 225.638 122.177C226.096 122.817 226.004 122.882 226.449 123.523C226.906 124.163 226.828 124.215 227.286 124.856C227.744 125.496 227.731 125.509 228.175 126.149C228.62 126.789 228.633 126.789 229.078 127.43C229.536 128.07 229.771 127.9 230.229 128.553C230.687 129.194 230.674 129.207 231.132 129.847C231.437 130.274 231.738 130.705 232.034 131.141C232.492 131.781 232.296 131.911 232.754 132.552C233.211 133.192 233.185 133.218 233.63 133.858C234.088 134.499 234.31 134.342 234.768 134.995C235.226 135.648 235.226 135.635 235.684 136.289C236.141 136.942 236.992 137.06 236.455 137.635C235.919 138.21 235.801 137.282 235.147 136.838C234.493 136.393 234.493 136.406 233.839 135.975C233.185 135.531 233.185 135.544 232.531 135.113C231.877 134.669 231.995 134.512 231.341 134.067C230.687 133.623 230.661 133.675 230.007 133.244C229.353 132.8 229.418 132.709 228.777 132.277C228.123 131.846 228.11 131.859 227.469 131.428C226.815 130.997 226.658 131.232 226.004 130.788C225.35 130.357 225.402 130.278 224.761 129.834C224.107 129.403 224.107 129.416 223.453 128.971C222.799 128.54 222.917 128.37 222.263 127.939C221.827 127.652 221.395 127.36 220.968 127.064C220.314 126.633 220.235 126.75 219.594 126.306C218.94 125.862 218.901 125.94 218.247 125.496C217.593 125.052 217.632 124.999 216.991 124.568C216.337 124.124 216.35 124.124 215.696 123.693C215.042 123.248 215.134 123.131 214.48 122.686C213.826 122.242 213.721 122.412 213.067 121.981C212.413 121.537 212.505 121.406 211.864 120.975C211.21 120.53 211.131 120.648 210.49 120.217C209.836 119.773 209.81 119.812 209.169 119.381C208.515 118.936 208.541 118.897 207.9 118.466C207.246 118.022 207.377 117.839 206.723 117.408C206.069 116.963 205.977 117.107 205.336 116.663C204.682 116.219 204.748 116.14 204.094 115.696C203.44 115.252 203.466 115.239 202.812 114.794C202.158 114.35 202.014 114.585 201.36 114.141C200.706 113.697 200.837 113.527 200.183 113.083C199.529 112.638 199.542 112.638 198.888 112.207C198.452 111.911 198.02 111.619 197.593 111.332C196.939 110.887 196.86 111.018 196.206 110.587C195.552 110.156 195.526 110.195 194.872 109.764C194.218 109.319 194.218 109.332 193.564 108.888C192.91 108.444 193.014 108.3 192.36 107.869C191.706 107.425 191.733 107.399 191.092 106.954C190.438 106.51 190.359 106.641 189.705 106.196C189.051 105.752 189.012 105.818 188.358 105.386C187.704 104.942 187.874 104.707 187.22 104.263C186.566 103.818 186.513 103.91 185.859 103.466C185.205 103.021 185.166 103.1 184.512 102.655C183.858 102.211 183.976 102.041 183.322 101.61C182.668 101.166 182.576 101.31 181.922 100.865C181.268 100.421 181.36 100.29 180.706 99.8592C180.052 99.4149 179.921 99.6109 179.267 99.1797C178.613 98.7355 178.717 98.5787 178.076 98.1475C177.422 97.7032 177.357 97.8077 176.703 97.3765C176.049 96.9323 176.01 97.0107 175.356 96.5664C174.702 96.1222 174.832 95.9523 174.178 95.508C173.524 95.0638 173.524 95.0638 172.883 94.6326C172.229 94.1883 172.112 94.3712 171.458 93.94C170.804 93.4958 170.83 93.4696 170.176 93.0254C169.522 92.5811 169.535 92.5811 168.881 92.1368C168.227 91.6926 168.318 91.5619 167.664 91.1307C167.01 90.6865 166.932 90.8171 166.278 90.3859C165.624 89.9417 165.689 89.8502 165.035 89.419C164.381 88.9747 164.42 88.9225 163.779 88.4782C163.125 88.034 163.034 88.1908 162.38 87.7465C161.726 87.3022 161.843 87.1454 161.189 86.7012C160.535 86.2569 160.417 86.4398 159.763 85.9956C159.109 85.5513 159.083 85.5905 158.442 85.1593C157.801 84.7281 157.841 84.6497 157.187 84.2185C156.532 83.7742 156.624 83.6566 155.97 83.2124C155.316 82.7681 155.316 82.7812 154.662 82.3369C154.021 81.9057 153.89 82.0756 153.249 81.6444C152.608 81.2132 152.674 81.1087 152.02 80.6644C151.379 80.2332 151.431 80.1417 150.79 79.6975C150.136 79.2663 150.149 79.2532 149.508 78.809C148.854 78.3778 148.71 78.5999 148.056 78.1556C147.402 77.7114 147.441 77.6591 146.8 77.2148C146.146 76.7706 146.199 76.7052 145.558 76.261C144.904 75.8167 144.825 75.9474 144.171 75.5162C143.517 75.0719 143.661 74.8759 143.007 74.4317C142.353 73.9874 142.235 74.1703 141.581 73.7261C140.927 73.2818 141.058 73.0989 140.404 72.6546C139.75 72.2103 139.619 72.4194 138.965 71.9751C138.311 71.5309 138.39 71.4264 137.736 70.9952C137.082 70.5509 137.003 70.6816 136.349 70.2504C135.695 69.8061 135.852 69.597 135.198 69.1528C134.544 68.7085 134.557 68.7085 133.903 68.2642C133.249 67.82 133.105 68.0421 132.451 67.5978C131.797 67.1536 131.888 67.0229 131.248 66.5787C130.594 66.1344 130.646 66.0691 129.992 65.6248C129.338 65.1805 129.233 65.3504 128.579 64.9061C127.925 64.4619 128.004 64.3573 127.35 63.9131C126.695 63.4688 126.669 63.508 126.015 63.0768C125.361 62.6326 125.4 62.5803 124.746 62.136C124.092 61.6918 124.119 61.6526 123.478 61.2214C122.824 60.7771 122.811 60.8032 122.156 60.359C121.502 59.9147 121.45 60.0062 120.796 59.5619C120.142 59.1176 120.064 59.2352 119.41 58.791C118.756 58.3467 118.729 58.399 118.075 57.9547C117.421 57.5105 117.487 57.419 116.846 56.9747C116.192 56.5305 116.152 56.5958 115.498 56.1515C114.844 55.7073 114.857 55.6942 114.203 55.263C113.549 54.8188 113.549 54.8188 112.895 54.3745C112.241 53.9302 112.385 53.7212 111.731 53.29C111.077 52.8457 111.051 52.8849 110.397 52.4406C109.743 51.9964 109.664 52.127 109.01 51.6828C108.356 51.2385 108.369 51.2254 107.715 50.7943C107.061 50.35 107.061 50.3631 106.407 49.9319C105.753 49.4876 105.832 49.37 105.191 48.9388C104.537 48.4945 104.471 48.5991 103.817 48.1548C103.163 47.7105 103.098 47.8151 102.444 47.3708C101.79 46.9265 101.921 46.7306 101.267 46.2863C100.613 45.842 100.456 46.0642 99.8016 45.6199C99.1476 45.1756 99.3176 44.9274 98.6636 44.4962C98.0096 44.0519 97.8787 44.2479 97.2247 43.8036C96.5707 43.3594 96.623 43.294 95.969 42.8498C95.3149 42.4055 95.2888 42.4317 94.6347 42.0005C93.9807 41.5562 93.9938 41.5301 93.3398 41.0858C92.6857 40.6415 92.6465 40.6938 91.9794 40.2495C91.3122 39.8053 91.0506 40.0143 90.6713 39.3087C90.305 38.6293 90.8283 38.5117 90.8283 37.7277C90.8283 36.9437 90.7367 36.9568 90.7367 36.1728C90.7367 35.3888 90.6451 35.4018 90.6451 34.6179C90.6451 33.8339 90.6844 33.8469 90.6844 33.076C90.6844 32.3051 90.6059 32.3051 90.6059 31.5211C90.6059 30.7371 90.8283 30.7501 90.8283 29.9662C90.8283 29.1822 90.6321 29.1952 90.6321 28.4112C90.6321 27.6272 90.6321 27.6403 90.6321 26.8563C90.6321 26.0723 90.7367 26.0854 90.7367 25.3014C90.7367 24.5174 90.6582 24.5305 90.6582 23.7465C90.6582 22.9625 90.6582 22.9625 90.6582 22.1916C90.6582 21.4206 90.6582 21.4206 90.6582 20.6366C90.6582 19.8526 90.8675 19.8526 90.8675 19.0817C90.8675 18.3108 90.8283 18.2977 90.8283 17.5268C90.8283 16.7559 90.6451 16.7428 90.6451 15.9719C90.6451 15.4623 90.8413 14.9919 90.9591 14.5084C91.0637 14.0119 91.0768 13.4892 91.2992 13.045C91.5085 12.5876 91.7831 12.1434 92.084 11.7514C92.3849 11.3594 92.8688 11.1372 93.2613 10.8106C93.6406 10.497 94.0592 10.2487 94.5039 10.0266C94.9487 9.80445 95.3542 9.47779 95.8382 9.36019L95.9036 9.41246Z" fill="#FBFFA1"/>
<path d="M236.442 137.804C235.788 137.36 235.919 137.177 235.278 136.733C234.624 136.289 234.519 136.459 233.865 136.014C233.211 135.57 233.277 135.479 232.636 135.034C231.982 134.59 231.943 134.668 231.289 134.224C230.635 133.78 230.595 133.858 229.941 133.414C229.287 132.97 229.444 132.748 228.803 132.317C228.149 131.885 228.136 131.911 227.482 131.48C226.828 131.049 226.763 131.154 226.109 130.709C225.455 130.278 225.481 130.239 224.84 129.808C224.186 129.377 224.251 129.285 223.61 128.841C222.956 128.41 222.904 128.488 222.263 128.044C221.622 127.599 221.583 127.652 220.929 127.221C220.275 126.789 220.248 126.829 219.594 126.397C218.94 125.966 219.032 125.822 218.391 125.391C217.737 124.96 217.672 125.051 217.018 124.62C216.364 124.176 216.35 124.215 215.696 123.771C215.042 123.327 215.147 123.196 214.493 122.752C213.839 122.308 213.734 122.477 213.093 122.033C212.439 121.589 212.57 121.406 211.916 120.975C211.262 120.53 211.131 120.74 210.477 120.295C209.823 119.851 209.954 119.668 209.313 119.224C208.659 118.78 208.58 118.91 207.926 118.479C207.272 118.035 207.233 118.1 206.579 117.656C205.925 117.212 206.043 117.042 205.389 116.611C204.735 116.166 204.656 116.297 204.002 115.853C203.348 115.408 203.492 115.212 202.838 114.768C202.184 114.324 202.171 114.363 201.517 113.919C200.863 113.475 200.745 113.657 200.104 113.213C199.45 112.769 199.529 112.664 198.875 112.233C198.221 111.789 198.116 111.959 197.462 111.515C196.808 111.07 196.926 110.9 196.285 110.469C195.644 110.038 195.644 110.012 195.003 109.581C194.349 109.136 194.362 109.136 193.708 108.705C193.054 108.261 192.936 108.444 192.282 108.013C191.628 107.568 191.759 107.399 191.105 106.954C190.451 106.51 190.503 106.445 189.849 106.014C189.195 105.569 189.195 105.582 188.541 105.151C187.887 104.707 187.795 104.851 187.141 104.419C186.487 103.975 186.592 103.831 185.951 103.387C185.297 102.943 185.205 103.087 184.551 102.655C183.897 102.211 183.871 102.263 183.217 101.819C182.563 101.375 182.681 101.205 182.027 100.774C181.373 100.33 181.36 100.356 180.706 99.9245C180.052 99.4802 180.038 99.5194 179.384 99.0752C178.73 98.6309 178.704 98.6832 178.05 98.252C177.396 97.8077 177.396 97.8339 176.742 97.3896C176.088 96.9453 176.088 96.9584 175.434 96.5272C174.78 96.0829 174.832 96.0176 174.191 95.5733C173.537 95.1291 173.459 95.2597 172.805 94.8155C172.151 94.3712 172.138 94.3974 171.497 93.9531C170.843 93.5088 170.856 93.4958 170.202 93.0646C169.548 92.6203 169.587 92.568 168.946 92.1238C168.292 91.6795 168.384 91.5619 167.73 91.1176C167.076 90.6734 166.958 90.8563 166.304 90.412C165.65 89.9678 165.754 89.8241 165.1 89.3798C164.446 88.9355 164.368 89.0662 163.714 88.635C163.06 88.1907 163.151 88.0601 162.497 87.6289C161.843 87.1846 161.843 87.1977 161.189 86.7534C160.535 86.3092 160.509 86.3484 159.855 85.9172C159.201 85.4729 159.24 85.4337 158.586 84.9894C157.932 84.5452 157.893 84.6105 157.252 84.1662C156.598 83.722 156.493 83.8788 155.852 83.4476C155.198 83.0033 155.264 82.9118 154.61 82.4806C153.969 82.0495 153.969 82.0364 153.315 81.5921C152.674 81.1609 152.674 81.1348 152.033 80.7036C151.392 80.2724 151.418 80.2201 150.764 79.7889C150.11 79.3577 150.018 79.5015 149.364 79.0703C148.71 78.6391 148.88 78.3908 148.239 77.9466C147.585 77.5023 147.559 77.5546 146.918 77.1103C146.264 76.666 146.212 76.7575 145.558 76.3263C145.122 76.0301 144.69 75.7383 144.263 75.4508C143.609 75.0066 143.609 75.0196 142.955 74.5754C142.301 74.1311 142.288 74.1572 141.634 73.713C140.98 73.2687 141.032 73.2034 140.378 72.7722C139.942 72.476 139.51 72.1842 139.083 71.8967C138.429 71.4525 138.363 71.5701 137.709 71.1258C137.055 70.6815 137.068 70.6815 136.414 70.2373C135.76 69.793 135.8 69.7538 135.146 69.3096C134.492 68.8653 134.452 68.9306 133.798 68.4994C133.144 68.0552 133.131 68.0944 132.477 67.6501C131.823 67.2058 131.915 67.0752 131.274 66.6309C130.62 66.1866 130.554 66.3042 129.9 65.86C129.246 65.4157 129.22 65.4549 128.566 65.0107C127.912 64.5664 128.069 64.3443 127.415 63.9131C126.761 63.4688 126.748 63.4949 126.107 63.0507C125.453 62.6064 125.492 62.5541 124.838 62.1229C124.184 61.6787 124.145 61.7571 123.491 61.3128C122.837 60.8686 122.719 61.0515 122.065 60.6072C121.411 60.163 121.581 59.9278 120.927 59.4835C120.273 59.0392 120.247 59.0915 119.593 58.6472C118.939 58.203 118.978 58.1507 118.324 57.7064C117.67 57.2622 117.565 57.4321 116.911 56.9878C116.257 56.5435 116.192 56.6481 115.538 56.2038C114.884 55.7595 114.897 55.7595 114.243 55.3153C113.589 54.871 113.759 54.6097 113.118 54.1785C112.464 53.7342 112.464 53.7473 111.81 53.303C111.156 52.8588 111.064 53.0025 110.41 52.5582C109.756 52.114 109.756 52.114 109.102 51.6697C108.448 51.2254 108.487 51.1732 107.833 50.742C107.179 50.2977 107.114 50.4022 106.473 49.958C105.819 49.5137 105.871 49.4353 105.23 48.9911C104.576 48.5468 104.484 48.6775 103.83 48.2463C103.176 47.802 103.281 47.6452 102.627 47.2009C101.973 46.7567 101.986 46.7436 101.332 46.2993C100.678 45.8551 100.652 45.8812 99.9978 45.4369C99.3438 44.9927 99.2522 45.1364 98.5982 44.7052C97.9442 44.261 98.0357 44.1172 97.3817 43.673C96.7277 43.2287 96.6099 43.4116 95.9559 42.9674C95.3019 42.5231 95.4196 42.3402 94.7656 41.8959C94.1115 41.4516 94.0984 41.4778 93.4313 41.0335C92.7773 40.5893 92.7642 40.6023 92.1102 40.1581C91.4561 39.7138 91.3777 39.8183 90.7236 39.3741" stroke="#050505" stroke-linecap="round" stroke-linejoin="round"/>
<path d="M96.2829 14.7959C96.8716 15.3055 96.8585 15.3316 97.4471 15.8412C98.0357 16.3508 98.0619 16.3247 98.6505 16.8473C99.2392 17.3569 99.1084 17.5137 99.697 18.0364C100.286 18.559 100.443 18.3761 101.031 18.8857C101.62 19.4084 101.554 19.4737 102.143 19.9964C102.732 20.506 102.823 20.4014 103.412 20.9241C104.001 21.4337 103.961 21.486 104.55 22.0086C105.139 22.5182 105.086 22.5835 105.675 23.0931C106.263 23.6027 106.303 23.5635 106.891 24.0862C107.48 24.5958 107.467 24.6089 108.056 25.1315C108.644 25.6411 108.526 25.7718 109.115 26.2945C109.704 26.804 109.73 26.7779 110.318 27.2875C110.907 27.7971 110.946 27.7579 111.535 28.2675C112.124 28.7771 112.071 28.8424 112.66 29.352C113.249 29.8616 113.288 29.8224 113.876 30.332C114.465 30.8416 114.517 30.7893 115.106 31.2989C115.695 31.8085 115.616 31.9131 116.192 32.4227C116.78 32.9323 116.937 32.7493 117.526 33.272C118.115 33.7816 118.101 33.7947 118.69 34.3043C119.279 34.8138 119.122 34.9968 119.71 35.5194C120.299 36.029 120.378 35.9376 120.966 36.4602C121.555 36.9698 121.594 36.9176 122.183 37.4402C122.771 37.9498 122.64 38.0936 123.229 38.6162C123.818 39.1258 123.935 38.9951 124.524 39.5047C125.113 40.0143 125.047 40.1058 125.623 40.6154C126.212 41.125 126.133 41.2165 126.722 41.7261C127.31 42.2357 127.297 42.2618 127.886 42.7714C128.474 43.281 128.645 43.085 129.233 43.6076C129.822 44.1172 129.796 44.1434 130.397 44.666C130.986 45.1887 131.012 45.1626 131.601 45.6722C132.189 46.1948 132.163 46.2079 132.765 46.7306C133.354 47.2532 133.21 47.41 133.798 47.9327C134.387 48.4553 134.518 48.2985 135.106 48.8212C135.695 49.3308 135.669 49.3569 136.257 49.8796C136.846 50.3892 136.741 50.5199 137.33 51.0295C137.919 51.539 138.076 51.3692 138.664 51.8788C139.253 52.3884 139.188 52.4668 139.776 52.9764C140.365 53.486 140.417 53.4337 141.006 53.9564C141.594 54.479 141.607 54.4529 142.196 54.9625C142.785 55.4721 142.706 55.5635 143.295 56.0862C143.883 56.5958 143.818 56.6742 144.407 57.1838C144.995 57.6934 145.1 57.5758 145.689 58.0854C146.277 58.595 146.29 58.5819 146.879 59.1046C147.468 59.6142 147.35 59.7579 147.939 60.2806C148.527 60.7902 148.71 60.5811 149.299 61.1038C149.888 61.6134 149.77 61.7571 150.358 62.2798C150.947 62.8024 150.973 62.7632 151.562 63.2728C152.15 63.7955 152.124 63.8216 152.713 64.3443C153.302 64.8669 153.302 64.8669 153.89 65.3765C154.479 65.8992 154.61 65.7424 155.198 66.2651C155.787 66.7877 155.722 66.8531 156.31 67.3757C156.899 67.8853 156.755 68.0552 157.344 68.5648C157.932 69.0744 157.958 69.0613 158.547 69.5709C159.136 70.0805 159.24 69.9629 159.829 70.4856C160.417 70.9952 160.496 70.9168 161.085 71.4394C161.673 71.949 161.673 71.949 162.262 72.4586C162.85 72.9682 162.707 73.1381 163.295 73.6607C163.884 74.1703 163.884 74.1703 164.472 74.693C165.061 75.2026 165.127 75.1373 165.715 75.6599C166.304 76.1695 166.317 76.1564 166.905 76.6791C167.494 77.2018 167.416 77.2932 168.004 77.8028C168.593 78.3255 168.75 78.1426 169.338 78.6652C169.927 79.1879 169.888 79.2271 170.477 79.7497C171.065 80.2724 170.987 80.3508 171.588 80.8604C172.177 81.3831 172.216 81.3439 172.805 81.8535C173.393 82.3631 173.315 82.4545 173.904 82.9641C174.492 83.4737 174.492 83.4737 175.081 83.9833C175.67 84.4929 175.643 84.519 176.232 85.0286C176.821 85.5382 176.951 85.3945 177.527 85.9172C178.116 86.4268 178.063 86.4921 178.652 87.0017C179.241 87.5113 179.201 87.5636 179.777 88.0732C180.365 88.5827 180.392 88.5435 180.98 89.0662C181.569 89.5758 181.49 89.6673 182.066 90.1899C182.655 90.6995 182.694 90.6603 183.282 91.1699C183.871 91.6795 183.976 91.5619 184.564 92.0715C185.153 92.5811 185.166 92.5811 185.755 93.0907C186.343 93.6003 186.356 93.5872 186.945 94.1099C187.534 94.6326 187.377 94.8024 187.978 95.312C188.567 95.8347 188.698 95.6779 189.287 96.2005C189.875 96.7232 189.797 96.8016 190.385 97.3243C190.974 97.8469 191.026 97.7816 191.628 98.2912C192.217 98.8139 192.269 98.7485 192.858 99.2581C193.446 99.7677 193.263 99.9768 193.852 100.499C194.44 101.009 194.466 100.983 195.055 101.493C195.644 102.002 195.735 101.911 196.324 102.42C196.913 102.93 196.886 102.969 197.475 103.479C198.064 103.988 197.998 104.08 198.587 104.589C199.175 105.112 199.241 105.034 199.83 105.543C200.418 106.066 200.457 106.014 201.046 106.536C201.635 107.059 201.674 107.007 202.263 107.529C202.851 108.052 202.747 108.17 203.335 108.692C203.924 109.215 204.002 109.11 204.604 109.633C205.193 110.156 205.219 110.129 205.807 110.639C206.396 111.162 206.291 111.279 206.88 111.802C207.469 112.325 207.599 112.181 208.188 112.691C208.777 113.213 208.633 113.383 209.221 113.893C209.81 114.415 209.967 114.232 210.556 114.755C211.144 115.278 211 115.448 211.589 115.97C212.178 116.493 212.282 116.375 212.871 116.885C213.46 117.408 213.512 117.342 214.101 117.865C214.689 118.388 214.558 118.531 215.147 119.054C215.736 119.577 215.84 119.459 216.429 119.982C217.018 120.504 216.861 120.687 217.449 121.21C218.038 121.733 218.064 121.706 218.653 122.216C219.241 122.739 219.385 122.582 219.974 123.092C220.562 123.614 220.484 123.706 221.073 124.228C221.661 124.751 221.792 124.594 222.381 125.117C222.969 125.64 222.838 125.783 223.427 126.306C224.016 126.829 224.003 126.842 224.604 127.364C225.193 127.887 225.193 127.887 225.782 128.41C226.37 128.932 226.514 128.762 227.103 129.285C227.691 129.808 227.547 129.965 228.149 130.487C228.738 131.01 228.686 131.075 229.274 131.585C229.863 132.107 229.876 132.094 230.464 132.617C231.053 133.14 231.171 133.009 231.759 133.519C232.348 134.041 232.23 134.185 232.832 134.695C233.421 135.217 233.538 135.087 234.14 135.609C234.742 136.132 234.781 136.093 235.37 136.615C235.971 137.138 235.828 137.295 236.429 137.818" stroke="#050505" stroke-linecap="round" stroke-linejoin="round"/>
<path d="M163.648 107.386C162.916 107.085 162.942 107.033 162.21 106.732C161.477 106.432 161.412 106.602 160.679 106.301C159.947 106 160.038 105.778 159.319 105.478C158.586 105.177 158.521 105.347 157.788 105.034C157.056 104.733 157.108 104.602 156.389 104.289C155.656 103.988 155.604 104.119 154.871 103.818C154.139 103.518 154.191 103.387 153.472 103.074C152.739 102.773 152.674 102.943 151.941 102.642C151.209 102.342 151.274 102.172 150.555 101.871C149.822 101.571 149.796 101.636 149.063 101.336C148.331 101.035 148.279 101.166 147.546 100.865C146.814 100.565 146.905 100.343 146.186 100.042C145.466 99.7416 145.388 99.9245 144.655 99.624C143.923 99.3234 143.936 99.2973 143.203 98.9968C142.471 98.6962 142.484 98.6701 141.751 98.3696C141.019 98.0691 141.032 98.056 140.299 97.7424C139.567 97.4419 139.554 97.4549 138.834 97.1544C138.102 96.8539 138.141 96.7493 137.422 96.4488C136.689 96.1483 136.728 96.0568 135.996 95.7563C135.263 95.4557 135.172 95.6779 134.439 95.3773C133.707 95.0768 133.798 94.8677 133.079 94.5672C132.346 94.2667 132.268 94.4627 131.535 94.1621C130.803 93.8616 130.894 93.6525 130.162 93.352C129.429 93.0515 129.351 93.2344 128.618 92.9339C127.886 92.6334 127.886 92.6334 127.153 92.3328C126.421 92.0323 126.434 92.0192 125.701 91.7187C124.969 91.4182 124.943 91.4835 124.21 91.183C123.478 90.8824 123.582 90.6603 122.85 90.3467C122.117 90.0462 122.091 90.0985 121.372 89.7979C120.639 89.4974 120.665 89.4582 119.933 89.1577C119.2 88.8571 119.148 88.9878 118.429 88.6742C117.696 88.3737 117.696 88.3998 116.963 88.0993C116.231 87.7987 116.323 87.5897 115.59 87.2891C114.857 86.9886 114.857 87.0017 114.125 86.7011C113.392 86.4006 113.301 86.6097 112.568 86.3091C111.836 86.0086 111.849 85.9825 111.116 85.682C110.384 85.3814 110.358 85.4598 109.625 85.1593C108.893 84.8588 109.01 84.5844 108.278 84.2838C107.545 83.9833 107.545 84.0094 106.813 83.6958C106.08 83.3953 106.028 83.539 105.296 83.2254C104.563 82.9249 104.628 82.7681 103.896 82.4545C103.163 82.154 103.098 82.2977 102.365 81.9972C101.633 81.6966 101.646 81.6705 100.913 81.37C100.181 81.0695 100.168 81.0956 99.4354 80.7951C98.7029 80.4945 98.7813 80.2985 98.0488 79.998C97.3163 79.6975 97.2247 79.9196 96.4922 79.6191C95.7597 79.3185 95.7989 79.2271 95.0664 78.9265C94.3339 78.626 94.2816 78.7567 93.5491 78.4561C92.8165 78.1556 92.8427 78.0903 92.1102 77.7898C91.3777 77.4892 91.4038 77.4108 90.6713 77.1103C89.9388 76.8098 89.9126 76.862 89.1801 76.5615C88.4476 76.261 88.4607 76.2479 87.7282 75.9343C86.9957 75.6338 87.0611 75.477 86.3416 75.1634C85.6091 74.8628 85.596 74.902 84.8635 74.6015C84.131 74.301 84.1048 74.3532 83.3723 74.0527C82.6398 73.7522 82.666 73.6738 81.9334 73.3733C81.2009 73.0727 81.1748 73.125 80.4422 72.8245C79.7097 72.5239 79.6836 72.6023 78.951 72.2887C78.2185 71.9882 78.2708 71.8706 77.5383 71.5701C76.8058 71.2695 76.7142 71.4917 75.9817 71.1911C75.2492 70.8906 75.2492 70.8775 74.5167 70.577C73.7842 70.2765 73.8757 70.0543 73.1432 69.7408C72.4107 69.4402 72.3584 69.5448 71.6259 69.2442C70.8933 68.9437 70.8672 68.996 70.1216 68.6954" stroke="#050505" stroke-linecap="round" stroke-linejoin="round"/>
</svg>
