<svg width="228" height="95" viewBox="0 0 228 95" fill="none" xmlns="http://www.w3.org/2000/svg">
<path d="M1.08221 93.4855C1.35747 93.9733 1.84544 93.3258 2.55862 93.1484C3.25929 92.971 3.20926 92.8645 3.90993 92.696C4.6106 92.5186 4.69817 92.6871 5.39883 92.5097C6.0995 92.3323 6.04945 92.2259 6.75012 92.0574C7.45079 91.88 7.46332 91.8977 8.16399 91.7203C8.86465 91.5429 8.83965 91.4897 9.54031 91.3123C10.241 91.1349 10.2785 91.2058 10.9792 91.0284C11.6798 90.851 11.6673 90.8333 12.368 90.6559C13.0687 90.4785 13.0562 90.4607 13.7568 90.2833C14.4575 90.1059 14.445 90.0882 15.1457 89.9108C15.8463 89.7334 15.8338 89.7068 16.5345 89.5294C17.2352 89.352 17.2351 89.3608 17.9483 89.1834C18.649 89.006 18.649 89.006 19.3497 88.8286C20.0503 88.6512 20.1129 88.7843 20.8261 88.6069C21.5267 88.4295 21.4642 88.3053 22.1774 88.1367C22.878 87.9593 22.8905 87.9859 23.5912 87.8085C24.2919 87.6311 24.3044 87.6489 25.0051 87.4715C25.7057 87.2941 25.7057 87.2941 26.4189 87.1167C27.1196 86.9393 27.1196 86.9215 27.8203 86.753C28.5209 86.5756 28.5835 86.682 29.2842 86.5046C29.9848 86.3272 29.9598 86.2829 30.673 86.1055C31.3737 85.9281 31.3736 85.9281 32.0868 85.7507C32.7875 85.5733 32.7249 85.4491 33.4381 85.2717C34.1388 85.0943 34.2013 85.2096 34.902 85.0322C35.6027 84.8548 35.5526 84.7483 36.2533 84.5798C36.954 84.4024 36.954 84.3847 37.6546 84.2161C38.1217 84.0979 38.5889 83.9796 39.056 83.8613C39.7567 83.6839 39.8067 83.7726 40.5074 83.5952C41.208 83.4178 41.208 83.4267 41.9212 83.2493C42.6219 83.0719 42.6219 83.0719 43.3351 82.9033C44.0357 82.7259 44.0733 82.8058 44.7865 82.6284C45.4871 82.451 45.4496 82.3623 46.1503 82.1937C46.8509 82.0163 46.8259 81.9542 47.5266 81.7768C48.2272 81.5994 48.2898 81.7325 49.003 81.5551C49.7037 81.3777 49.6661 81.289 50.3668 81.1116C51.0675 80.9342 51.0424 80.8809 51.7431 80.7035C52.4438 80.5261 52.4813 80.606 53.1945 80.4286C53.8952 80.2512 53.9327 80.3044 54.6334 80.127C55.334 79.9496 55.3465 79.9673 56.0472 79.7899C56.7479 79.6125 56.6978 79.4972 57.3985 79.3198C58.0992 79.1424 58.1617 79.2666 58.8749 79.0892C59.5756 78.9118 59.5005 78.7521 60.2012 78.5747C60.9018 78.3973 61.0019 78.6013 61.7151 78.4239C62.4158 78.2465 62.3407 78.0868 63.0414 77.9094C63.7421 77.732 63.7671 77.7764 64.4678 77.599C65.1684 77.4216 65.1309 77.3506 65.8441 77.1732C66.5447 76.9958 66.5698 77.0313 67.2704 76.8539C67.9711 76.6765 68.0086 76.7386 68.7093 76.5612C69.41 76.3838 69.4225 76.3926 70.1231 76.2152C70.8238 76.0378 70.8113 76.0023 71.512 75.8249C72.2126 75.6475 72.2502 75.7185 72.9509 75.5411C73.6515 75.3637 73.664 75.3726 74.3647 75.1952C75.0654 75.0178 75.0528 74.9823 75.7535 74.8049C76.4542 74.6275 76.4542 74.6186 77.1674 74.4412C77.868 74.2638 77.843 74.2194 78.5562 74.042C79.2569 73.8646 79.3194 73.9711 80.0201 73.7937C80.7208 73.6163 80.7083 73.5719 81.4089 73.3945C82.1096 73.2171 82.0846 73.1728 82.7978 72.9954C83.4984 72.818 83.4859 72.7736 84.1866 72.5962C84.8873 72.4188 84.9873 72.5962 85.688 72.4188C86.3887 72.2414 86.3261 72.0995 87.0268 71.9221C87.7275 71.7447 87.74 71.7624 88.4406 71.585C89.1413 71.4076 89.2039 71.5318 89.917 71.3544C90.6177 71.177 90.5927 71.1238 91.3059 70.9552C92.0065 70.7778 92.0191 70.7956 92.7197 70.6182C93.4204 70.4408 93.3703 70.3254 94.071 70.148C94.7717 69.9706 94.8217 70.0771 95.5349 69.8997C96.2356 69.7223 96.198 69.6424 96.8987 69.465C97.5994 69.2876 97.5744 69.2344 98.2875 69.057C98.9882 68.8796 99.0132 68.9328 99.7264 68.7554C100.427 68.578 100.49 68.6845 101.19 68.5071C101.891 68.3297 101.828 68.1877 102.529 68.0103C103.23 67.8329 103.28 67.9216 103.98 67.7442C104.681 67.5668 104.644 67.4781 105.344 67.3007C106.045 67.1233 106.032 67.0967 106.733 66.9282C107.434 66.7508 107.509 66.8927 108.21 66.7153C108.91 66.5379 108.898 66.5024 109.598 66.325C110.299 66.1476 110.236 66.0145 110.937 65.8371C111.638 65.6597 111.713 65.8105 112.426 65.6331C113.139 65.4557 113.139 65.4646 113.84 65.2872C114.541 65.1098 114.465 64.959 115.179 64.7816C115.879 64.6042 115.892 64.6219 116.593 64.4445C117.293 64.2671 117.356 64.3736 118.056 64.1962C118.757 64.0187 118.707 63.9034 119.408 63.726C120.108 63.5486 120.133 63.593 120.847 63.4156C121.547 63.2382 121.597 63.3269 122.298 63.1495C123.011 62.9721 123.036 63.0342 123.737 62.8568C124.438 62.6794 124.412 62.6084 125.113 62.431C125.814 62.2536 125.814 62.2447 126.527 62.0673C127.228 61.8899 127.265 61.952 127.966 61.7746C128.679 61.5972 128.616 61.4907 129.33 61.3133C130.043 61.1359 130.093 61.2601 130.806 61.0827C131.507 60.9053 131.432 60.7368 132.132 60.5594C132.833 60.382 132.896 60.4884 133.596 60.311C134.309 60.1336 134.334 60.1957 135.048 60.0183C135.748 59.8409 135.748 59.832 136.461 59.6546C137.162 59.4772 137.075 59.291 137.775 59.1135C138.476 58.9361 138.551 59.0869 139.264 58.9095C139.977 58.7321 139.902 58.5902 140.603 58.4128C141.304 58.2354 141.379 58.3773 142.092 58.1999C142.559 58.0817 143.03 57.9634 143.506 57.8451C144.219 57.6677 144.169 57.5701 144.87 57.3927C145.583 57.2153 145.633 57.3218 146.333 57.1444C147.047 56.967 147.034 56.9581 147.747 56.7718C148.46 56.5944 148.423 56.5146 149.124 56.3372C149.837 56.1598 149.887 56.2751 150.6 56.0977C151.313 55.9203 151.226 55.7606 151.939 55.5832C152.652 55.4058 152.702 55.5034 153.415 55.326C154.128 55.1486 154.066 55.0333 154.779 54.847C155.267 54.7228 155.717 54.5809 156.155 54.3946C156.606 54.2083 157.069 54.0664 157.469 53.8358C157.857 53.5963 158.182 53.3213 158.508 53.0375C158.833 52.7536 159.196 52.4875 159.446 52.1682C159.684 51.8489 159.959 51.5296 160.122 51.1747C160.284 50.8288 160.422 50.4651 160.484 50.1015C160.585 49.5692 160.384 49.5515 160.484 49.0282C160.585 48.496 160.647 48.5048 160.747 47.9815C160.847 47.4493 160.797 47.4493 160.885 46.9171C160.985 46.3849 161.185 46.4026 161.285 45.8793C161.385 45.347 161.285 45.3382 161.373 44.806C161.473 44.2738 161.385 44.2649 161.485 43.7415C161.585 43.2093 161.51 43.2093 161.611 42.6771C161.711 42.1449 161.898 42.1627 161.998 41.6393C162.098 41.1071 162.036 41.1071 162.136 40.5749C162.236 40.0427 162.111 40.0338 162.211 39.5016C162.311 38.9694 162.386 38.9783 162.486 38.4461C162.586 37.9138 162.486 37.905 162.574 37.3728C162.674 36.8406 162.949 36.8672 163.049 36.335C163.149 35.8027 163.049 35.7939 163.149 35.2705C163.25 34.7383 163.149 34.7295 163.25 34.2061C163.35 33.6739 163.512 33.6916 163.612 33.1594C163.713 32.6272 163.637 32.6183 163.738 32.095C163.838 31.5628 163.75 31.5539 163.85 31.0306C163.95 30.4984 164.05 30.5072 164.138 29.975C164.238 29.4428 164.138 29.434 164.226 28.9017C164.326 28.3695 164.338 28.3695 164.438 27.8462C164.538 27.314 164.638 27.3229 164.738 26.7906C164.839 26.2584 164.914 26.2673 165.014 25.744C165.114 25.2118 164.964 25.2029 165.064 24.6707C165.164 24.1385 165.176 24.1385 165.277 23.6151C165.377 23.0829 165.477 23.0918 165.577 22.5684C165.677 22.0362 165.714 22.0362 165.802 21.504C165.902 20.9718 165.652 20.9452 165.739 20.4219C165.84 19.8897 166.04 19.9074 166.14 19.3752C166.24 18.843 166.065 18.8252 166.165 18.293C166.265 17.7608 166.302 17.7697 166.403 17.2375C166.503 16.7053 166.665 16.723 166.765 16.1908C166.866 15.6586 166.828 15.6497 166.928 15.1175C167.028 14.5853 167.691 14.3103 167.053 14.0176C166.428 13.7338 166.365 14.2926 165.752 14.5853C165.126 14.8869 165.226 14.9756 164.601 15.2772C163.975 15.5699 163.9 15.4901 163.287 15.7916C162.662 16.0932 162.737 16.1553 162.111 16.4569C161.485 16.7585 161.498 16.7585 160.872 17.0601C160.247 17.3617 160.134 17.2286 159.508 17.5302C158.883 17.8318 159.033 17.9737 158.407 18.2753C157.782 18.5769 157.732 18.5148 157.119 18.8164C156.493 19.118 156.418 19.0293 155.792 19.322C155.167 19.6236 155.217 19.6679 154.604 19.9695C153.978 20.2711 154.053 20.342 153.428 20.6436C152.802 20.9452 152.689 20.821 152.064 21.1137C151.438 21.4153 151.463 21.4331 150.838 21.7347C150.212 22.0362 150.287 22.1161 149.674 22.4088C149.049 22.7104 149.036 22.6926 148.41 22.9942C147.785 23.2958 147.697 23.1982 147.072 23.4998C146.446 23.8014 146.584 23.9433 145.958 24.2449C145.332 24.5465 145.245 24.4401 144.619 24.7416C143.994 25.0432 144.031 25.0698 143.406 25.3714C142.78 25.673 142.692 25.5754 142.067 25.8682C141.441 26.1697 141.454 26.1697 140.828 26.4713C140.203 26.7729 140.34 26.9148 139.727 27.2164C139.102 27.518 139.064 27.4737 138.438 27.7664C137.813 28.068 137.863 28.1123 137.237 28.4139C136.612 28.7155 136.499 28.6002 135.886 28.8929C135.26 29.1945 135.223 29.1501 134.597 29.4428C133.972 29.7444 134.047 29.8154 133.421 30.1081C132.795 30.4097 132.821 30.4274 132.195 30.7201C131.569 31.0217 131.569 31.0128 130.944 31.3056C130.318 31.6072 130.281 31.5628 129.655 31.8555C129.029 32.1571 129.142 32.2635 128.516 32.5563C127.891 32.8578 127.878 32.8401 127.265 33.1417C126.64 33.4433 126.527 33.3191 125.914 33.6207C125.288 33.9223 125.426 34.0553 124.8 34.348C124.175 34.6496 124.112 34.5787 123.499 34.8802C122.874 35.1818 122.861 35.1552 122.235 35.4568C121.61 35.7584 121.622 35.7673 121.009 36.0688C120.384 36.3704 120.384 36.3616 119.758 36.6631C119.132 36.9647 119.182 37.0091 118.557 37.3107C117.931 37.6123 117.944 37.6123 117.318 37.9138C116.693 38.2154 116.718 38.242 116.092 38.5348C115.466 38.8363 115.391 38.7476 114.766 39.0492C114.14 39.3508 114.228 39.4395 113.615 39.7411C112.989 40.0427 112.876 39.9274 112.251 40.2201C111.625 40.5217 111.6 40.4862 110.975 40.7878C110.349 41.0894 110.399 41.1337 109.774 41.4353C109.148 41.7369 109.11 41.6925 108.485 41.9853C107.859 42.2868 107.922 42.3489 107.296 42.6416C106.671 42.9432 106.633 42.8989 106.02 43.2005C105.394 43.502 105.469 43.5819 104.856 43.8746C104.231 44.1762 104.093 44.0254 103.467 44.327C102.842 44.6286 103.005 44.7882 102.379 45.0898C101.753 45.3914 101.666 45.2938 101.04 45.5865C100.415 45.8881 100.502 45.9768 99.8766 46.2784C99.251 46.58 99.2134 46.5356 98.5878 46.8372C97.9622 47.1388 97.9998 47.1743 97.3742 47.467C96.7486 47.7686 96.7736 47.7863 96.148 48.0879C95.5224 48.3895 95.4598 48.3186 94.8342 48.6201C94.2086 48.9217 94.1461 48.8508 93.5205 49.1435C92.8949 49.4451 92.9324 49.4894 92.3193 49.7821C91.6937 50.0837 91.7688 50.1547 91.1432 50.4563C90.5176 50.7578 90.4426 50.678 89.817 50.9796C89.1914 51.2812 89.2414 51.3344 88.6158 51.6271C87.9902 51.9287 87.8651 51.7957 87.2395 52.0972C86.6139 52.3988 86.6264 52.4077 86.0008 52.7004C85.3752 53.002 85.4878 53.1173 84.8747 53.4189C84.2491 53.7205 84.2366 53.7027 83.611 54.0043C82.9854 54.3059 82.9104 54.2172 82.2848 54.5188C81.6592 54.8204 81.6466 54.7938 81.021 55.0954C80.3955 55.3969 80.433 55.4236 79.8074 55.7251C79.1818 56.0267 79.2193 56.0622 78.5937 56.3549C77.9681 56.6565 77.9431 56.6299 77.3175 56.9226C76.6919 57.2242 76.8045 57.3306 76.1789 57.6322C75.5533 57.9338 75.4407 57.8096 74.8151 58.1023C74.1895 58.4039 74.3021 58.5104 73.6765 58.812C73.0509 59.1135 73.0259 59.0869 72.4003 59.3885C71.7747 59.6901 71.7872 59.699 71.1616 60.0006C70.536 60.3022 70.4985 60.2578 69.8729 60.5594C69.2473 60.861 69.2098 60.8166 68.5842 61.1093C67.9586 61.4109 68.0462 61.4996 67.4331 61.8012C66.8075 62.1028 66.7074 61.9875 66.0818 62.2891C65.6647 62.4901 65.2477 62.6882 64.8306 62.8834C64.205 63.185 64.23 63.2116 63.6169 63.5132C62.9913 63.8147 63.0289 63.8502 62.4033 64.1518C61.7777 64.4534 61.7652 64.4356 61.1521 64.7372C60.5265 65.0388 60.6016 65.1098 59.9885 65.4114C59.3629 65.713 59.2628 65.5976 58.6372 65.8992C58.0116 66.2008 58.1117 66.2895 57.4861 66.5911C56.8605 66.8927 56.7729 66.7862 56.1473 67.0878C55.5217 67.3894 55.6343 67.5047 55.0212 67.8063C54.3956 68.1079 54.233 67.9305 53.6074 68.2232C52.9818 68.5248 53.157 68.7022 52.5314 69.0038C51.9058 69.3054 51.7806 69.1723 51.155 69.4739C50.5294 69.7755 50.4919 69.7311 49.8663 70.0327C49.2407 70.3343 49.2407 70.3343 48.6151 70.6359C47.9895 70.9375 48.0771 71.0262 47.4515 71.3278C46.8259 71.6294 46.8009 71.6027 46.1753 71.8955C45.5497 72.197 45.5622 72.2059 44.9366 72.5075C44.311 72.8091 44.361 72.8534 43.7354 73.1462C43.1098 73.4477 43.1349 73.4655 42.5093 73.7582C41.8837 74.0598 41.8211 73.9888 41.1955 74.2904C40.5699 74.592 40.5449 74.5565 39.9193 74.8581C39.2937 75.1597 39.2562 75.1242 38.6306 75.4169C38.005 75.7185 38.1301 75.8516 37.5045 76.1531C36.8789 76.4547 36.8038 76.366 36.1782 76.6676C35.5526 76.9692 35.5401 76.9515 34.9145 77.253C34.2889 77.5546 34.3765 77.6433 33.7509 77.9449C33.1253 78.2465 33.0252 78.1312 32.3996 78.4328C31.774 78.7344 31.8116 78.7698 31.186 79.0714C30.5604 79.373 30.5479 79.3553 29.9223 79.6569C29.2967 79.9584 29.3968 80.0649 28.7712 80.3665C28.1456 80.6681 28.1205 80.6414 27.4949 80.943C26.8693 81.2446 26.8318 81.2091 26.2062 81.5107C25.5806 81.8123 25.5806 81.8034 24.955 82.105C24.3294 82.4066 24.2919 82.3623 23.6663 82.6638C23.0407 82.9654 23.0032 82.9211 22.3776 83.2227C21.752 83.5243 21.7395 83.5065 21.1139 83.8081C20.4883 84.1097 20.5883 84.2073 19.9627 84.5088C19.3371 84.8104 19.2871 84.7572 18.6615 85.0588C18.0359 85.3604 18.0985 85.4225 17.4729 85.7241C16.8473 86.0256 16.8973 86.0789 16.2717 86.3804C15.6461 86.682 15.496 86.5312 14.8829 86.824C14.2573 87.1255 14.3073 87.1699 13.6692 87.4715C13.0436 87.7731 13.1312 87.8618 12.5056 88.1634C11.88 88.4649 11.7424 88.3141 11.1168 88.6157C10.4912 88.9173 10.5538 88.9883 9.92818 89.2899C9.30258 89.5914 9.34012 89.6358 8.71452 89.9374C8.08891 90.239 8.08891 90.239 7.46332 90.5406C6.83772 90.8421 6.72511 90.7268 6.09952 91.0284C5.47392 91.33 5.62405 91.4897 4.98595 91.7913C4.36035 92.0928 4.21021 91.942 3.58459 92.2436C2.959 92.5452 3.12166 92.767 2.39597 92.9532C1.54515 93.1661 0.781921 93.0331 1.05717 93.5298L1.08221 93.4855Z" fill="#FBFFA1"/>
<path d="M223.98 21.9745C223.242 21.8504 223.267 21.7794 222.541 21.6463C221.803 21.5222 221.828 21.4601 221.09 21.3359C220.352 21.2117 220.314 21.3359 219.576 21.2117C218.838 21.0787 218.875 20.9722 218.15 20.848C217.411 20.715 217.374 20.8214 216.636 20.6972C215.897 20.5642 215.96 20.4134 215.222 20.2892C214.484 20.165 214.446 20.2892 213.708 20.1562C212.97 20.032 213.007 19.9433 212.269 19.8191C211.531 19.6949 211.556 19.6328 210.818 19.5086C210.079 19.3844 210.029 19.5264 209.304 19.3933C208.565 19.2603 208.565 19.2691 207.827 19.1361C207.089 19.003 207.139 18.8611 206.401 18.7369C205.663 18.6039 205.663 18.6305 204.925 18.5063C204.186 18.3733 204.186 18.3821 203.448 18.2491C202.71 18.116 202.672 18.2225 201.947 18.0983C201.208 17.9652 201.246 17.8677 200.508 17.7346C199.77 17.6015 199.745 17.6814 199.006 17.5483C198.268 17.4153 198.256 17.4685 197.517 17.3443C196.779 17.2113 196.817 17.0959 196.091 16.9718C195.353 16.8387 195.315 16.9718 194.577 16.8387C193.839 16.7057 193.889 16.5726 193.151 16.4396C192.413 16.3154 192.425 16.2799 191.699 16.1557C190.961 16.0315 190.949 16.0847 190.21 15.9517C189.472 15.8186 189.435 15.9162 188.697 15.792C187.958 15.659 187.958 15.659 187.233 15.5259C186.494 15.3929 186.544 15.2509 185.806 15.1268C185.068 14.9937 185.043 15.0824 184.305 14.9494C183.567 14.8163 183.542 14.8873 182.803 14.7631C182.065 14.63 182.065 14.6478 181.327 14.5147C180.589 14.3817 180.651 14.2043 179.913 14.0801C179.175 13.947 179.162 14.0003 178.424 13.8672C177.686 13.7342 177.661 13.7962 176.923 13.6721C176.185 13.539 176.222 13.4414 175.471 13.3084C174.733 13.1753 174.671 13.3439 173.932 13.2108C173.457 13.131 173.019 12.927 172.531 12.9092C172.043 12.8826 171.568 13.0423 171.092 13.0778C170.604 13.1132 170.091 13.0068 169.628 13.0955C169.165 13.1842 168.74 13.3793 168.302 13.5213C167.864 13.6632 167.364 13.743 166.951 13.9293C166.325 14.222 166.475 14.3728 165.85 14.6744C165.224 14.976 165.237 14.976 164.611 15.2776C163.985 15.5791 163.848 15.4284 163.235 15.7211C162.609 16.0227 162.709 16.1114 162.084 16.4129C161.458 16.7145 161.508 16.7589 160.895 17.0605C160.282 17.3621 160.169 17.2467 159.544 17.5483C158.918 17.8499 158.993 17.9209 158.38 18.2225C157.754 18.524 157.729 18.4886 157.116 18.7901C156.491 19.0917 156.528 19.1272 155.915 19.4199C155.29 19.7215 155.315 19.7481 154.702 20.0408C154.076 20.3424 154.063 20.3247 153.45 20.6263C152.825 20.9279 152.775 20.8658 152.149 21.1674C151.523 21.4689 151.461 21.3891 150.835 21.6907C150.21 21.9923 150.185 21.9568 149.559 22.2584C148.934 22.56 148.996 22.6221 148.383 22.9236C147.757 23.2252 147.72 23.1809 147.094 23.4825C146.469 23.7841 146.481 23.7929 145.856 24.0856C145.23 24.3872 145.23 24.3872 144.604 24.6888C143.979 24.9904 144.116 25.1323 143.491 25.425C142.865 25.7266 142.84 25.7 142.215 25.9927C141.589 26.2943 141.514 26.2056 140.888 26.5072C140.263 26.8088 140.275 26.8176 139.65 27.1104C139.024 27.412 139.024 27.4031 138.398 27.6958C137.773 27.9974 137.848 28.0772 137.235 28.3699C136.609 28.6715 136.547 28.6006 135.934 28.9021C135.308 29.2037 135.245 29.1328 134.62 29.4343C133.994 29.7359 134.132 29.869 133.506 30.1617C132.881 30.4633 132.743 30.3036 132.117 30.6052C131.492 30.9068 131.655 31.0665 131.029 31.368C130.403 31.6696 130.278 31.5366 129.665 31.8382C129.04 32.1398 129.09 32.1841 128.464 32.4768C127.838 32.7784 127.826 32.7518 127.2 33.0534C126.575 33.355 126.6 33.3638 125.974 33.6654C125.349 33.967 125.311 33.9227 124.698 34.2242C124.072 34.5258 124.097 34.5436 123.472 34.8452C122.846 35.1467 122.934 35.2354 122.308 35.5282C121.683 35.8297 121.632 35.7677 121.007 36.0692C120.381 36.3708 120.331 36.3176 119.718 36.6192C119.093 36.9208 119.118 36.9385 118.492 37.2401C117.866 37.5417 117.829 37.4973 117.203 37.7901C116.578 38.0916 116.703 38.2158 116.077 38.5174C115.452 38.819 115.351 38.7037 114.726 39.0053C114.1 39.3068 114.1 39.3068 113.475 39.6084C112.849 39.91 112.912 39.9721 112.286 40.2648C111.66 40.5664 111.623 40.5221 110.997 40.8148C110.372 41.1164 110.384 41.1164 109.759 41.418C109.133 41.7195 109.133 41.7107 108.507 42.0123C107.882 42.3138 107.994 42.4292 107.381 42.7307C106.756 43.0323 106.743 43.0057 106.118 43.3073C105.492 43.6089 105.404 43.5024 104.779 43.804C104.153 44.1056 104.228 44.1854 103.615 44.487C102.99 44.7886 102.902 44.691 102.276 44.9926C101.651 45.2942 101.651 45.2853 101.025 45.5869C100.4 45.8885 100.5 45.9861 99.8742 46.2877C99.2486 46.5893 99.2611 46.5981 98.6355 46.8908C98.0099 47.1924 97.9724 47.1481 97.3468 47.4497C96.7212 47.7513 96.6836 47.7069 96.058 47.9996C95.4324 48.3012 95.495 48.3633 94.8819 48.6649C94.2563 48.9665 94.2438 48.9487 93.6182 49.2503C93.2011 49.4514 92.7841 49.6495 92.367 49.8446C91.7414 50.1462 91.7539 50.1639 91.1408 50.4567C90.5152 50.7582 90.5278 50.7671 89.9022 51.0598C89.2766 51.3614 89.1765 51.255 88.5509 51.5477C87.9253 51.8493 87.9878 51.9025 87.3622 52.2041C86.7366 52.5057 86.7241 52.4879 86.0985 52.7895C85.4729 53.0911 85.4604 53.0734 84.8348 53.3661C84.2092 53.6677 84.3093 53.7652 83.6837 54.0668C83.0581 54.3684 82.9956 54.2886 82.3699 54.5902C81.7444 54.8917 81.7068 54.8474 81.0812 55.1401C80.4556 55.4417 80.5557 55.5481 79.9426 55.8497C79.317 56.1513 79.1544 55.9828 78.5413 56.2755C77.9157 56.5771 77.9407 56.6037 77.3151 56.9053C76.6895 57.2069 76.702 57.2157 76.0764 57.5084C75.4509 57.81 75.5384 57.8987 74.9128 58.2003C74.2872 58.5019 74.1997 58.4132 73.5866 58.7148C72.961 59.0164 72.9359 58.9809 72.3103 59.2825C71.6848 59.5841 71.7473 59.6461 71.1217 59.9477C70.4961 60.2493 70.5837 60.338 69.9581 60.6307C69.3325 60.9323 69.3325 60.9235 68.7069 61.225C68.0813 61.5266 67.9312 61.3581 67.3056 61.6597C66.68 61.9613 66.8176 62.0943 66.192 62.3959C65.5664 62.6975 65.6039 62.7418 64.9908 63.0346C64.3652 63.3361 64.2527 63.212 63.627 63.5047C63.0014 63.8063 63.1015 63.9038 62.476 64.1965C61.8504 64.4981 61.8754 64.5159 61.2498 64.8086C60.6242 65.1102 60.4865 64.9594 59.8609 65.2521C59.2354 65.5537 59.2854 65.598 58.6598 65.8908C58.0342 66.1923 57.9967 66.1391 57.3711 66.4318C56.7455 66.7334 56.758 66.7423 56.1324 67.035C55.5068 67.3366 55.5443 67.3721 54.9187 67.6648C54.2931 67.9664 54.3307 67.993 53.7051 68.2946C53.0795 68.5961 53.0545 68.5607 52.4289 68.8623C51.8033 69.1638 51.7782 69.1372 51.1526 69.4388C50.527 69.7404 50.5521 69.7581 49.9265 70.0597C49.3009 70.3613 49.3134 70.3702 48.6878 70.6629C48.0622 70.9645 48.1748 71.0709 47.5492 71.3725C46.9236 71.6741 46.8235 71.5588 46.1979 71.8604C45.5723 72.162 45.6349 72.224 45.0093 72.5256C44.3837 72.8272 44.4337 72.8716 43.8081 73.1643C43.1825 73.4659 43.12 73.3949 42.4944 73.6965C41.8688 73.9981 41.9063 74.0336 41.2932 74.3351C40.6676 74.6367 40.6051 74.5658 39.9795 74.8674C39.3539 75.1689 39.3288 75.1423 38.7032 75.4439C38.0777 75.7455 38.0902 75.7544 37.4646 76.056C36.839 76.3575 36.839 76.3575 36.2134 76.6591C35.5878 76.9607 35.5753 76.9518 34.9497 77.2446C34.3241 77.5461 34.3491 77.5639 33.7235 77.8655C33.0979 78.1671 33.0603 78.1138 32.4348 78.4154C31.8092 78.717 31.8717 78.7791 31.2461 79.0718C30.6205 79.3734 30.5955 79.3468 29.9699 79.6395C29.3443 79.9411 29.4194 80.0209 28.7938 80.3225C28.1682 80.6241 28.0681 80.5177 27.4425 80.8192C26.8169 81.1208 26.8169 81.112 26.1913 81.4135C25.5657 81.7151 25.6408 81.7861 25.0152 82.0877C24.3896 82.3893 24.3771 82.3804 23.7515 82.682C23.1259 82.9836 23.1759 83.0368 22.5503 83.3384C22.1333 83.5394 21.7162 83.7405 21.2991 83.9415C20.6735 84.2431 20.5985 84.1722 19.9729 84.4649C19.3473 84.7665 19.3347 84.7576 18.7091 85.0592C18.0835 85.3608 18.071 85.3342 17.4454 85.6357C16.8198 85.9373 16.9074 86.026 16.2943 86.3276C15.6687 86.6292 15.6187 86.5671 14.9931 86.8687C14.3675 87.1703 14.355 87.1614 13.7294 87.463C13.1038 87.7646 13.0538 87.7202 12.4282 88.013C11.8026 88.3145 11.8776 88.3944 11.252 88.696C10.6264 88.9975 10.664 89.0419 10.0384 89.3435C9.41277 89.6451 9.40027 89.6362 8.77467 89.9378C8.14908 90.2394 8.07399 90.1684 7.44838 90.47C6.82278 90.7716 6.84782 90.7982 6.22221 91.0909C5.59662 91.3925 5.63416 91.4368 5.00856 91.7384C4.38297 92.04 4.30789 91.969 3.6823 92.2706C3.0567 92.5722 3.13177 92.6609 2.50616 92.9625C1.88057 93.2641 0.829575 92.998 1.14238 93.4947C1.44266 93.9826 1.90559 93.3794 2.60626 93.1754C3.29442 92.9714 3.21936 92.8206 3.90752 92.6166C4.59567 92.4126 4.64572 92.4835 5.33388 92.2795C6.02203 92.0755 6.03455 92.0932 6.73521 91.8892C7.42337 91.6852 7.38583 91.6054 8.07399 91.4014C8.76215 91.1973 8.74963 91.1796 9.4503 90.9756C10.1385 90.7716 10.176 90.8159 10.8642 90.6119C11.5523 90.4079 11.5273 90.3635 12.228 90.1595C12.9161 89.9555 12.9286 89.9733 13.6168 89.7692C14.3049 89.5652 14.3175 89.583 15.0056 89.379C15.6938 89.1749 15.6812 89.1483 16.3819 88.9443C17.0701 88.7403 17.1326 88.829 17.8208 88.625C18.509 88.421 18.4964 88.3944 19.1846 88.1904C19.8728 87.9863 19.9353 88.0839 20.6235 87.8799C21.3116 87.6759 21.2866 87.6227 21.9748 87.4186C22.6629 87.2146 22.6254 87.1437 23.3136 86.9397C24.0017 86.7356 24.0518 86.8155 24.7399 86.6115C25.4281 86.4074 25.4156 86.3808 26.1037 86.1768C26.5625 86.0408 27.0254 85.9048 27.4925 85.7688C28.1807 85.5648 28.2057 85.6003 28.8939 85.3962C29.582 85.1922 29.5195 85.0769 30.2076 84.8729C30.8958 84.6689 30.9709 84.8019 31.6715 84.5979C32.3597 84.3939 32.3597 84.3851 33.0479 84.181C33.736 83.977 33.6609 83.8351 34.3491 83.6311C35.0372 83.4271 35.1248 83.5779 35.8255 83.3827C36.5137 83.1787 36.4511 83.0634 37.1393 82.8594C37.8274 82.6554 37.9025 82.7884 38.5906 82.5844C39.2788 82.3804 39.2288 82.2828 39.9169 82.0788C40.6051 81.8748 40.6176 81.9014 41.3182 81.6974C42.0064 81.4934 42.0564 81.5732 42.7446 81.3692C43.4328 81.1652 43.4077 81.1208 44.0959 80.9168C44.7841 80.7128 44.7215 80.6064 45.4222 80.4023C46.1103 80.1983 46.1854 80.3136 46.8736 80.1096C47.5617 79.9056 47.5117 79.8169 48.1998 79.6129C48.888 79.4089 48.8629 79.3645 49.5511 79.1605C50.2393 78.9565 50.2768 79.0186 50.965 78.8146C51.6531 78.6106 51.7032 78.6815 52.3913 78.4775C53.0795 78.2735 53.0419 78.2025 53.7301 77.9985C54.4183 77.7945 54.4558 77.8566 55.1565 77.6526C55.8446 77.4486 55.8196 77.4042 56.5202 77.2002C57.2084 76.9962 57.2585 77.076 57.9466 76.872C58.6348 76.668 58.5597 76.5261 59.2479 76.3221C59.936 76.1181 59.9736 76.1713 60.6617 75.9673C61.3499 75.7632 61.3374 75.7278 62.0255 75.5238C62.7137 75.3197 62.7512 75.373 63.4519 75.1689C64.1526 74.9649 64.1651 74.9915 64.8532 74.7875C65.5539 74.5835 65.5414 74.5835 66.2421 74.3706C66.9302 74.1666 66.8802 74.069 67.5683 73.8562C68.2565 73.6521 68.3566 73.8118 69.0447 73.6078C69.7329 73.4038 69.6828 73.2973 70.371 73.0933C71.0592 72.8893 71.0717 72.9071 71.7723 72.703C72.4605 72.499 72.4355 72.4458 73.1236 72.2418C73.8118 72.0378 73.8618 72.1087 74.55 71.9047C75.2381 71.7007 75.2256 71.683 75.9263 71.479C76.627 71.2749 76.602 71.2483 77.3026 71.0443C77.9908 70.8403 77.9783 70.8226 78.6789 70.6185C79.3671 70.4145 79.3546 70.3879 80.0427 70.1839C80.7309 69.9799 80.7434 69.9888 81.4316 69.7848C82.1197 69.5807 82.1197 69.5807 82.8204 69.3767C83.5085 69.1727 83.5836 69.2969 84.2843 69.0929C84.9724 68.8889 84.9099 68.7736 85.598 68.5695C86.2862 68.3655 86.2987 68.3833 86.9994 68.1793C87.6875 67.9752 87.7001 67.9841 88.3882 67.7801C89.0764 67.5761 89.0764 67.5761 89.777 67.3721C90.4652 67.1681 90.4652 67.1503 91.1534 66.9463C91.8415 66.7423 91.9041 66.8487 92.6047 66.6447C93.2929 66.4407 93.2679 66.3963 93.9685 66.1923C94.6567 65.9883 94.6567 65.9883 95.3574 65.7843C96.0455 65.5803 95.983 65.4561 96.6711 65.2521C97.3593 65.0481 97.4343 65.1634 98.1225 64.9594C98.8232 64.7554 98.7606 64.6489 99.4488 64.4449C100.149 64.2409 100.137 64.2232 100.825 64.0191C101.292 63.8831 101.755 63.7471 102.214 63.6111C102.915 63.4071 102.952 63.4869 103.653 63.2829C104.353 63.0789 104.353 63.0878 105.042 62.8749C105.73 62.6709 105.742 62.6709 106.43 62.4669C107.119 62.2629 107.169 62.3338 107.857 62.1298C108.545 61.9258 108.495 61.8371 109.196 61.6331C109.884 61.4291 109.859 61.367 110.547 61.1629C111.235 60.9589 111.31 61.0831 112.011 60.8791C112.711 60.6751 112.649 60.5864 113.35 60.3824C114.038 60.1784 114.013 60.1251 114.701 59.9211C115.389 59.7171 115.439 59.7969 116.127 59.5929C116.815 59.3889 116.853 59.4421 117.541 59.2381C118.229 59.0341 118.242 59.043 118.93 58.839C119.618 58.6349 119.555 58.5196 120.256 58.3156C120.944 58.1116 121.019 58.2358 121.72 58.0318C122.408 57.8278 122.321 57.6681 123.021 57.4641C123.722 57.2601 123.835 57.4641 124.523 57.2512C125.223 57.0472 125.123 56.8875 125.824 56.6835C126.525 56.4795 126.537 56.515 127.238 56.311C127.938 56.107 127.888 56.036 128.589 55.8231C129.29 55.6191 129.302 55.6546 130.003 55.4506C130.704 55.2465 130.729 55.2998 131.429 55.0958C132.117 54.8917 132.13 54.9006 132.818 54.6877C133.506 54.4837 133.494 54.4482 134.182 54.2442C134.87 54.0402 134.92 54.1112 135.608 53.8983C136.296 53.6943 136.309 53.7031 136.997 53.4991C137.685 53.2951 137.673 53.2596 138.361 53.0467C139.049 52.8427 139.049 52.8339 139.75 52.6298C140.45 52.4258 140.413 52.3815 141.114 52.1775C141.814 51.9735 141.864 52.0799 142.565 51.867C143.266 51.663 143.241 51.6186 143.929 51.4146C144.629 51.2106 144.592 51.1663 145.293 50.9623C145.993 50.7582 145.968 50.7139 146.656 50.5099C147.357 50.3059 147.457 50.4833 148.145 50.2793C148.846 50.0752 148.758 49.9333 149.459 49.7293C150.16 49.5253 150.16 49.543 150.86 49.3301C151.561 49.1261 151.624 49.2503 152.324 49.0463C153.025 48.8423 152.987 48.7891 153.688 48.585C154.389 48.381 154.389 48.3899 155.089 48.1859C155.79 47.9819 155.715 47.8666 156.416 47.6626C157.116 47.4585 157.179 47.565 157.867 47.361C158.568 47.157 158.518 47.0771 159.218 46.8731C159.919 46.6691 159.881 46.6159 160.582 46.4119C161.283 46.2078 161.308 46.2611 161.996 46.0482C162.697 45.8442 162.759 45.9506 163.447 45.7466C164.136 45.5426 164.06 45.4095 164.749 45.1966C165.437 44.9926 165.487 45.0813 166.188 44.8773C166.888 44.6733 166.826 44.5846 167.526 44.3806C168.227 44.1766 168.202 44.15 168.903 43.9459C169.603 43.7419 169.678 43.8839 170.379 43.671C171.08 43.467 171.055 43.4315 171.755 43.2275C172.443 43.0235 172.368 42.8904 173.069 42.6864C173.757 42.4824 173.845 42.6332 174.545 42.4292C175.234 42.2251 175.246 42.234 175.934 42.03C176.622 41.826 176.547 41.6841 177.236 41.48C177.924 41.276 177.936 41.2938 178.637 41.0898C179.325 40.8857 179.388 40.9922 180.088 40.7882C180.789 40.5842 180.714 40.4688 181.415 40.2648C182.115 40.0608 182.14 40.1052 182.828 39.9012C183.529 39.6971 183.579 39.777 184.267 39.573C184.968 39.3689 184.993 39.4222 185.694 39.2181C186.394 39.0141 186.344 38.9432 187.045 38.7392C187.746 38.5351 187.733 38.5263 188.434 38.3223C189.134 38.1182 189.159 38.1715 189.86 37.9675C190.561 37.7634 190.498 37.657 191.186 37.453C191.887 37.249 191.95 37.3643 192.65 37.1603C193.351 36.9563 193.251 36.7966 193.952 36.5837C194.652 36.3797 194.715 36.4861 195.403 36.2821C196.104 36.0781 196.129 36.1402 196.829 35.9362C197.53 35.7322 197.517 35.7233 198.218 35.5193C198.919 35.3153 198.806 35.129 199.507 34.925C200.207 34.721 200.295 34.8718 200.983 34.6678C201.684 34.4637 201.596 34.3218 202.297 34.1178C202.998 33.9138 203.073 34.0557 203.773 33.8517C204.241 33.7157 204.708 33.5797 205.175 33.4437C205.875 33.2397 205.813 33.1421 206.514 32.9381C207.202 32.7341 207.264 32.8405 207.965 32.6276C208.666 32.4236 208.653 32.4147 209.354 32.2018C210.054 31.9978 210.004 31.918 210.705 31.714C211.406 31.51 211.468 31.6253 212.169 31.4213C212.87 31.2173 212.769 31.0576 213.47 30.8536C214.171 30.6496 214.221 30.7471 214.922 30.5343C215.622 30.3302 215.547 30.2149 216.248 30.0109L217.649 29.6029C218.35 29.3989 218.387 29.4698 219.088 29.2658C219.789 29.0618 219.764 29.0352 220.464 28.8223C221.165 28.6183 221.203 28.6804 221.903 28.4764C222.604 28.2724 222.629 28.3167 223.33 28.1127C224.03 27.9087 224.043 27.9176 224.743 27.7135C225.244 27.5627 225.582 27.2523 225.932 27.0217C226.32 26.7733 226.658 26.5072 226.883 26.1967C227.108 25.8685 227.196 25.5137 227.233 25.1589C227.283 24.8041 227.446 24.4138 227.321 24.0679C227.196 23.722 226.883 23.3938 226.583 23.101C226.295 22.8083 225.882 22.5955 225.444 22.3914C225.044 22.2052 224.568 22.1253 224.043 22.0366L223.98 21.9745Z" fill="#FBFFA1"/>
<path d="M135.633 6.3896C134.895 6.25655 134.87 6.30977 134.132 6.18558C133.64 6.09688 133.144 6.01114 132.643 5.92835C131.905 5.7953 131.93 5.71547 131.192 5.58241C130.454 5.44936 130.454 5.45823 129.703 5.32518C128.965 5.19213 128.952 5.22761 128.201 5.10342C127.463 4.97037 127.476 4.91715 126.737 4.79297C125.999 4.65992 125.999 4.63331 125.261 4.50912C124.523 4.37607 124.485 4.49138 123.735 4.35833C122.996 4.22528 123.021 4.14545 122.283 4.01239C121.545 3.87934 121.545 3.85273 120.807 3.71968C120.069 3.58662 120.006 3.76403 119.255 3.63985C118.517 3.50679 118.517 3.49792 117.766 3.36487C117.028 3.23182 117.016 3.27617 116.265 3.14312C115.527 3.01006 115.539 2.95684 114.801 2.82379C114.063 2.69074 114.113 2.54882 113.362 2.42463C112.611 2.30045 112.549 2.48672 111.811 2.35367C111.06 2.22062 111.085 2.18514 110.334 2.05209C109.596 1.91903 109.571 1.97225 108.833 1.8392C108.082 1.70615 108.132 1.58197 107.394 1.44891C106.643 1.31586 106.681 1.23603 105.93 1.10298C105.179 0.969925 105.179 0.978795 104.441 0.845743C103.69 0.71269 103.628 0.916704 102.877 0.792522C102.126 0.659469 102.126 0.659469 101.388 0.526417C100.638 0.393364 100.675 0.286922 99.9369 0.153869C99.4239 0.0651677 98.9109 0.0119467 98.3979 0.00307652C97.8724 -0.0146638 97.3719 0.0474274 96.8589 0.109519C96.3459 0.17161 95.8204 0.18935 95.3325 0.313532C94.8445 0.437715 94.4191 0.668339 93.9812 0.854613C93.5433 1.04976 93.0303 1.19168 92.6549 1.44004C92.2795 1.68841 92.0794 2.05209 91.7791 2.35367C91.3537 2.78831 91.3662 2.79718 90.9408 3.23182C90.5154 3.66646 90.4903 3.64872 90.0524 4.08335C89.627 4.51799 89.4894 4.44703 89.0515 4.88167C88.6261 5.31631 88.7512 5.3784 88.3258 5.81304C87.9004 6.24768 87.7252 6.15897 87.2998 6.59361C86.8744 7.02825 87.037 7.10808 86.6116 7.54272C86.1862 7.97736 86.1612 7.96849 85.7358 8.39426C85.3104 8.82003 85.2854 8.82002 84.86 9.25466C84.4346 9.6893 84.3345 9.63608 83.9091 10.0707C83.4837 10.5054 83.6338 10.5763 83.1959 11.011C82.7705 11.4456 82.7204 11.419 82.295 11.8536C81.8696 12.2883 81.7945 12.2528 81.3566 12.6785C80.9312 13.1132 80.8937 13.0954 80.4558 13.5301C80.0303 13.9647 80.193 14.0446 79.7551 14.4792C79.3297 14.9138 79.1921 14.8429 78.7541 15.2775C78.3287 15.7121 78.2787 15.6944 77.8533 16.1202C77.4279 16.5548 77.4028 16.5459 76.9649 16.9806C76.5395 17.4152 76.7397 17.5128 76.3018 17.9474C75.8764 18.3821 75.8389 18.3643 75.4134 18.799C74.988 19.2336 74.8754 19.1804 74.45 19.615C74.0246 20.0497 74.0621 20.0674 73.6242 20.502C73.1988 20.9367 73.1112 20.8923 72.6733 21.327C72.2479 21.7616 72.3105 21.7971 71.8851 22.2317C71.4597 22.6664 71.5723 22.7285 71.1469 23.1542C70.7215 23.5889 70.6339 23.5445 70.196 23.9791C69.758 24.4138 69.7831 24.4227 69.3452 24.8484C68.9072 25.2742 68.8322 25.2387 68.3942 25.6733C67.9563 26.108 68.1065 26.1789 67.6685 26.6136C67.2431 27.0482 67.2557 27.0571 66.8302 27.4917C66.4048 27.9264 66.2422 27.8465 65.8168 28.2812C65.3914 28.7158 65.579 28.8045 65.1411 29.2392C64.7157 29.6738 64.6657 29.6472 64.2403 30.0818C63.8149 30.5165 63.6772 30.4544 63.2518 30.8801C62.8264 31.3148 62.889 31.3503 62.4511 31.7849C62.0257 32.2195 62.0757 32.2461 61.6378 32.6808C61.2124 33.1154 61.2499 33.1332 60.812 33.5678C60.3866 34.0024 60.1489 33.8871 59.7109 34.3218C59.2855 34.7564 59.298 34.7653 58.8726 35.1999C58.4472 35.6345 58.5849 35.7055 58.1595 36.1401C57.7341 36.5748 57.6214 36.5216 57.1835 36.9473C56.7581 37.382 56.7706 37.3908 56.3452 37.8255C55.9198 38.2601 55.9574 38.2779 55.5195 38.7125C55.094 39.1471 55.019 39.1117 54.5936 39.5463C54.1682 39.9809 54.2307 40.0164 53.8053 40.451C53.3799 40.8857 53.3048 40.8502 52.8669 41.2848C52.4415 41.7195 52.479 41.7461 52.0536 42.1719C51.6282 42.6065 51.6783 42.6331 51.2529 43.0678C50.815 43.5024 50.9276 43.5556 50.4896 43.9902C50.0642 44.4249 49.9892 44.3894 49.5638 44.824C49.1383 45.2587 48.9507 45.17 48.5253 45.6046C48.0999 46.0393 48.2 46.0925 47.7746 46.5271C47.3492 46.9618 47.2616 46.9174 46.8236 47.352C46.3982 47.7867 46.4733 47.8222 46.0354 48.2568C45.61 48.6914 45.5474 48.6648 45.122 49.0995C44.6966 49.5341 44.6466 49.5075 44.2211 49.9421C43.9375 50.2319 43.6498 50.5187 43.3578 50.8025C42.9324 51.2372 43.045 51.2904 42.6196 51.725C42.1942 52.1597 42.1191 52.1153 41.6812 52.55C41.2558 52.9846 41.381 53.0467 40.9555 53.4725C40.5301 53.9071 40.5927 53.9426 40.1673 54.3683C39.7419 54.803 39.5792 54.7232 39.1538 55.1489C38.7284 55.5836 38.8035 55.619 38.3781 56.0537C37.9527 56.4883 37.8651 56.444 37.4272 56.8786C37.0018 57.3132 37.0893 57.3665 36.6639 57.7922C36.226 58.2269 36.1009 58.1648 35.6755 58.5994C35.2376 59.0341 35.4253 59.1228 34.9998 59.5574C34.7162 59.8472 34.4285 60.1369 34.1365 60.4267C33.7111 60.8613 33.6235 60.817 33.1981 61.2516C32.7727 61.6862 32.6351 61.6153 32.1972 62.0499C31.7718 62.4846 31.9469 62.5733 31.509 63.0079C31.0836 63.4425 31.1086 63.4514 30.6707 63.886C30.2453 64.3207 30.1953 64.2941 29.7573 64.7287C29.3319 65.1633 29.1818 65.0924 28.7564 65.527C28.331 65.9617 28.4936 66.0415 28.0557 66.4761C27.7638 66.7659 27.476 67.0556 27.1924 67.3454C26.7545 67.78 26.6043 67.7002 26.1664 68.1348C25.7285 68.5695 25.8411 68.6227 25.4032 69.0574C24.9778 69.492 25.0403 69.5275 24.6149 69.9621C24.1895 70.3967 24.202 70.4056 23.7766 70.8403C23.3512 71.2749 23.126 71.1684 22.7006 71.6031C22.2627 72.0377 22.5004 72.153 22.0625 72.5877C21.6246 73.0223 21.5495 72.978 21.1116 73.4126C20.6737 73.8472 20.7487 73.8827 20.3233 74.3174C19.8854 74.752 19.7228 74.6722 19.2973 75.1068C18.8594 75.5414 18.922 75.5681 18.4966 76.0027C18.0587 76.4373 18.0712 76.4462 17.6458 76.8808C17.2079 77.3155 17.2204 77.3155 16.7825 77.7501C16.3445 78.1848 16.2945 78.1581 15.8691 78.5928C15.4312 79.0274 15.5312 79.0718 15.0933 79.5064C14.6554 79.941 14.5178 79.8701 14.0924 80.3047C13.6545 80.7394 13.7921 80.8103 13.3542 81.245C12.9288 81.6796 12.9913 81.7151 12.5534 82.1497C12.128 82.5844 11.9653 82.5045 11.5399 82.9392C11.102 83.3738 11.1896 83.4182 10.7642 83.8528C10.3263 84.2874 10.4014 84.3229 9.96344 84.7575C9.52553 85.1922 9.53802 85.2011 9.11263 85.6357C8.68721 86.0703 8.6747 86.0703 8.2493 86.505C7.81137 86.9396 7.58618 86.8243 7.14825 87.2678C6.71034 87.7024 6.72285 87.7113 6.28493 88.146C5.99298 88.4357 5.7052 88.7284 5.4216 89.0241C4.98369 89.4587 5.17136 89.5474 4.73344 89.9821C4.29552 90.4167 4.32054 90.4345 3.89514 90.8691C3.45723 91.3037 3.24452 91.1973 2.80661 91.6408C2.3687 92.0843 2.3687 92.0754 1.93077 92.5189C1.49286 92.9624 0.679565 93.0423 1.19255 93.4326C1.70555 93.8229 1.81816 93.1931 2.44376 92.8915C3.06935 92.5899 3.06935 92.5988 3.69495 92.3061C4.32054 92.0045 4.32054 92.0134 4.94614 91.7206C5.57173 91.419 5.45914 91.3126 6.08473 91.011C6.71033 90.7094 6.73537 90.7449 7.36096 90.4522C7.98656 90.1506 7.924 90.0885 8.53708 89.7958C9.16267 89.5031 9.17519 89.512 9.78828 89.2192C10.4139 88.9265 10.564 89.0862 11.1896 88.7846C11.8152 88.4919 11.7652 88.4387 12.3782 88.1371C13.0038 87.8444 13.0038 87.8532 13.6294 87.5517C14.255 87.2589 14.1424 87.1436 14.768 86.8509C15.1851 86.6558 15.598 86.4577 16.0067 86.2566C16.6323 85.9639 16.7074 86.0437 17.3205 85.7421C17.9461 85.4406 17.9836 85.4938 18.6092 85.1922C19.2348 84.8906 19.1973 84.8551 19.8103 84.5624C20.4359 84.2608 20.4234 84.2608 21.049 83.9681C21.6746 83.6665 21.587 83.5867 22.2126 83.2851C22.8382 82.9835 22.9383 83.0988 23.5639 82.8061C24.1895 82.5045 24.1019 82.4158 24.715 82.1231C25.3406 81.8215 25.4157 81.9014 26.0288 81.6086C26.6544 81.3071 26.6794 81.3337 27.2925 81.0409C27.9181 80.7394 27.8931 80.7127 28.5061 80.42C29.1317 80.1184 29.0066 79.9943 29.6322 79.7016C30.2578 79.4 30.3454 79.4975 30.9585 79.196C31.5841 78.8944 31.5215 78.8411 32.1471 78.5396C32.7727 78.238 32.7477 78.2291 33.3733 77.9275C33.9989 77.6259 34.1365 77.7856 34.7621 77.484C35.3877 77.1824 35.2626 77.0671 35.8882 76.7655C36.5138 76.4639 36.5013 76.4639 37.1269 76.1712C37.5439 75.9702 37.9568 75.7721 38.3656 75.5769C38.9912 75.2753 39.0662 75.364 39.6918 75.0713C40.3174 74.7786 40.3425 74.8052 40.968 74.5125C41.5937 74.2109 41.5937 74.2198 42.2192 73.9182C42.8448 73.6166 42.7447 73.519 43.3703 73.2263C43.9959 72.9247 43.9709 72.907 44.584 72.6054C45.2096 72.3038 45.2847 72.3925 45.9103 72.0909C46.5359 71.7894 46.5734 71.8337 47.199 71.541C47.8246 71.2394 47.6619 71.0798 48.2875 70.7782C48.9131 70.4766 48.9632 70.5387 49.5888 70.2371C50.2144 69.9355 50.2519 69.9887 50.8775 69.6871C51.5031 69.3855 51.3905 69.2702 52.0161 68.9775C52.6417 68.6759 52.7293 68.7735 53.3549 68.4719C53.9805 68.1703 53.8929 68.0816 54.5185 67.7889C55.1441 67.4873 55.2692 67.6204 55.8948 67.3277C56.5204 67.0261 56.4203 66.9196 57.0334 66.6269C57.659 66.3253 57.7215 66.3963 58.3471 66.1036C58.9727 65.802 59.0103 65.8552 59.6359 65.5536C60.2615 65.252 60.1363 65.1367 60.7619 64.8351C61.3875 64.5336 61.3876 64.5336 62.0006 64.2408C62.6262 63.9393 62.7388 64.0634 63.3644 63.7707C63.99 63.4691 63.965 63.4514 64.5906 63.1498C65.2162 62.8482 65.2037 62.8482 65.8293 62.5466C66.4549 62.2451 66.3673 62.1564 66.9929 61.8636C67.6185 61.5621 67.6936 61.6508 68.3192 61.358C68.9448 61.0565 68.8822 60.9944 69.5078 60.7016C70.1334 60.4001 70.0959 60.3646 70.7089 60.063C71.3345 59.7614 71.4221 59.8679 72.0477 59.5663C72.6733 59.2647 72.5607 59.1582 73.1863 58.8567C73.8119 58.5551 73.9245 58.6792 74.5501 58.3777C75.1757 58.0761 75.2007 58.1027 75.8138 57.81C76.4269 57.5173 76.3894 57.464 77.015 57.1713C77.6406 56.8697 77.553 56.7899 78.1786 56.4883C78.8042 56.1867 78.8042 56.1956 79.4298 55.894C80.0429 55.6013 80.168 55.7166 80.7811 55.4239C81.3942 55.1312 81.3316 55.0602 81.9572 54.7586C82.5703 54.4659 82.5202 54.4038 83.1333 54.1022C83.7589 53.8095 83.7464 53.8007 84.3595 53.4991C84.9851 53.2064 85.1227 53.3571 85.7483 53.0556C86.3739 52.754 86.3364 52.7185 86.9495 52.4169C87.5751 52.1153 87.525 52.071 88.1381 51.7694C88.7637 51.4678 88.8388 51.5565 89.4644 51.2638C90.09 50.9622 89.9523 50.8292 90.5779 50.5276C91.2035 50.226 91.3161 50.3502 91.9417 50.0486C92.5673 49.747 92.4422 49.6228 93.0678 49.3212C93.6934 49.0196 93.8185 49.1616 94.4441 48.86C95.0697 48.5584 94.9946 48.4874 95.6202 48.1947C96.2458 47.8931 96.3209 47.9818 96.9465 47.6891C97.5721 47.3875 97.422 47.2456 98.0476 46.944C98.6731 46.6424 98.6606 46.6424 99.2862 46.3408C99.9118 46.0393 100.049 46.1901 100.675 45.8885C101.301 45.5869 101.213 45.4982 101.826 45.1966C102.452 44.895 102.402 44.8507 103.027 44.5491C103.653 44.2475 103.753 44.3628 104.379 44.0612C105.004 43.7596 104.929 43.6887 105.555 43.3871C106.18 43.0855 106.205 43.1121 106.831 42.8194C107.457 42.5178 107.419 42.4823 108.045 42.1807C108.67 41.8792 108.645 41.8525 109.258 41.5598C109.884 41.2582 109.896 41.276 110.522 40.9744C111.148 40.6728 111.198 40.7349 111.823 40.4333C112.449 40.1317 112.524 40.2116 113.149 39.91C113.775 39.6084 113.8 39.6439 114.426 39.3423C115.051 39.0407 114.989 38.9786 115.602 38.677C116.227 38.3754 116.265 38.4198 116.891 38.1182C117.516 37.8166 117.504 37.8077 118.129 37.515C118.755 37.2134 118.755 37.2134 119.38 36.9118C120.006 36.6103 119.868 36.4683 120.494 36.1756C121.12 35.874 121.145 35.9007 121.77 35.5991C122.396 35.2975 122.471 35.3862 123.096 35.0846C123.722 34.783 123.71 34.7741 124.335 34.4814C124.961 34.1798 124.961 34.1887 125.586 33.896C126.212 33.5944 126.137 33.5146 126.75 33.2219C127.376 32.9203 127.438 32.9912 128.064 32.6897C128.689 32.3881 128.752 32.459 129.377 32.1574C130.003 31.8559 129.878 31.7228 130.504 31.4212C131.129 31.1196 131.279 31.2704 131.905 30.9688C132.53 30.6673 132.368 30.4987 132.993 30.206C133.619 29.9044 133.744 30.0375 134.37 29.7359C134.995 29.4343 134.945 29.3899 135.571 29.0884C136.196 28.7868 136.222 28.8045 136.847 28.5118C137.473 28.2102 137.46 28.1925 138.086 27.8909C138.711 27.5893 138.749 27.6248 139.387 27.3232C140.025 27.0216 140.275 27.1635 140.638 26.6845C140.989 26.2233 140.488 26.1435 140.488 25.6113C140.488 25.079 140.576 25.0879 140.576 24.5557C140.576 24.0235 140.663 24.0324 140.663 23.5002C140.663 22.9679 140.626 22.9768 140.626 22.4535C140.626 21.9301 140.701 21.9301 140.701 21.3979C140.701 20.8657 140.488 20.8746 140.488 20.3424C140.488 19.8102 140.676 19.819 140.676 19.2868C140.676 18.7546 140.676 18.7635 140.676 18.2313C140.676 17.6991 140.576 17.7079 140.576 17.1757C140.576 16.6435 140.651 16.6524 140.651 16.1202C140.651 15.588 140.651 15.588 140.651 15.0646C140.651 14.5413 140.651 14.5413 140.651 14.0091C140.651 13.4769 140.451 13.4769 140.451 12.9535C140.451 12.4302 140.488 12.4213 140.488 11.898C140.488 11.3746 140.663 11.3658 140.663 10.8424C140.663 10.4965 140.476 10.1772 140.363 9.84896C140.263 9.5119 140.25 9.15709 140.038 8.8555C139.837 8.54505 139.575 8.24346 139.287 7.97736C138.999 7.71125 138.536 7.56046 138.161 7.33871C137.798 7.12582 137.398 6.95729 136.972 6.8065C136.547 6.6557 136.159 6.43395 135.696 6.35412L135.633 6.3896Z" fill="#FBFFA1"/>
<path d="M1.20578 93.5475C1.83138 93.2459 1.70626 93.1217 2.31935 92.8202C2.94494 92.5186 3.04504 92.6339 3.67064 92.3323C4.29624 92.0307 4.23368 91.9686 4.84676 91.667C5.47236 91.3654 5.5099 91.4187 6.13549 91.1171C6.76109 90.8155 6.79863 90.8687 7.42422 90.5671C8.04982 90.2655 7.89967 90.1147 8.51276 89.822C9.13835 89.5293 9.15086 89.5471 9.77646 89.2543C10.4021 88.9616 10.4646 89.0326 11.0902 88.731C11.7158 88.4383 11.6908 88.4117 12.3039 88.119C12.9295 87.8262 12.8669 87.7642 13.48 87.4626C14.1056 87.1699 14.1556 87.2231 14.7687 86.9215C15.3818 86.6199 15.4194 86.6554 16.045 86.3627C16.6706 86.07 16.6956 86.0966 17.3212 85.8038C17.9468 85.5111 17.8592 85.4136 18.4723 85.1208C19.0979 84.8281 19.1604 84.8902 19.786 84.5975C20.4116 84.2959 20.4241 84.3225 21.0497 84.0209C21.6753 83.7194 21.5752 83.6307 22.2008 83.3291C22.8264 83.0275 22.9265 83.1428 23.5396 82.8412C24.1652 82.5396 24.0401 82.4154 24.6657 82.1227C25.2913 81.8211 25.4164 81.9631 26.042 81.6615C26.6676 81.3599 26.5425 81.2357 27.1555 80.9341C27.7811 80.6325 27.8562 80.7212 28.4818 80.4285C29.1074 80.1269 29.145 80.1713 29.7706 79.8697C30.3962 79.5681 30.2835 79.4528 30.9091 79.1601C31.5347 78.8585 31.6098 78.9472 32.2354 78.6456C32.861 78.344 32.7234 78.211 33.349 77.9094C33.9746 77.6078 33.9871 77.6344 34.6127 77.3328C35.2383 77.0313 35.3509 77.1554 35.964 76.8538C36.5896 76.5523 36.5145 76.4813 37.1401 76.1886C37.7657 75.887 37.8658 76.0023 38.4914 75.7007C39.117 75.3991 39.0044 75.2838 39.6175 74.9911C40.2305 74.6984 40.2305 74.6807 40.8436 74.3879C41.4692 74.0864 41.4567 74.0864 42.0823 73.7936C42.7079 73.4921 42.8205 73.6162 43.4461 73.3235C44.0717 73.0219 43.9466 72.9066 44.5722 72.605C45.1978 72.3035 45.1477 72.2591 45.7733 71.9664C46.3989 71.6648 46.3989 71.6737 47.0245 71.381C47.6501 71.0794 47.7377 71.1769 48.3633 70.8842C48.9889 70.5826 48.8888 70.4851 49.5019 70.1835C50.1275 69.8819 50.2151 69.9795 50.8407 69.6867C51.4663 69.3852 51.4913 69.4206 52.1169 69.1191C52.7425 68.8175 52.6299 68.7022 53.2555 68.4094C53.8811 68.1079 53.8936 68.1256 54.5192 67.8329C55.1448 67.5313 55.1573 67.5579 55.7829 67.2563C56.4085 66.9547 56.4335 66.9902 57.0591 66.6975C57.6847 66.3959 57.6847 66.4137 58.3103 66.1121C58.9359 65.8105 58.9359 65.8194 59.5615 65.5266C60.1871 65.2251 60.1371 65.1807 60.7501 64.8791C61.3757 64.5775 61.4508 64.6662 62.0764 64.3646C62.702 64.0631 62.7145 64.0808 63.3276 63.7792C63.9532 63.4776 63.9407 63.4688 64.5663 63.176C65.1919 62.8745 65.1543 62.839 65.7674 62.5374C66.393 62.2358 66.3054 62.156 66.931 61.8544C67.5566 61.5528 67.6692 61.677 68.2948 61.3754C68.9204 61.0738 68.8203 60.9762 69.4459 60.6747C70.0715 60.3731 70.1466 60.4618 70.7722 60.1691C71.3978 59.8675 71.3102 59.7788 71.9358 59.4861C72.5614 59.1845 72.5614 59.1933 73.187 58.8918C73.8126 58.5902 73.8376 58.6168 74.4632 58.3241C75.0888 58.0225 75.0513 57.9959 75.6769 57.6943C76.3025 57.3927 76.34 57.437 76.9531 57.1355C77.5787 56.8339 77.6788 56.9403 78.2919 56.6476C78.9175 56.346 78.8549 56.2839 79.4805 55.9912C80.0936 55.6985 80.0936 55.6896 80.7192 55.388C81.3323 55.0953 81.3323 55.0776 81.9454 54.7849C82.5585 54.4921 82.5334 54.4567 83.159 54.164C83.7846 53.8712 83.8722 53.9688 84.4978 53.6761C85.1234 53.3834 84.9608 53.2148 85.5738 52.9133C86.1994 52.6117 86.2245 52.6472 86.8375 52.3456C87.4631 52.044 87.5132 52.1061 88.1388 51.8134C88.5559 51.6123 88.9687 51.4142 89.3775 51.2191C90.0031 50.9175 90.0031 50.9263 90.6287 50.6248C91.2543 50.3232 91.2668 50.3409 91.8924 50.0393C92.518 49.7377 92.4679 49.6934 93.0935 49.4007C93.5106 49.1996 93.9235 49.0015 94.3322 48.8064C94.9578 48.5048 95.0204 48.5846 95.646 48.283C96.2716 47.9814 96.259 47.9814 96.8846 47.6799C97.5102 47.3783 97.4727 47.3517 98.0983 47.0501C98.7239 46.7485 98.7614 46.7928 99.387 46.5001C100.013 46.1985 100.025 46.2251 100.651 45.9236C101.276 45.622 101.189 45.5333 101.802 45.2317C102.427 44.9301 102.49 45.0099 103.116 44.7084C103.741 44.4068 103.766 44.4334 104.392 44.1318C105.017 43.8302 104.867 43.6794 105.493 43.3867C106.118 43.0851 106.131 43.1028 106.744 42.8013C107.37 42.4997 107.332 42.4642 107.958 42.1715C108.583 41.8699 108.621 41.9231 109.246 41.6215C109.872 41.3199 109.985 41.4441 110.61 41.1425C111.236 40.841 111.073 40.6813 111.699 40.3797C112.324 40.0781 112.349 40.1136 112.975 39.812C113.601 39.5104 113.563 39.4749 114.189 39.1734C114.814 38.8718 114.914 38.9871 115.54 38.6855C116.166 38.3839 116.228 38.4549 116.854 38.1533C117.479 37.8517 117.467 37.8517 118.092 37.5501C118.718 37.2485 118.555 37.0711 119.168 36.7784C119.794 36.4768 119.794 36.4857 120.42 36.1841C121.045 35.8825 121.133 35.9801 121.758 35.6785C122.384 35.3769 122.384 35.3769 123.01 35.0753C123.635 34.7738 123.598 34.7383 124.223 34.4456C124.849 34.144 124.911 34.2149 125.524 33.9134C126.15 33.6118 126.1 33.5585 126.713 33.257C127.339 32.9554 127.426 33.0441 128.052 32.7514C128.677 32.4498 128.577 32.3433 129.203 32.0417C129.829 31.7402 129.816 31.7313 130.442 31.4297C131.067 31.1281 131.092 31.1459 131.718 30.8443C132.343 30.5427 132.431 30.6403 133.057 30.3475C133.682 30.046 133.595 29.9484 134.22 29.6468C134.846 29.3452 134.958 29.4694 135.584 29.1678C136.21 28.8662 136.097 28.742 136.723 28.4405C137.348 28.1389 137.361 28.1566 137.999 27.855C138.624 27.5534 138.637 27.5623 139.263 27.2607C139.888 26.9591 139.963 27.0301 140.589 26.7285" stroke="#050505" stroke-linecap="round" stroke-linejoin="round"/>
<path d="M135.272 10.0439C134.709 10.3899 134.722 10.4076 134.159 10.7536C133.596 11.0995 133.571 11.0818 133.008 11.4366C132.445 11.7825 132.57 11.8889 132.007 12.2437C131.444 12.5986 131.294 12.4744 130.731 12.8203C130.168 13.1751 130.23 13.2195 129.667 13.5743C129.104 13.9202 129.016 13.8492 128.453 14.2041C127.89 14.55 127.928 14.5855 127.365 14.9403C126.802 15.2862 126.852 15.3306 126.289 15.6765C125.726 16.0224 125.688 15.9958 125.125 16.3506C124.562 16.6966 124.575 16.7054 124.012 17.0602C123.449 17.4062 123.561 17.4949 122.998 17.8497C122.435 18.1956 122.41 18.1779 121.847 18.5238C121.284 18.8698 121.247 18.8432 120.684 19.1891C120.12 19.535 120.171 19.5794 119.608 19.9253C119.044 20.2712 119.007 20.2446 118.444 20.5906C117.881 20.9365 117.831 20.901 117.268 21.247C116.705 21.5929 116.78 21.6639 116.229 22.0098C115.666 22.3557 115.516 22.2316 114.953 22.5864C114.39 22.9323 114.403 22.9412 113.839 23.2871C113.276 23.633 113.427 23.7572 112.864 24.112C112.301 24.458 112.225 24.3959 111.662 24.7507C111.099 25.0966 111.062 25.0611 110.499 25.4159C109.936 25.7619 110.061 25.8595 109.498 26.2143C108.935 26.5602 108.822 26.4715 108.259 26.8174C107.696 27.1634 107.759 27.2255 107.208 27.5714C106.645 27.9173 106.72 27.9794 106.157 28.3254C105.594 28.6713 105.607 28.689 105.044 29.035C104.481 29.3809 104.318 29.2479 103.755 29.6027C103.192 29.9486 103.217 29.9663 102.641 30.3212C102.078 30.676 102.053 30.6582 101.49 31.0042C100.927 31.359 100.952 31.3678 100.377 31.7226C99.8136 32.0774 99.9512 32.1839 99.3882 32.5387C98.8252 32.8935 98.7 32.7871 98.137 33.1419C97.574 33.4878 97.599 33.5055 97.0359 33.8603C96.4729 34.2063 96.573 34.295 96.01 34.6409C95.4469 34.9869 95.2968 34.8715 94.7338 35.2175C94.1707 35.5634 94.2333 35.6166 93.6702 35.9626C93.1072 36.3085 93.0571 36.273 92.4941 36.6278C91.9311 36.9826 91.9186 36.9649 91.3555 37.3108C90.7925 37.6568 90.8676 37.7189 90.3045 38.0737C89.7415 38.4196 89.804 38.4728 89.241 38.8188C88.678 39.1647 88.5779 39.0849 88.0148 39.4308C87.4518 39.7767 87.4393 39.7679 86.8762 40.1227C86.3132 40.4686 86.4258 40.5662 85.8628 40.921C85.2997 41.2669 85.1246 41.125 84.5615 41.4798C83.9985 41.8258 84.1111 41.9233 83.5481 42.2781C82.985 42.6329 82.96 42.6063 82.397 42.9523C81.8339 43.3071 81.8589 43.3248 81.2959 43.6796C80.7329 44.0344 80.7329 44.0344 80.1698 44.3804C79.6068 44.7352 79.4817 44.6287 78.9186 44.9835C78.3556 45.3383 78.4182 45.3827 77.8551 45.7375C77.2921 46.0834 77.4297 46.1988 76.8667 46.5447C76.3036 46.8906 76.2786 46.8818 75.7156 47.2277C75.1525 47.5736 75.0525 47.4938 74.4894 47.8486C73.9264 48.1945 73.8513 48.1413 73.2883 48.4961C72.7252 48.8421 72.7252 48.8421 72.1622 49.188C71.5992 49.5339 71.7368 49.6493 71.1737 50.0041C70.6107 50.35 70.6107 50.35 70.0477 50.7048C69.4846 51.0507 69.4221 51.0064 68.859 51.3612C68.296 51.7071 68.2835 51.6983 67.7204 52.0531C67.1574 52.4079 67.2325 52.47 66.6694 52.8159C66.1064 53.1707 65.9563 53.0465 65.3932 53.4013C64.8302 53.7561 64.8677 53.7827 64.3047 54.1376C63.7416 54.4924 63.8167 54.5456 63.2412 54.8915C62.6781 55.2463 62.6406 55.2197 62.0776 55.5657C61.5145 55.9116 61.5896 55.9737 61.0266 56.3196C60.4635 56.6656 60.4635 56.6656 59.9005 57.0115C59.3375 57.3574 59.3625 57.3752 58.7994 57.7211C58.2364 58.067 58.1113 57.9695 57.5607 58.3243C56.9977 58.6702 57.0478 58.7146 56.4847 59.0605C55.9217 59.4064 55.9592 59.4419 55.4087 59.7879C54.8456 60.1338 54.8206 60.1072 54.2576 60.462C53.6945 60.8079 53.7696 60.87 53.2191 61.2248C52.6561 61.5708 52.6185 61.5441 52.0555 61.8901C51.4925 62.236 51.3924 62.1562 50.8293 62.5021C50.2663 62.8481 50.2538 62.8481 49.6907 63.194C49.1277 63.5399 49.1152 63.5311 48.5521 63.8859C47.9891 64.2407 48.1393 64.356 47.5637 64.7019C47.0007 65.0567 46.8755 64.9503 46.3125 65.3051C45.7495 65.6599 45.8245 65.7131 45.2615 66.0679C44.6985 66.4227 44.6484 66.3784 44.0729 66.7243C43.5098 67.0791 43.4598 67.0348 42.8967 67.3807C42.3337 67.7267 42.5089 67.8686 41.9458 68.2234C41.3828 68.5693 41.3578 68.5516 40.7947 68.8975C40.2317 69.2435 40.1441 69.1814 39.5811 69.5273C39.018 69.8732 39.0431 69.8998 38.48 70.2458C37.917 70.5917 37.9796 70.6538 37.4165 70.9997C36.8535 71.3546 36.7909 71.3013 36.2279 71.6473C35.6648 72.0021 35.6273 71.9666 35.0643 72.3214C34.5012 72.6762 34.4637 72.6407 33.9006 72.9955C33.3376 73.3503 33.4377 73.4302 32.8747 73.785C32.3116 74.1398 32.2366 74.0688 31.661 74.4236C31.098 74.7784 31.073 74.7607 30.5099 75.1066C29.9469 75.4614 30.047 75.5413 29.4839 75.8961C28.9209 76.2509 28.7958 76.1533 28.2327 76.4992C27.6697 76.8541 27.8073 76.9694 27.2443 77.3153C26.6813 77.6701 26.5311 77.5459 25.9681 77.9007C25.405 78.2555 25.5427 78.3709 24.9796 78.7257C24.4166 79.0805 24.3165 79.0006 23.7535 79.3466C23.1904 79.7014 23.1404 79.657 22.5773 80.0118C22.0143 80.3666 22.1394 80.4642 21.5764 80.819C21.0133 81.1738 20.9133 81.094 20.3502 81.4488C19.7872 81.8036 19.9373 81.9278 19.3743 82.2826C18.8112 82.6374 18.7862 82.6197 18.2232 82.9656C17.6601 83.3204 17.5225 83.214 16.9595 83.5599C16.3964 83.9147 16.4715 83.9768 15.9085 84.3316C15.3454 84.6864 15.2203 84.58 14.6573 84.9348C14.0942 85.2896 14.2194 85.3872 13.6563 85.742C13.0933 86.0968 13.1058 86.1056 12.5302 86.4605C11.9672 86.8153 11.9672 86.8153 11.4042 87.1701C10.8411 87.5249 10.7035 87.4096 10.1405 87.7644C9.57742 88.1192 9.71505 88.2256 9.1395 88.5804C8.57646 88.9352 8.62651 88.9796 8.06347 89.3255C7.50043 89.6803 7.48792 89.6715 6.92488 90.0263C6.36184 90.3811 6.24925 90.2924 5.68621 90.6383C5.12317 90.9931 5.23577 91.0907 4.66022 91.4366C4.09718 91.7914 3.98458 91.7027 3.40903 92.0575C2.83348 92.4123 2.79594 92.3857 2.2329 92.7405C1.65735 93.0953 1.79498 93.2018 1.21943 93.5566" stroke="#050505" stroke-linecap="round" stroke-linejoin="round"/>
<path d="M70.8355 72.8984C71.5361 72.6943 71.5111 72.6589 72.2118 72.4549C72.9125 72.2508 72.975 72.3661 73.6757 72.1621C74.3764 71.9581 74.2888 71.8073 74.9769 71.6033C75.6776 71.3993 75.7401 71.5146 76.4408 71.3017C77.1415 71.0977 77.0914 71.009 77.7796 70.7961C78.4803 70.5921 78.5303 70.6808 79.231 70.4768C79.9317 70.2728 79.8816 70.1841 80.5698 69.9712C81.2704 69.7672 81.333 69.8825 82.0337 69.6785C82.7343 69.4745 82.6718 69.3592 83.3599 69.1551C84.0606 68.9511 84.0856 68.9955 84.7863 68.7915C85.487 68.5875 85.537 68.6762 86.2377 68.4721C86.9383 68.2681 86.8508 68.1173 87.5389 67.9133C88.2271 67.7093 88.3021 67.8335 89.0028 67.6295C89.7035 67.4255 89.691 67.4077 90.3916 67.2037C91.0923 66.9997 91.0798 66.982 91.7805 66.7779C92.4811 66.5739 92.4686 66.5651 93.1693 66.3522C93.87 66.1482 93.8825 66.157 94.5706 65.953C95.2713 65.749 95.2338 65.678 95.9219 65.474C96.6226 65.27 96.5851 65.2079 97.2857 65.0039C97.9864 64.7999 98.074 64.9507 98.7746 64.7467C99.4753 64.5427 99.3877 64.4007 100.076 64.1967C100.777 63.9927 100.852 64.1258 101.552 63.9217C102.253 63.7177 102.165 63.5758 102.866 63.3718C103.567 63.1678 103.642 63.292 104.342 63.0879C105.043 62.8839 105.043 62.8839 105.744 62.6799C106.444 62.4759 106.432 62.467 107.133 62.263C107.833 62.059 107.858 62.1034 108.559 61.8993C109.26 61.6953 109.16 61.5445 109.86 61.3317C110.561 61.1276 110.586 61.1631 111.274 60.9591C111.975 60.7551 111.95 60.7285 112.65 60.5245C113.351 60.3205 113.401 60.4092 114.089 60.1963C114.79 59.9923 114.79 60.01 115.491 59.806C116.191 59.602 116.104 59.4601 116.804 59.256C117.505 59.052 117.505 59.0609 118.206 58.8569C118.906 58.6529 118.994 58.7948 119.695 58.5908C120.395 58.3868 120.383 58.369 121.083 58.165C121.784 57.961 121.809 58.0142 122.51 57.8102C123.21 57.6062 123.098 57.4199 123.799 57.2159C124.499 57.0119 124.499 57.0296 125.2 56.8167C125.901 56.6127 125.951 56.7103 126.651 56.4974C127.352 56.2934 127.289 56.187 127.99 55.9741C128.691 55.7701 128.753 55.8676 129.454 55.6636C130.155 55.4596 130.142 55.4419 130.843 55.2379C131.543 55.0338 131.556 55.0516 132.257 54.8476C132.957 54.6436 132.882 54.5105 133.583 54.3065C134.284 54.1025 134.371 54.2533 135.072 54.0492C135.772 53.8452 135.735 53.7831 136.436 53.5791C137.136 53.3751 137.186 53.4638 137.887 53.2598C138.588 53.0558 138.563 53.0114 139.263 52.8074C139.964 52.6034 139.939 52.5502 140.64 52.3462C141.34 52.1422 141.365 52.1776 142.066 51.9736C142.767 51.7696 142.754 51.7607 143.455 51.5479C144.155 51.3438 144.093 51.2374 144.781 51.0245C145.482 50.8205 145.494 50.8471 146.195 50.6431C146.896 50.4391 146.921 50.4746 147.621 50.2706C148.322 50.0665 148.297 50.0133 148.998 49.8093C149.698 49.6053 149.723 49.6408 150.424 49.4368C151.125 49.2327 151.15 49.286 151.85 49.0731C152.551 48.8691 152.501 48.7892 153.202 48.5852C153.902 48.3812 153.99 48.532 154.691 48.328C155.391 48.124 155.391 48.1151 156.092 47.9111C156.793 47.7071 156.705 47.5563 157.406 47.3434C158.106 47.1394 158.156 47.2103 158.857 47.0063C159.558 46.8023 159.583 46.8378 160.296 46.6338" stroke="#050505" stroke-linecap="round" stroke-linejoin="round"/>
</svg>
