<svg width="99" height="99" viewBox="0 0 99 99" fill="none" xmlns="http://www.w3.org/2000/svg">
<path d="M10.907 98.4888C7.90756 98.4888 5.34078 97.4217 3.20665 95.2876C1.07252 93.1534 0.00363566 90.5848 0 87.5817V11.2321C0 8.23265 1.06888 5.66585 3.20665 3.5317C5.34442 1.39754 7.91119 0.328648 10.907 0.325012H87.2558C90.2552 0.325012 92.8238 1.39391 94.9616 3.5317C97.0993 5.66949 98.1664 8.23629 98.1628 11.2321V87.5817C98.1628 90.5812 97.0957 93.1498 94.9616 95.2876C92.8274 97.4254 90.2589 98.4924 87.2558 98.4888H10.907ZM16.3605 76.6746H81.8023L61.3517 49.4069L44.9913 71.2211L32.7209 54.8604L16.3605 76.6746Z" fill="white"/>
</svg>
