<svg width="979" height="574" viewBox="0 0 979 574" fill="none" xmlns="http://www.w3.org/2000/svg">
<rect width="979" height="574" fill="#1E1E1E"/>
<g clip-path="url(#clip0_0_1)">
<rect width="979" height="574" fill="white"/>
<path d="M640.506 587.993C658.421 567.727 675.447 546.6 692.167 525.849C697.278 519.504 702.565 512.945 707.749 506.575C749.042 455.802 788.487 418.436 828.331 392.349C877.447 360.192 928.093 345.092 978.992 347.383V347.238C967.085 346.7 955.142 347.079 943.39 348.407C929.786 349.944 916.06 352.773 902.591 356.813C877.712 364.278 852.671 376.201 828.156 392.249C788.295 418.348 748.838 455.724 707.533 506.511C702.353 512.882 697.066 519.443 691.955 525.786C675.215 546.561 658.172 567.709 640.236 587.993H640.51H640.506Z" fill="url(#paint0_radial_0_1)"/>
<path d="M63.3152 587.993C50.2825 582.748 37.1805 577.723 24.0458 573.063C15.8061 570.138 7.8111 567.444 0.0078125 564.961V565.191C21.1497 571.916 42.0631 579.678 62.7727 587.993H63.3152Z" fill="url(#paint1_radial_0_1)"/>
<path d="M639.07 587.993C666.212 560.485 692.082 530.389 717.123 501.249L717.205 501.154C737.93 476.89 757.139 456.255 775.923 438.061C835.588 380.408 893.246 348.871 952.184 341.654C960.836 340.595 969.814 340.085 978.984 340.106V339.936C969.798 339.915 960.803 340.425 952.135 341.487C935.66 343.506 919.05 347.483 902.762 353.315C887.555 358.757 872.157 365.981 857.007 374.788C830.114 390.415 803.514 411.085 775.686 437.976C756.898 456.171 737.686 476.812 716.956 501.079L716.874 501.175C691.812 530.343 665.914 560.468 638.748 587.996H639.07V587.993Z" fill="url(#paint2_radial_0_1)"/>
<path d="M635.961 587.993C638.242 585.939 640.538 583.846 642.859 581.7C668.227 558.247 695.638 530.127 726.668 495.728C742.43 478.256 763.441 455.352 786.186 433.157C846.381 374.661 900.902 343.502 957.756 335.096C964.597 334.083 971.637 333.442 978.988 333.134V332.943C971.613 333.247 964.552 333.892 957.687 334.908C941.713 337.27 925.601 341.558 909.786 347.649C895.081 353.315 880.148 360.737 865.398 369.707C839.691 385.337 813.691 406.06 785.913 433.054C763.164 455.257 742.152 478.161 726.387 495.64C695.365 530.031 667.954 558.148 642.594 581.597C640.293 583.722 637.96 585.857 635.598 587.993H635.961Z" fill="url(#paint3_radial_0_1)"/>
<path d="M118.216 587.993C78.8769 571.697 39.6769 556.884 0.0078125 546.115V546.328C39.4811 557.054 78.4934 571.781 117.649 587.993H118.216Z" fill="url(#paint4_radial_0_1)"/>
<path d="M630.679 587.993C636.7 583.241 642.851 578.205 649.19 572.83C678.119 548.286 708.182 519.752 736.128 490.311C754.463 470.99 775.25 449.092 796.441 428.252C837.362 388.259 893.311 340.786 963.324 328.538C968.317 327.666 973.526 327.001 978.988 326.516V326.3C973.493 326.785 968.252 327.454 963.23 328.332C933.147 333.594 903.888 345.471 873.784 364.639C849.326 380.21 823.93 400.982 796.139 428.143C774.944 448.986 754.157 470.888 735.818 490.208C707.88 519.646 677.821 548.173 648.9 572.713C642.912 577.791 636.72 582.915 630.3 588H630.675L630.679 587.993Z" fill="url(#paint5_radial_0_1)"/>
<path d="M173.907 587.993H174.536C170.697 586.385 166.997 584.845 163.375 583.347C128.01 568.697 85.9991 551.987 42.5569 539.132C27.9374 534.805 13.7871 531.119 0.0120544 528.027V528.204C51.5676 539.801 104.384 559.168 163.175 583.52C166.663 584.965 170.224 586.445 173.911 587.989L173.907 587.993Z" fill="url(#paint6_radial_0_1)"/>
<path d="M622.492 587.993C633.037 580.875 643.969 572.918 655.521 563.959C687.811 538.909 718.955 511.568 745.587 484.885C753.717 476.741 762.119 468.228 770.249 459.995C782.119 447.973 794.393 435.536 806.7 423.341C850.052 380.727 903.223 335.358 968.896 321.976C972.151 321.313 975.5 320.74 978.992 320.248V320.007C975.46 320.503 972.074 321.08 968.782 321.753C939.784 327.663 911.451 340.032 882.167 359.568C858.72 375.209 834.637 395.436 806.369 423.224C794.063 435.419 781.789 447.856 769.915 459.878C761.785 468.111 753.382 476.628 745.257 484.769C718.632 511.44 687.497 538.774 655.215 563.817C644.797 571.898 633.779 580.085 622.064 587.993H622.497H622.492Z" fill="url(#paint7_radial_0_1)"/>
<path d="M208.192 578.396C215.71 581.576 223.338 584.788 231.039 587.993H231.757C224.052 584.792 216.281 581.527 208.425 578.202C195.82 572.915 184.142 568.124 172.724 563.552C120.818 542.78 61.8387 521.522 0.0120544 510.665V510.913C61.749 521.767 120.655 542.999 172.504 563.75C183.922 568.318 195.596 573.109 208.196 578.396H208.192Z" fill="url(#paint8_radial_0_1)"/>
<path d="M609.961 587.993C626.217 579.044 643.21 568.254 661.843 555.092C697.344 530.017 728.699 504.574 755.042 479.468C770.84 464.411 787.132 448.164 802.886 432.452C807.56 427.788 812.251 423.111 816.954 418.436C862.159 373.517 912.527 329.947 974.468 315.418C975.949 315.07 977.458 314.745 978.992 314.433V314.16C977.405 314.479 975.851 314.816 974.321 315.173C946.371 321.728 918.944 334.586 890.48 354.476C867.996 370.185 845.206 389.87 816.595 418.302C811.892 422.972 807.205 427.65 802.527 432.317C786.773 448.029 770.486 464.276 754.687 479.33C728.357 504.426 697.013 529.858 661.525 554.922C645.596 566.176 628.289 577.621 609.35 587.989H609.965L609.961 587.993Z" fill="url(#paint9_radial_0_1)"/>
<path d="M217.696 558.346L224.068 561.002C246.034 570.156 268.24 579.409 290.54 587.993H291.348C268.86 579.349 246.466 570.018 224.317 560.786L217.945 558.13C206.707 553.449 194.637 548.615 182.065 543.757C137.183 526.416 97.6162 513.795 61.1125 505.173C39.9787 500.18 19.7016 496.469 0.0078125 493.99V494.209C53.7334 500.941 112.056 517.021 181.829 543.976C194.396 548.831 206.462 553.665 217.696 558.343V558.346Z" fill="url(#paint10_radial_0_1)"/>
<path d="M589.627 587.993C613.963 578.205 639.029 564.876 668.17 546.225C706.481 521.703 737.988 498.094 764.502 474.046C784.265 456.121 803.865 436.889 827.213 413.528C869.073 371.651 918.74 325.648 978.988 309.146V308.838C952.425 316.08 926.196 329.356 898.838 349.413C872.206 368.935 847.486 392.706 826.818 413.387C803.473 436.744 783.873 455.972 764.118 473.894C737.62 497.928 706.13 521.522 667.84 546.034C644.544 560.946 618.385 576.169 588.632 587.993H589.631H589.627Z" fill="url(#paint11_radial_0_1)"/>
<path d="M227.201 538.296C233.727 540.98 240.384 543.742 246.825 546.416C282.411 561.172 318.678 576.215 354.868 587.996H355.867C319.441 576.183 282.921 561.041 247.094 546.182C240.654 543.512 233.992 540.75 227.466 538.062C216.228 533.438 204.097 528.693 191.407 523.965C147.622 507.655 108.043 495.951 70.3968 488.189C46.0202 483.161 22.696 479.829 0 478.136V478.405C57.7843 482.69 119.762 497.612 191.154 524.206C203.84 528.933 215.963 533.672 227.193 538.296H227.201Z" fill="url(#paint12_radial_0_1)"/>
<path d="M546.348 587.993C561.616 585.255 576.733 581.325 591.92 576.151C617.438 567.454 643.675 555.127 674.493 537.358C714.741 514.146 747.276 491.663 773.957 468.628C792.819 452.343 813.002 433.277 837.468 408.624C881.612 364.154 925.715 322.772 978.988 304.454V304.107C925.499 322.422 881.286 363.899 837.04 408.471C812.578 433.118 792.403 452.176 773.545 468.455C746.884 491.476 714.374 513.941 674.15 537.139C636.68 558.75 595.322 579.25 544.643 587.993H546.352H546.348Z" fill="url(#paint13_radial_0_1)"/>
<path d="M236.705 518.243C247.254 522.535 258.018 527.004 268.428 531.327C323.667 554.26 380.676 577.925 436.009 587.993H437.812C382.035 578.109 324.475 554.224 268.718 531.076C258.308 526.752 247.539 522.283 236.991 517.991C225.712 513.402 213.52 508.753 200.752 504.17C127.961 478.044 61.8756 464.499 0.00405884 463.097V463.401C61.7858 464.807 127.781 478.338 200.491 504.433C213.25 509.011 225.43 513.657 236.705 518.243Z" fill="url(#paint14_radial_0_1)"/>
<path d="M978.988 300.01C958.282 308.689 937.418 321.615 915.558 339.303C892.887 357.646 872.096 378.368 847.266 403.556C824.117 427.038 803.09 446.489 782.984 463.019C755.887 485.296 722.352 506.632 680.472 528.247C614.889 562.089 564.529 575.758 506.646 575.418C486.186 575.298 469.213 573.927 453.239 571.102C399.395 561.583 343.45 538.201 289.354 515.591C275.309 509.72 260.784 503.65 246.523 497.917C235.188 493.36 222.934 488.802 210.109 484.372C168.486 469.995 127.74 459.843 89.0095 454.191C58.7427 449.775 28.9246 447.998 0.0120544 448.865V449.163C65.9219 447.084 134.879 458.773 209.828 484.655C222.644 489.082 234.886 493.636 246.217 498.19C260.47 503.919 274.995 509.989 289.035 515.86C343.169 538.484 399.146 561.88 453.076 571.413C469.098 574.246 486.116 575.624 506.63 575.744C537.782 575.925 567.523 571.757 597.557 562.999C623.28 555.499 649.737 544.532 680.819 528.491C722.736 506.862 756.294 485.505 783.42 463.207C803.542 446.666 824.578 427.204 847.735 403.716C887.649 363.226 928.831 321.476 978.996 300.4V300.01H978.988Z" fill="url(#paint15_radial_0_1)"/>
<path d="M978.988 296.614C936.341 318.003 900.51 354.636 862.844 393.163L857.488 398.638C835.257 421.347 813.365 441.177 792.415 457.58C764.669 479.305 730.119 499.51 686.787 519.351C622.015 549.012 569.958 560.722 512.716 558.516C492.211 557.727 475.556 555.917 460.308 552.829C410.662 542.772 359.029 520.941 309.096 499.829C291.72 492.481 273.747 484.882 256.04 477.849C244.635 473.32 232.32 468.855 219.442 464.581C143.429 439.347 69.7156 429.587 0.00405884 435.469V435.82C69.6095 429.934 143.225 439.679 219.153 464.885C232.018 469.156 244.321 473.618 255.714 478.14C273.417 485.169 291.381 492.765 308.758 500.112C358.723 521.239 410.388 543.084 460.112 553.155C475.409 556.254 492.109 558.067 512.667 558.86C543.684 560.057 573.303 557.111 603.211 549.855C629.198 543.548 655.863 533.944 687.134 519.624C730.506 499.765 765.093 479.535 792.871 457.785C813.838 441.372 835.747 421.528 857.99 398.808L863.346 393.333C900.881 354.944 936.586 318.431 978.992 297.057V296.611L978.988 296.614Z" fill="url(#paint16_radial_0_1)"/>
<path d="M978.988 294.064C943.545 315.102 912.923 346.856 880.837 380.146C876.497 384.65 872.128 389.183 867.715 393.723C845.904 416.159 823.742 435.816 801.85 452.141C773.284 473.441 737.718 492.517 693.11 510.456C628.468 536.452 576.334 545.768 518.79 541.611C497.962 540.106 482.107 537.928 467.381 534.553C421.655 524.072 374.089 503.629 328.085 483.862C307.64 475.077 286.498 465.99 265.561 457.778C254.078 453.274 241.702 448.904 228.783 444.786C150.718 419.909 73.8028 412.583 0.00405884 422.944V423.323C73.6968 412.954 150.51 420.27 228.486 445.115C241.392 449.226 253.747 453.593 265.218 458.093C286.144 466.302 307.281 475.385 327.722 484.17C373.754 503.951 421.353 524.408 467.153 534.904C481.927 538.289 497.823 540.471 518.704 541.979C549.628 544.214 579.128 542.496 608.893 536.728C635.211 531.629 662.076 523.378 693.444 510.761C738.102 492.8 773.72 473.699 802.323 452.367C824.236 436.025 846.414 416.354 868.241 393.9C872.655 389.36 877.023 384.827 881.363 380.323C913.298 347.189 943.786 315.577 978.984 294.574V294.061L978.988 294.064Z" fill="url(#paint17_radial_0_1)"/>
<path d="M978.988 292.457C950.226 312.432 924.65 339.497 897.961 367.762C891.459 374.646 884.732 381.768 877.941 388.807C856.448 411.074 834.025 430.554 811.288 446.705C781.772 467.668 745.191 485.615 699.44 501.561C635.105 523.99 582.896 530.913 524.872 524.709C510.831 523.208 492.41 520.895 474.462 516.281C432.423 505.481 390.645 487.159 346.416 467.761C323.141 457.555 299.074 446.999 275.089 437.707C263.525 433.227 251.092 428.95 238.133 424.991C158.285 400.599 78.4038 395.95 0.717736 411.17C0.481149 411.216 0.248641 411.265 0.0120544 411.311V411.726C0.309827 411.665 0.6076 411.602 0.905373 411.545C78.4242 396.357 158.138 401 237.831 425.341C250.77 429.293 263.186 433.564 274.734 438.04C298.707 447.325 322.765 457.877 346.032 468.079C390.295 487.488 432.101 505.824 474.205 516.639C492.214 521.267 510.676 523.587 524.753 525.091C582.941 531.313 635.284 524.376 699.766 501.894C745.583 485.923 782.225 467.948 811.79 446.949C834.551 430.78 856.999 411.283 878.512 388.995C885.307 381.955 892.034 374.834 898.536 367.947C925.062 339.862 950.479 312.956 979 293.041V292.45L978.988 292.457Z" fill="url(#paint18_radial_0_1)"/>
<path d="M978.988 291.94C956.418 310.095 935.754 332.55 914.281 355.886C905.85 365.05 897.133 374.53 888.163 383.889C866.923 406.049 844.235 425.352 820.723 441.262C790.151 461.946 752.55 478.759 705.771 492.665C641.905 511.646 589.623 516.175 530.954 507.807C516.036 505.679 498.504 502.853 481.544 498.009C442.988 486.996 404.69 469.79 364.144 451.574C338.258 439.945 311.491 427.919 284.614 417.639C272.964 413.181 260.466 408.996 247.478 405.199C168.951 382.239 89.3236 379.817 10.8094 397.997C7.20348 398.832 3.60165 399.728 0.0120544 400.674V401.12C3.66691 400.157 7.34624 399.243 11.0419 398.386C89.3684 380.249 168.813 382.667 247.164 405.575C260.131 409.367 272.605 413.546 284.234 417.994C311.091 428.266 337.846 440.289 363.723 451.914C404.298 470.144 442.621 487.361 481.238 498.388C498.256 503.246 515.832 506.083 530.782 508.215C589.623 516.607 642.043 512.067 706.064 493.041C752.929 479.114 790.603 462.268 821.233 441.539C844.778 425.607 867.498 406.279 888.758 384.094C897.732 374.732 906.453 365.252 914.885 356.084C936.17 332.95 956.663 310.68 978.988 292.627V291.94Z" fill="url(#paint19_radial_0_1)"/>
<path d="M978.988 292.659C962.153 308.19 946.265 326.016 929.859 344.43C919.776 355.748 909.35 367.447 898.389 378.97C877.37 401.063 854.413 420.193 830.163 435.82C798.88 455.979 759.162 472.109 712.106 483.763C648.851 499.433 596.492 501.564 537.036 490.899C521.384 488.09 504.688 484.797 488.625 479.73C453.374 468.611 418.387 452.452 381.345 435.345C353.04 422.271 323.773 408.755 294.134 397.565C282.391 393.131 269.835 389.038 256.815 385.397C179.41 363.772 100.039 363.573 20.897 384.817C13.8687 386.704 6.90163 388.79 0.0120544 391.063V391.559C6.99544 389.25 14.0563 387.129 21.1825 385.217C100.121 364.027 179.296 364.222 256.501 385.794C269.497 389.424 282.024 393.51 293.743 397.933C323.349 409.112 352.604 422.625 380.896 435.692C417.963 452.814 452.974 468.982 488.278 480.119C504.395 485.201 521.131 488.505 536.815 491.32C567.649 496.851 596.843 498.859 626.07 497.457C653.302 496.154 681.533 491.805 712.371 484.167C759.525 472.488 799.333 456.319 830.689 436.114C854.984 420.458 877.973 401.304 899.022 379.179C909.99 367.653 920.42 355.946 930.504 344.628C946.706 326.441 962.398 308.831 978.996 293.448V292.659H978.988Z" fill="url(#paint20_radial_0_1)"/>
<path d="M978.988 294.776C967.436 306.859 956.223 319.925 944.724 333.329C933.257 346.693 921.404 360.514 908.612 374.055C887.784 396.106 864.562 415.058 839.598 430.38C807.108 450.321 766.345 465.289 718.441 474.868C656.74 487.209 602.668 486.939 543.114 474C528.563 470.838 511.696 466.999 495.698 461.461C463.604 450.342 431.775 435.182 398.078 419.127C367.525 404.573 335.937 389.526 303.651 377.494C291.809 373.081 279.189 369.08 266.148 365.602C189.681 345.22 110.559 347.252 30.9765 371.644C20.5953 374.824 10.2466 378.499 0.00405884 382.593V383.131C10.2915 379.006 20.7462 375.295 31.311 372.054C110.678 347.73 189.579 345.701 265.83 366.027C278.842 369.494 291.426 373.485 303.239 377.887C335.492 389.905 367.064 404.948 397.596 419.491C431.314 435.554 463.164 450.728 495.307 461.861C511.358 467.421 528.258 471.266 542.84 474.436C602.562 487.414 656.789 487.683 718.665 475.307C766.688 465.7 807.556 450.692 840.136 430.699C865.149 415.345 888.412 396.361 909.272 374.275C922.073 360.723 933.93 346.902 945.401 333.53C956.675 320.386 967.677 307.563 978.988 295.686V294.773V294.776Z" fill="url(#paint21_radial_0_1)"/>
<path d="M978.988 298.42C972.302 306.221 965.665 314.302 958.915 322.521C946.326 337.851 933.306 353.704 918.838 369.136C898.181 391.169 874.698 409.941 849.036 424.938C815.278 444.665 773.471 458.472 724.779 465.972C663.866 475.353 609.717 472.619 549.199 457.102C534.033 453.214 517.962 448.936 502.783 443.189C473.704 432.179 444.897 417.983 414.402 402.951C381.769 386.867 348.023 370.234 313.179 357.419C301.248 353.031 288.57 349.122 275.493 345.804C199.789 326.59 120.92 330.853 41.0721 358.467C27.3052 363.23 13.5546 368.857 0.0120544 375.234V375.773C13.5301 369.42 27.3745 363.757 41.4596 358.888C121.075 331.353 199.708 327.1 275.171 346.254C288.211 349.565 300.853 353.46 312.751 357.837C347.55 370.634 381.276 387.256 413.888 403.33C444.404 418.369 473.23 432.576 502.351 443.599C517.578 449.364 533.686 453.649 548.877 457.548C609.566 473.108 663.874 475.852 724.967 466.44C773.798 458.918 815.726 445.073 849.591 425.281C875.31 410.253 898.842 391.439 919.535 369.367C934.016 353.924 947.04 338.063 959.637 322.726C966.147 314.801 972.551 307.004 978.992 299.461V298.416L978.988 298.42Z" fill="url(#paint22_radial_0_1)"/>
<path d="M978.987 303.633C976.822 306.391 974.651 309.164 972.465 311.962C958.996 329.196 945.07 347.019 929.06 364.222C908.562 386.247 884.814 404.845 858.475 419.499C823.885 438.745 779.847 451.737 731.126 457.081C671.033 463.667 616.802 458.465 555.285 440.207C538.993 435.374 524.329 430.883 509.865 424.924C483.685 414.134 457.775 400.883 430.343 386.856C395.768 369.179 360.019 350.896 322.7 337.355C310.663 332.989 297.919 329.171 284.834 326.016C209.726 307.903 131.105 314.394 51.1554 345.305C33.7867 352.019 16.6668 360.001 0.0078125 369.052V369.724C16.8014 360.567 34.0722 352.5 51.596 345.726C131.301 314.911 209.664 308.438 284.507 326.487C297.556 329.632 310.255 333.435 322.255 337.791C359.522 351.314 395.246 369.579 429.792 387.246C457.24 401.283 483.163 414.538 509.379 425.342C523.888 431.323 538.581 435.816 554.898 440.66C616.586 458.968 670.972 464.184 731.253 457.576C780.132 452.219 824.321 439.177 859.03 419.867C885.438 405.175 909.243 386.534 929.782 364.462C945.808 347.242 959.738 329.412 973.216 312.17C975.145 309.699 977.066 307.248 978.979 304.805V303.633H978.987Z" fill="url(#paint23_radial_0_1)"/>
<path d="M978.988 310.279C966.836 326.632 954.081 343.29 939.286 359.306C918.935 381.339 894.922 399.76 867.918 414.059C822.506 438.104 771.917 445.891 737.473 448.189C678.188 452.144 623.875 444.471 561.375 423.312C547.539 418.627 531.855 413.319 516.95 406.655C493.561 396.198 470.436 383.896 445.954 370.872C409.576 351.519 371.963 331.508 332.225 317.287C320.09 312.942 307.285 309.22 294.175 306.225C254.91 297.248 214.021 295.442 172.651 300.856C135.927 305.662 98.4485 316.186 61.2473 332.139C40.55 341.013 19.9996 351.831 0.0162048 364.239V364.99C20.1546 352.447 40.8764 341.516 61.745 332.571C141.385 298.42 219.479 289.723 293.853 306.724C306.918 309.709 319.678 313.417 331.772 317.748C371.441 331.947 409.026 351.941 445.374 371.279C469.869 384.31 493.006 396.619 516.428 407.09C531.378 413.772 547.086 419.091 560.943 423.783C623.614 444.998 678.082 452.689 737.559 448.723C772.125 446.418 822.906 438.603 868.498 414.463C895.579 400.125 919.657 381.654 940.057 359.568C954.55 343.878 967.077 327.588 978.996 311.568V310.286L978.988 310.279Z" fill="url(#paint24_radial_0_1)"/>
<path d="M978.987 317.985C969.989 330.28 960.375 342.539 949.508 354.391C929.296 376.438 905.022 394.682 877.357 408.617C830.179 432.381 778.696 438.415 743.82 439.293C685.29 440.767 630.895 430.625 567.457 406.41C553.123 400.939 538.3 395.281 524.027 388.383C503.33 378.375 482.894 367.033 461.254 355.025C423.196 333.906 383.841 312.071 341.741 297.209C329.504 292.892 316.642 289.263 303.508 286.423C264.287 277.945 223.374 277.056 181.898 283.781C145.403 289.698 108.201 301.536 71.3265 318.959C47.2517 330.336 23.2994 344.37 0.0078125 360.599V361.431C23.4748 345.028 47.6148 330.857 71.8772 319.391C151.313 281.855 229.134 270.934 303.181 286.94C316.267 289.769 329.08 293.385 341.268 297.687C383.287 312.517 422.605 334.334 460.626 355.436C482.278 367.451 502.726 378.797 523.448 388.818C537.753 395.738 552.601 401.403 566.955 406.881C630.556 431.159 685.11 441.326 743.833 439.846C778.855 438.964 830.55 432.902 877.928 409.038C905.682 395.058 930.034 376.757 950.299 354.65C960.844 343.148 970.213 331.264 978.979 319.341V317.985H978.987Z" fill="url(#paint25_radial_0_1)"/>
<path d="M978.987 326.129C973.016 334.04 966.661 341.859 959.734 349.473C939.657 371.544 915.117 389.611 886.8 403.174C837.81 426.637 785.46 430.929 750.171 430.402C692.301 429.534 637.829 416.924 573.547 389.516L573.18 389.36C559.266 383.429 544.883 377.295 531.112 370.114C513.018 360.673 495.164 350.315 476.265 339.352C436.645 316.367 395.679 292.598 351.262 277.138C338.922 272.842 325.996 269.305 312.845 266.628C273.645 258.639 232.703 258.667 191.145 266.713C154.825 273.742 117.906 286.89 81.41 305.793C54.227 319.872 26.9134 337.564 0.0078125 358.41V359.331C27.1133 338.268 54.6349 320.41 82.0178 306.228C161.111 265.264 238.663 252.123 312.519 267.177C325.612 269.847 338.486 273.367 350.772 277.644C395.091 293.069 436.017 316.813 475.596 339.777C494.507 350.747 512.365 361.109 530.48 370.56C544.284 377.759 558.687 383.9 572.617 389.838L572.98 389.994C637.421 417.469 692.053 430.111 750.118 430.982C785.57 431.514 838.157 427.2 887.371 403.627C915.79 390.015 940.416 371.888 960.554 349.745C967.162 342.479 973.248 335.035 978.979 327.503V326.133L978.987 326.129Z" fill="url(#paint26_radial_0_1)"/>
<path d="M978.987 333.994C976.091 337.557 973.097 341.084 969.956 344.561C950.01 366.661 925.209 384.551 896.243 397.735C856.582 415.791 806.96 424.233 756.518 421.513C699.183 418.422 644.629 403.344 579.633 372.625L579.344 372.49C565.732 366.056 551.651 359.405 538.198 351.849C522.62 343.102 507.266 333.768 491.015 323.884C449.947 298.912 407.484 273.09 360.786 257.07C348.333 252.8 335.345 249.358 322.182 246.833C282.986 239.326 242.008 240.268 200.38 249.641C164.199 257.786 127.565 272.248 91.4975 292.627C61.4755 309.589 31.1312 331.129 0.0078125 357.61V358.63C31.3678 331.873 61.9324 310.138 92.1624 293.059C146.223 262.513 229.958 229.8 321.864 247.406C334.962 249.914 347.888 253.345 360.28 257.594C406.864 273.575 449.282 299.369 490.305 324.313C506.565 334.2 521.922 343.538 537.517 352.295C551.002 359.866 565.095 366.527 578.728 372.968L579.017 373.106C644.168 403.896 698.881 419.013 756.412 422.115C807.099 424.849 856.966 416.361 896.827 398.216C925.906 384.976 950.805 367.022 970.821 344.844C973.648 341.714 976.356 338.545 978.987 335.347V334.001V333.994Z" fill="url(#paint27_radial_0_1)"/>
<path d="M978.987 340.939C959.355 362.462 934.713 379.742 905.686 392.292C864.557 410.076 813.838 417.296 762.874 412.625C705.917 407.402 651.282 389.856 585.723 355.73C573.025 349.122 558.638 341.633 545.287 333.58C532.144 325.655 519.21 317.394 505.516 308.647C463.11 281.557 419.256 253.543 370.307 236.999C357.751 232.753 344.702 229.403 331.515 227.038C239.062 210.451 155.445 246.39 101.581 279.457C65.4077 301.664 31.4983 329.15 0.0078125 358.07V359.186C31.7064 330.011 65.8564 302.259 102.303 279.886C155.967 246.943 239.242 211.131 331.205 227.629C344.319 229.981 357.299 233.316 369.789 237.537C418.607 254.039 462.404 282.018 504.762 309.075C518.459 317.826 531.398 326.091 544.549 334.023C557.928 342.089 572.332 349.586 585.038 356.201C650.748 390.405 705.538 407.993 762.694 413.234C813.927 417.93 864.916 410.671 906.27 392.791C934.986 380.376 959.424 363.354 978.983 342.199V340.939H978.987Z" fill="url(#paint28_radial_0_1)"/>
<path d="M978.987 346.463C961.239 363.159 939.828 376.715 915.134 386.849C872.515 404.343 820.699 410.341 769.225 403.737C712.473 396.456 657.756 376.442 591.809 338.839C577.643 330.761 564.899 323.417 552.369 315.315C541.588 308.346 530.496 300.885 519.769 293.671C476.13 264.323 431.004 233.971 379.823 216.924C367.154 212.707 354.044 209.449 340.848 207.239C248.175 191.733 165.064 230.792 111.665 266.288C71.8731 292.74 35.1817 325.559 0.0078125 359.809V361.017C35.4265 326.477 72.3707 293.353 112.444 266.713C165.639 231.351 248.395 192.438 340.542 207.856C353.66 210.051 366.697 213.291 379.293 217.487C430.322 234.481 475.388 264.794 518.969 294.103C529.701 301.32 540.792 308.781 551.581 315.757C564.133 323.874 576.892 331.225 591.067 339.31C657.16 376.994 712.032 397.058 768.98 404.364C820.74 411.003 872.85 404.969 915.713 387.377C940.122 377.359 961.329 364.02 978.983 347.624V346.463H978.987Z" fill="url(#paint29_radial_0_1)"/>
<path d="M978.987 350.464C963.377 363.017 945.18 373.386 924.581 381.407C880.453 398.585 827.539 403.358 775.58 394.849C718.848 385.557 664.05 363.074 597.895 321.944C586.135 314.631 572.499 306.076 559.454 297.046C551.051 291.232 542.42 285.109 534.074 279.192C489.2 247.371 442.796 214.463 389.344 196.853C376.458 192.643 363.283 189.477 350.185 187.445C310.899 181.34 269.802 185.033 228.033 198.415C192.027 209.952 156.269 228.359 121.756 253.125C77.8979 284.592 38.2614 323.884 0.0078125 362.405V363.683C38.5307 324.887 78.4322 285.229 122.584 253.547C175.249 215.756 257.435 173.726 349.887 188.089C362.899 190.111 375.993 193.256 388.801 197.441C442.078 214.995 488.417 247.856 533.225 279.631C541.575 285.552 550.207 291.674 558.614 297.492C571.675 306.533 585.323 315.099 597.096 322.415C663.389 363.63 718.338 386.169 775.266 395.493C827.531 404.052 880.763 399.247 925.156 381.966C945.49 374.052 963.487 363.86 978.983 351.555V350.468L978.987 350.464Z" fill="url(#paint30_radial_0_1)"/>
<path d="M978.988 353.042C965.657 362.16 950.646 369.834 934.028 375.964C889.04 392.561 833.605 396.205 781.931 385.964C725.032 374.685 670.152 349.731 603.981 305.056C588.603 294.67 577.055 286.568 566.535 278.784C560.335 274.195 553.976 269.425 547.829 264.811C501.955 230.398 454.52 194.814 398.865 176.782C385.816 172.579 372.575 169.509 359.518 167.65C320.208 161.962 279.066 166.559 237.247 181.308C201.249 194.003 165.786 213.734 131.84 239.959C93.574 269.524 59.0364 304.982 25.6409 339.274C17.2176 347.922 8.67602 356.686 0.0120544 365.425V366.746C9.01051 357.681 17.8784 348.584 26.6158 339.611C59.995 305.339 94.5121 269.9 132.729 240.374C175.408 207.399 261.591 154.193 359.232 168.319C372.2 170.164 385.347 173.216 398.31 177.391C453.765 195.359 501.127 230.891 546.935 265.25C553.087 269.864 559.446 274.634 565.65 279.227C576.178 287.018 587.738 295.13 603.129 305.52C669.434 350.291 724.461 375.302 781.556 386.619C833.544 396.924 889.329 393.255 934.603 376.548C950.972 370.51 965.792 362.989 978.988 354.073V353.042Z" fill="url(#paint31_radial_0_1)"/>
<path d="M978.987 354.338C968.145 360.609 956.304 366.024 943.475 370.521C896.892 386.743 840.327 389.133 788.282 377.079C714.908 360.082 654.497 320.634 610.067 288.165C597.112 278.699 584.85 269.397 573.621 260.519C569.529 257.286 565.426 254.021 561.302 250.742C514.551 213.567 466.21 175.128 408.385 156.711C395.299 152.557 381.998 149.579 368.851 147.855C269.941 134.767 184.219 191.694 141.923 226.794C109.437 253.752 80.121 284.843 51.7673 314.915C35.039 332.656 17.9231 350.801 0.0078125 368.28V369.618C18.2984 351.831 35.7406 333.332 52.783 315.258C81.1204 285.208 110.42 254.131 142.865 227.204C184.986 192.25 270.32 135.549 368.573 148.549C381.618 150.259 394.822 153.219 407.818 157.341C465.423 175.684 513.687 214.063 560.359 251.181C564.487 254.46 568.591 257.725 572.682 260.958C583.92 269.843 596.19 279.149 609.153 288.625C653.673 321.161 714.214 360.691 787.838 377.745C840.213 389.877 897.145 387.469 944.042 371.137C956.638 366.725 968.292 361.435 978.983 355.319V354.345L978.987 354.338Z" fill="url(#paint32_radial_0_1)"/>
<path d="M978.987 354.643C922.504 382.168 850.076 382.837 794.633 368.195C711.975 346.367 642.969 294.766 580.706 242.254L574.51 237.02C516.575 188.078 456.665 137.476 378.184 128.056C338.694 123.318 297.454 129.756 255.611 147.192C220.017 162.026 184.191 184.998 152.011 213.628C123.869 238.66 98.534 266.667 74.035 293.749C50.6741 319.571 26.6238 346.14 0.0078125 370.287V371.598C27.0521 347.182 51.4246 320.248 75.0956 294.086C99.5823 267.017 124.901 239.032 153.01 214.024C185.104 185.472 220.817 162.568 256.284 147.787C297.842 130.468 338.767 124.072 377.923 128.771C455.947 138.138 515.718 188.627 573.519 237.452L579.715 242.686C642.072 295.279 711.208 346.966 794.128 368.864C836.562 380.068 883.043 381.612 925.009 373.202C944.686 369.261 962.785 363.287 978.987 355.468V354.636V354.643Z" fill="url(#paint33_radial_0_1)"/>
<path d="M978.988 337.914C921.624 367.426 845.688 368.319 788.462 353.421C748.116 342.932 707.786 325.032 665.168 298.7C630.549 277.393 598.348 252.768 574.159 233.692L567.572 228.49C540.723 207.264 512.957 185.316 482.992 167.239C444.979 144.119 408.855 130.995 372.551 127.121C326.429 122.171 278.051 132.036 228.767 156.442C200.483 170.38 172.953 188.553 146.941 210.448C118.612 234.244 92.946 260.707 68.1288 286.299C46.4281 308.672 24.1481 331.629 0.00405884 352.883V354.161C24.5561 332.642 47.1623 309.352 69.169 286.66C93.9739 261.082 119.623 234.637 147.916 210.869C173.863 189.028 201.319 170.904 229.518 157.009C278.508 132.748 326.551 122.936 372.31 127.847C408.365 131.693 444.281 144.753 482.123 167.767C512.035 185.816 539.773 207.742 566.601 228.95L573.189 234.152C597.394 253.242 629.627 277.892 664.287 299.224C707.015 325.623 747.467 343.577 787.956 354.101C830.02 365.05 876.028 366.856 917.504 359.175C940.216 354.972 960.881 348.113 978.984 338.871V337.918L978.988 337.914Z" fill="url(#paint34_radial_0_1)"/>
<path d="M978.987 321.48C921.379 353.127 843.252 354.285 782.29 338.64C742.421 328.438 702.099 311.267 659.02 286.147C624.552 266.203 593.473 244.106 567.616 225.119L562.574 221.411C535.171 201.248 506.834 180.401 476.485 163.206C437.824 141.297 403.009 129.529 366.925 126.172C321.631 121.902 273.629 131.714 224.255 155.341C195.779 168.967 168.062 186.435 141.878 207.257C113.431 229.786 87.5 254.669 62.4218 278.739C42.3854 297.967 21.8676 317.649 0.0078125 336.162V337.401C22.2551 318.633 43.0992 298.643 63.4457 279.117C88.5076 255.066 114.426 230.193 142.837 207.693C168.959 186.921 196.599 169.502 224.994 155.911C274.085 132.419 321.766 122.66 366.713 126.898C402.548 130.234 437.163 141.945 475.645 163.751C505.936 180.915 534.249 201.744 561.628 221.889L566.67 225.597C592.552 244.598 623.659 266.716 658.168 286.685C701.349 311.866 741.789 329.083 781.792 339.32C823.481 350.018 869.015 352.079 910.006 345.131C935.843 340.751 959.09 333.006 978.987 322.284V321.487V321.48Z" fill="url(#paint35_radial_0_1)"/>
<path d="M978.988 304.837C920.783 338.453 838.985 339.759 776.119 323.867C736.723 313.948 697.56 297.977 652.873 273.6C617.369 254.234 585.16 232.941 561.069 216.553L556.937 213.737C529.204 194.835 500.528 175.288 469.975 159.186C431.367 138.839 396.833 128.049 361.3 125.234C316.749 121.622 269.121 131.385 219.748 154.246C191.17 167.48 163.269 184.243 136.82 204.07C108.34 225.289 82.2219 248.564 56.9601 271.072C38.5594 287.467 19.763 304.213 0.0120544 320.173V321.377C20.1301 305.173 39.2487 288.144 57.9554 271.472C83.2009 248.975 109.307 225.717 137.754 204.523C164.142 184.739 191.974 168.018 220.47 154.824C269.574 132.086 316.896 122.376 361.117 125.96C396.409 128.754 430.743 139.49 469.168 159.742C499.663 175.815 528.314 195.345 556.019 214.23L560.152 217.045C584.263 233.444 616.5 254.754 652.049 274.146C696.838 298.579 736.107 314.592 775.633 324.54C816.946 334.982 862.008 337.305 902.517 331.076C931.56 326.611 957.43 317.999 978.992 305.754V304.83L978.988 304.837Z" fill="url(#paint36_radial_0_1)"/>
<path d="M978.988 288.243C926.808 319.575 846.568 328.159 769.943 309.09C731.387 299.546 692.232 284.28 646.718 261.05C610.875 242.757 578.613 223.082 554.514 207.987L551.638 206.181C523.472 188.496 494.344 170.206 463.461 155.163C424.897 136.381 390.645 126.572 355.671 124.295C311.874 121.342 264.626 131.052 215.233 153.156C186.85 165.858 158.762 181.917 131.754 200.89C103.633 220.643 77.6043 242.098 52.4364 262.846C35.4062 276.883 18.0498 291.186 0.0120544 304.964V306.133C18.4046 292.12 36.0711 277.559 53.4072 263.267C78.5629 242.53 104.575 221.089 132.668 201.358C159.618 182.43 187.633 166.407 215.942 153.736C265.075 131.75 312.033 122.086 355.516 125.021C390.258 127.284 424.314 137.044 462.694 155.737C493.524 170.752 522.624 189.024 550.766 206.694L553.641 208.5C577.761 223.607 610.051 243.299 645.935 261.614C691.547 284.893 730.8 300.194 769.474 309.769C810.411 319.957 855.004 322.535 895.032 317.032C927.375 312.585 955.912 303.126 979 289.341V288.246L978.988 288.243Z" fill="url(#paint37_radial_0_1)"/>
<path d="M978.987 272.01C926.8 305.198 844.484 314.083 763.771 294.316C725.689 285.049 687.692 270.92 640.566 248.501C612.331 235.069 583.769 219.931 547.959 199.417L546.833 198.773C518.076 182.253 488.343 165.167 456.942 151.141C418.534 133.984 384.563 125.156 350.038 123.354C306.889 121.105 260.013 130.762 210.717 152.058C182.318 164.328 154.046 179.682 126.688 197.703C98.8725 216.021 72.9581 235.735 47.9003 254.797C31.7431 267.088 16.0182 279.047 0.0078125 290.538V291.664C16.3445 279.964 32.3672 267.775 48.8426 255.247C73.8881 236.192 99.7862 216.489 127.573 198.192C154.874 180.214 183.081 164.891 211.41 152.653C260.457 131.463 307.057 121.849 349.907 124.087C384.204 125.875 417.983 134.66 456.208 151.736C487.552 165.737 517.26 182.806 545.989 199.311L547.115 199.959C582.954 220.49 611.54 235.643 639.808 249.089C687.023 271.55 725.11 285.711 763.298 295.003C803.86 304.939 847.98 307.772 887.534 302.981C923.275 298.654 954.525 288.388 978.987 273.059V272.017V272.01Z" fill="url(#paint38_radial_0_1)"/>
<path d="M978.988 255.891C927.265 290.35 841.229 299.684 757.6 279.539C710.372 268.246 666.959 250.314 634.416 235.951C605.899 223.366 577.211 209.453 541.404 190.844C513.834 176.467 482.588 160.167 450.425 147.111C412.065 131.537 378.376 123.686 344.405 122.408C302.019 120.811 255.522 130.415 206.202 150.957C177.791 162.791 149.335 177.444 121.622 194.509C94.3165 211.326 68.7081 229.24 43.9399 246.571C29.1083 256.946 14.6235 267.077 0.00405884 276.858V277.942C14.9376 267.97 29.712 257.633 44.8495 247.042C69.6014 229.722 95.1976 211.818 122.474 195.015C150.131 177.983 178.529 163.361 206.871 151.555C255.958 131.109 302.195 121.548 344.299 123.134C378.049 124.405 411.547 132.217 449.731 147.716C481.833 160.748 513.055 177.03 540.597 191.396C576.432 210.019 605.14 223.943 633.681 236.539C666.281 250.923 709.773 268.891 757.123 280.212C840.752 300.361 926.812 291.168 978.98 256.957V255.884L978.988 255.891Z" fill="url(#paint39_radial_0_1)"/>
<path d="M978.988 240.08C977.887 240.823 976.757 241.574 975.578 242.35C924.185 276.047 836.2 284.843 751.428 264.762C706.566 254.227 665.722 238.656 628.264 223.401C599.433 211.659 570.623 198.974 534.849 182.274C503.253 167.458 474.597 154.285 443.91 143.088C405.579 129.104 372.171 122.234 338.78 121.47C296.598 120.499 251.761 129.788 201.694 149.866C173.279 161.261 144.636 175.21 116.568 191.329C90.0333 206.563 64.9837 222.619 40.758 238.15C27.0033 246.967 13.5342 255.597 0.0120544 263.968V265.002C13.8279 256.465 27.5785 247.654 41.6309 238.649C65.8485 223.128 90.8859 207.08 117.396 191.857C145.415 175.769 173.997 161.849 202.355 150.479C252.197 130.492 296.798 121.243 338.711 122.206C371.894 122.967 405.118 129.805 443.27 143.726C473.904 154.901 502.531 168.064 534.099 182.866C569.897 199.576 598.728 212.268 627.579 224.021C665.094 239.301 706.007 254.892 750.971 265.452C791.354 275.017 833.414 278.267 872.605 274.85C914.143 271.228 950.055 260.162 976.471 242.845C977.336 242.279 978.172 241.723 978.996 241.171V240.087L978.988 240.08Z" fill="url(#paint40_radial_0_1)"/>
<path d="M978.987 224.984C975.692 227.123 971.984 229.4 967.627 231.96C915.195 262.8 829.987 269.709 745.256 249.984C700.941 239.772 660.122 225.051 622.109 210.851C593.278 200.083 563.464 188.277 528.286 173.705C499.752 161.824 469.233 149.36 437.383 139.066C398.534 126.509 366.387 120.79 333.146 120.528C291.797 120.202 247.323 129.441 197.182 148.768C168.768 159.721 139.941 172.968 111.505 188.139C86.1131 201.687 61.9691 215.802 38.6163 229.453C25.5837 237.07 12.7957 244.542 0.0078125 251.812V252.803C13.0772 245.385 26.1343 237.757 39.4485 229.973C62.789 216.33 86.9249 202.218 112.297 188.684C140.683 173.538 169.457 160.316 197.819 149.384C247.751 130.135 292.001 120.935 333.106 121.261C366.146 121.523 398.126 127.213 436.796 139.714C468.592 149.99 499.079 162.441 527.588 174.314C562.786 188.893 592.613 200.702 621.46 211.478C659.522 225.696 700.394 240.434 744.807 250.671C784.803 259.981 826.418 263.473 865.157 260.774C906.131 257.917 941.856 248.132 968.472 232.481C972.457 230.136 975.908 228.029 978.996 226.046V224.988L978.987 224.984Z" fill="url(#paint41_radial_0_1)"/>
<path d="M978.987 210.699C972.848 214.601 966.081 218.228 959.681 221.567C907.028 249.05 822.502 254.276 739.08 235.207C695.402 225.331 655.01 211.591 615.949 198.302C586.437 188.262 556.497 177.724 521.718 165.132C493.344 154.795 462.694 143.995 430.857 135.039C391.995 124.108 360.121 119.341 327.513 119.586C287.037 119.89 242.929 129.076 192.667 147.674C164.268 158.18 135.258 170.723 106.447 184.951C82.703 196.68 59.954 208.751 37.9555 220.427C25.1513 227.222 12.5673 233.901 0.0078125 240.406V241.355C12.8284 234.722 25.6693 227.909 38.7428 220.972C60.7372 209.3 83.474 197.232 107.202 185.515C135.972 171.307 164.933 158.786 193.287 148.294C243.35 129.77 287.253 120.62 327.505 120.319C359.926 120.074 391.636 124.819 430.331 135.705C462.119 144.646 492.732 155.436 521.082 165.762C555.868 178.354 585.821 188.9 615.341 198.939C654.443 212.239 694.875 225.997 738.636 235.891C822.469 255.052 907.469 249.772 960.464 222.112C966.591 218.914 973.048 215.451 978.987 211.733V210.696V210.699Z" fill="url(#paint42_radial_0_1)"/>
<path d="M978.987 197.335C976.511 198.783 973.991 200.214 971.413 201.62C965.482 204.856 958.992 207.863 951.739 211.177C898.911 235.313 815.061 238.862 732.909 220.434C694.692 211.96 658.441 200.766 623.385 189.944C618.833 188.539 614.305 187.14 609.794 185.755C574.485 174.912 543.529 165.362 515.151 156.566C490.774 148.952 458.423 139.165 424.326 131.02C398.13 124.759 362.814 117.698 321.88 118.651C282.329 119.571 238.585 128.708 188.16 146.583C159.806 156.633 130.612 168.471 101.393 181.771C80.0435 191.488 59.4156 201.375 39.4689 210.936C26.1547 217.317 13.0609 223.592 0.0078125 229.701V230.618C13.3056 224.4 26.6401 218.008 40.2072 211.506C60.1498 201.949 80.7696 192.066 102.107 182.352C131.289 169.069 160.442 157.246 188.755 147.21C239.005 129.398 282.558 120.297 321.904 119.38C362.614 118.435 397.775 125.467 423.865 131.7C457.913 139.834 490.228 149.611 514.584 157.217C542.962 166.017 573.922 175.564 609.231 186.41C613.742 187.795 618.27 189.194 622.818 190.6C657.907 201.432 694.19 212.632 732.472 221.121C815.004 239.634 899.299 236.046 952.457 211.758C959.734 208.433 966.244 205.416 972.212 202.158C974.513 200.901 976.764 199.626 978.987 198.333V197.335Z" fill="url(#paint43_radial_0_1)"/>
<path d="M978.988 185.118C974.077 187.668 969.043 190.153 963.818 192.558C958.213 195.136 952.254 197.473 945.943 199.948L943.802 200.787C890.843 221.595 807.671 223.461 726.738 205.66C693.934 198.532 662.394 189.665 631.895 181.092C622.594 178.478 612.976 175.773 603.635 173.213C567.776 163.372 535.457 154.947 508.58 148.003C474.862 139.211 446.015 132.536 417.796 127.001C391.531 121.848 356.255 116.14 316.251 117.712C277.153 119.249 235.02 128.077 183.648 145.489C155.376 155.071 125.999 166.208 96.3357 178.588C78.5264 186.021 61.1454 193.507 44.3355 200.745C29.3694 207.19 14.6602 213.525 0.00405884 219.676V220.558C14.8886 214.318 29.8222 207.884 45.0249 201.34C61.8307 194.102 79.2076 186.616 97.0087 179.19C126.639 166.824 155.98 155.702 184.22 146.13C235.424 128.775 277.394 119.979 316.3 118.449C356.104 116.884 391.237 122.571 417.4 127.702C445.579 133.23 474.393 139.894 508.082 148.68C534.959 155.624 567.266 164.048 603.117 173.885C612.454 176.449 622.068 179.151 631.369 181.764C661.892 190.345 693.456 199.219 726.309 206.358C807.589 224.237 891.178 222.342 944.45 201.407L946.588 200.568C952.919 198.086 958.899 195.741 964.54 193.146C969.512 190.858 974.305 188.5 978.988 186.081V185.129V185.118Z" fill="url(#paint44_radial_0_1)"/>
<path d="M978.987 174.126C971.641 177.384 964.103 180.518 956.23 183.493C951.299 185.355 946.131 187.041 940.66 188.826C939.078 189.343 937.479 189.863 935.868 190.394C882.044 208.16 801.56 208.341 720.565 190.879C693.162 185.047 666.481 178.188 640.681 171.552C625.78 167.72 611.707 164.101 597.475 160.659C560.184 151.637 526.862 144.576 502.004 139.43C471.289 133 441.605 127.617 411.265 122.975C383.258 118.693 349.397 114.607 310.618 116.771C272.625 118.892 230.847 127.667 179.137 144.391C151.036 153.478 121.479 163.91 91.2813 175.398C78.8565 180.125 66.5662 184.863 54.6797 189.442C36.2015 196.563 18.07 203.546 0.0078125 210.278V211.128C18.2821 204.325 36.6217 197.261 55.3161 190.058C67.1984 185.476 79.4887 180.741 91.9136 176.014C122.087 164.537 151.619 154.112 179.695 145.032C231.255 128.357 272.882 119.611 310.707 117.497C349.304 115.343 383.038 119.416 410.947 123.683C441.254 128.318 470.905 133.694 501.588 140.121C526.438 145.263 559.739 152.324 597.006 161.339C611.226 164.781 625.294 168.397 640.187 172.228C666.004 178.868 692.701 185.731 720.137 191.57C758.607 199.863 798.525 204.329 835.579 204.481C874.428 204.64 909.3 199.991 936.43 191.035C938.038 190.504 939.637 189.984 941.215 189.467C946.706 187.678 951.89 185.986 956.854 184.109C964.503 181.219 971.837 178.177 978.983 175.019V174.123L978.987 174.126Z" fill="url(#paint45_radial_0_1)"/>
<path d="M978.987 164.353C969.177 167.915 959.163 171.283 948.651 174.431C944.291 175.738 939.771 176.91 934.986 178.153C932.669 178.755 930.32 179.367 927.942 180.005C874.388 194.375 794.556 192.916 714.394 176.106C692.685 171.552 671.282 166.495 650.581 161.601C630.108 156.764 610.769 152.193 591.312 148.113C553.486 140.177 520.197 134.724 495.425 130.864C467.626 126.463 438.803 122.681 404.726 118.955C376.54 115.875 342.647 113.095 304.989 115.832C267.742 118.538 227.535 127.008 174.629 143.297C146.557 151.938 117.644 161.396 86.2315 172.214L74.8834 176.124C49.5279 184.863 24.7189 193.408 0.0078125 201.496V202.321C24.9147 194.173 49.9113 185.568 75.4668 176.757L86.8107 172.848C118.203 162.037 147.104 152.586 175.16 143.949C227.931 127.702 268.008 119.256 305.107 116.562C342.606 113.839 376.389 116.608 404.49 119.681C438.538 123.4 467.328 127.182 495.098 131.58C519.854 135.439 553.115 140.882 590.895 148.811C610.328 152.887 629.655 157.455 650.12 162.292C670.829 167.186 692.244 172.246 713.974 176.803C794.417 193.677 874.579 195.125 928.411 180.681C930.785 180.044 933.13 179.434 935.443 178.832C940.24 177.586 944.776 176.407 949.169 175.093C959.498 171.998 969.345 168.694 978.987 165.206V164.363V164.353Z" fill="url(#paint46_radial_0_1)"/>
<path d="M978.988 155.766C966.065 159.42 953.816 162.511 941.077 165.373C937.193 166.244 933.208 167.019 928.99 167.837C926.053 168.407 923.059 168.988 920.02 169.618C866.674 180.695 787.495 177.597 708.226 161.332C692.192 158.042 676.214 154.533 660.766 151.141C634.611 145.397 609.904 139.972 585.156 135.567C546.899 128.757 513.589 124.897 488.849 122.302C460.308 119.235 431.967 117.139 398.196 114.94C368.292 112.992 335.619 111.636 299.36 114.894C253.788 118.991 208.457 130.995 170.126 142.203C143.127 150.096 114.863 158.62 81.1859 169.031C54.1252 177.395 27.2114 185.592 0.0162048 193.323V194.123C27.395 186.347 54.4842 178.096 81.7202 169.679C115.389 159.271 143.645 150.748 170.636 142.858C208.886 131.679 254.11 119.699 299.515 115.616C335.639 112.369 368.219 113.722 398.041 115.666C431.787 117.865 460.104 119.958 488.617 123.021C513.328 125.616 546.593 129.469 584.793 136.268C609.504 140.666 634.195 146.088 660.33 151.828C675.785 155.22 691.767 158.729 707.818 162.023C787.332 178.337 866.801 181.435 920.396 170.309C923.431 169.679 926.417 169.098 929.345 168.531C933.575 167.71 937.573 166.934 941.485 166.056C954.097 163.223 966.224 160.167 978.996 156.566V155.766H978.988Z" fill="url(#paint47_radial_0_1)"/>
<path d="M978.987 148.23C964.16 151.268 949.292 153.906 933.506 156.318C930.026 156.849 926.49 157.306 922.749 157.788C919.298 158.234 915.729 158.694 912.099 159.232C859.169 167.058 780.646 162.32 702.05 146.555C691.783 144.494 681.459 142.366 671.478 140.305C639.449 133.694 609.194 127.447 578.989 123.024C548.84 118.605 519.006 115.744 482.261 113.743C455.303 112.21 429.025 111.678 401.202 111.119L391.649 110.924C363.348 110.34 330.112 110.046 293.718 113.959C250.594 118.594 206.658 129.749 165.606 141.109L141.687 147.734C118.803 154.073 97.1879 160.061 76.1276 165.847C48.7284 173.372 23.6175 179.916 0.0078125 185.656V186.439C23.7603 180.667 49.0302 174.084 76.6089 166.509C97.6733 160.723 119.288 154.735 142.172 148.396L166.092 141.771C207.07 130.429 250.916 119.299 293.906 114.678C330.181 110.779 363.344 111.073 391.579 111.654L401.137 111.848C428.94 112.408 455.201 112.939 482.123 114.469C518.81 116.47 548.587 119.324 578.679 123.732C608.831 128.148 639.061 134.391 671.062 140.996C681.047 143.056 691.371 145.188 701.643 147.249C780.442 163.057 859.217 167.802 912.36 159.944C915.974 159.409 919.535 158.949 922.978 158.506C926.73 158.021 930.279 157.561 933.779 157.026C949.467 154.632 964.25 152.012 978.987 148.998V148.23Z" fill="url(#paint48_radial_0_1)"/>
<path d="M978.987 141.686C962.798 143.821 945.637 145.617 925.939 147.263C922.814 147.525 919.669 147.731 916.333 147.95C912.405 148.209 908.342 148.474 904.177 148.846C851.235 153.559 775.311 147.338 695.875 131.774C691.502 130.917 687.141 130.06 682.793 129.203C644.682 121.696 608.688 114.607 572.821 110.474C542.399 106.969 512.434 105.333 475.674 105.177C453.002 105.028 431.097 105.641 407.912 106.292C400.394 106.501 392.807 106.717 385.106 106.905C353.468 107.677 322.239 108.725 288.085 113.013C246.091 118.286 202.326 129.242 161.099 140.007C129.698 148.209 99.411 155.829 71.0777 162.657C46.5583 168.563 22.9812 173.825 0.0078125 178.503V179.268C23.1199 174.565 46.8357 169.275 71.506 163.333C99.8515 156.502 130.151 148.882 161.56 140.677C202.73 129.922 246.429 118.987 288.309 113.725C322.37 109.447 353.546 108.403 385.13 107.631C392.836 107.443 400.427 107.231 407.945 107.018C431.114 106.37 452.998 105.754 475.637 105.903C512.324 106.059 542.22 107.687 572.572 111.186C608.362 115.312 644.323 122.394 682.397 129.894C686.746 130.751 691.106 131.608 695.479 132.465C775.086 148.06 851.21 154.292 904.328 149.565C908.468 149.197 912.519 148.928 916.439 148.673C919.78 148.453 922.937 148.244 926.078 147.982C945.714 146.339 962.834 144.551 978.987 142.422V141.679V141.686Z" fill="url(#paint49_radial_0_1)"/>
<path d="M978.987 136.02C959.885 137.256 940.53 137.83 918.372 138.216C915.558 138.265 912.69 138.276 909.765 138.29C905.409 138.308 900.91 138.325 896.264 138.471C844.251 140.089 768.964 132.263 689.703 117.001C649.206 109.313 607.33 101.36 566.658 97.9317C535.971 95.3431 505.879 94.9395 469.09 96.6215C448.792 97.5068 429.294 99.0259 408.654 100.63C398.877 101.391 388.769 102.178 378.567 102.893L375.051 103.141C345.93 105.173 315.818 107.273 282.456 112.079C242.264 117.868 200.429 128.148 159.969 138.088L156.592 138.917C126.186 146.385 95.7153 153.301 66.0318 159.477C43.7397 164.112 21.835 168.227 0.0078125 171.863V172.621C21.9574 168.967 43.9844 164.831 66.403 160.171C96.111 153.991 126.602 147.068 157.028 139.597L160.405 138.768C200.821 128.839 242.611 118.573 282.713 112.794C316.006 107.999 346.081 105.899 375.165 103.87L378.681 103.626C388.891 102.911 399.003 102.124 408.785 101.363C429.409 99.7554 448.89 98.2398 469.155 97.358C505.855 95.6795 535.865 96.0832 566.466 98.6612C607.04 102.082 648.867 110.025 689.316 117.705C768.707 132.992 844.149 140.829 896.3 139.207C900.918 139.062 905.405 139.044 909.745 139.03C912.682 139.019 915.558 139.005 918.38 138.956C940.53 138.566 959.889 137.996 978.987 136.764V136.027V136.02Z" fill="url(#paint50_radial_0_1)"/>
<path d="M978.988 131.119C954.677 131.19 931.736 130.138 910.802 129.175C908.269 129.058 905.699 128.913 903.084 128.768C898.34 128.502 893.437 128.226 888.347 128.095C838.182 126.788 765.444 117.603 683.528 102.227C645.87 95.2547 602.203 87.6271 560.495 85.3891C529.555 83.7283 499.333 84.5533 462.507 88.0697C443.649 89.8296 425.611 92.1491 406.517 94.6031C395.324 96.0408 383.748 97.5281 372.025 98.8879C367.281 99.4367 362.471 99.9856 357.593 100.542C332.021 103.449 305.584 106.459 276.819 111.147C243.113 116.64 207.89 124.848 173.822 132.784C166.577 134.473 159.329 136.162 152.08 137.826C121.997 144.746 91.347 150.96 60.9782 156.297C40.7704 159.848 20.53 162.954 0.00405884 165.645V166.389C20.6401 163.687 40.9825 160.567 61.2923 156.998C91.6896 151.654 122.372 145.436 152.488 138.506C159.741 136.838 166.989 135.149 174.234 133.46C208.27 125.531 243.464 117.33 277.108 111.848C305.825 107.167 332.241 104.161 357.789 101.257C362.667 100.701 367.48 100.156 372.224 99.6032C383.956 98.2434 395.54 96.7561 406.742 95.3149C425.82 92.8644 443.841 90.5485 462.666 88.7921C499.394 85.2864 529.522 84.4648 560.356 86.1185C601.95 88.3495 645.547 95.9664 683.144 102.925C765.154 118.318 838.003 127.518 888.265 128.825C893.323 128.956 898.214 129.232 902.942 129.497C905.565 129.646 908.138 129.788 910.68 129.905C931.646 130.871 954.624 131.92 978.988 131.852V131.119Z" fill="url(#paint51_radial_0_1)"/>
<path d="M978.988 126.948C954.424 125.627 930.985 123.113 906.531 120.489L903.227 120.135C900.963 119.89 898.675 119.628 896.35 119.363C891.23 118.778 885.94 118.173 880.429 117.716C819.316 112.684 735.263 98.0309 677.356 87.4465C640.412 80.782 596.9 73.8343 554.327 72.8428C523.134 72.1169 492.782 74.1743 455.923 79.5108C437.959 82.0781 420.835 85.1518 402.707 88.4061C390.633 90.5733 378.147 92.8148 365.482 94.8722C356.157 96.3878 346.71 97.8539 336.704 99.4084C315.798 102.652 294.175 106.009 271.181 110.205C244.525 115.067 216.648 121.339 189.69 127.401C175.902 130.503 161.646 133.708 147.569 136.728C117.624 143.148 86.7906 148.662 55.9283 153.113C37.4868 155.773 18.9596 158.021 0 159.877V160.617C19.0452 158.754 37.6581 156.499 56.1853 153.829C87.0884 149.37 117.963 143.85 147.952 137.422C162.042 134.402 176.302 131.194 190.089 128.092C217.032 122.029 244.888 115.765 271.508 110.91C294.477 106.721 316.084 103.364 336.981 100.124C346.987 98.5692 356.442 97.1031 365.771 95.5875C378.453 93.5266 390.947 91.2851 403.03 89.1179C421.141 85.8671 438.244 82.7969 456.18 80.2332C492.928 74.9108 523.175 72.857 554.253 73.5829C596.696 74.5709 640.11 81.5044 676.985 88.1582C734.928 98.7498 819.039 113.414 880.237 118.453C885.72 118.906 890.998 119.508 896.097 120.092C898.422 120.358 900.718 120.62 902.986 120.864L906.29 121.218C930.818 123.849 954.326 126.371 978.984 127.691V126.955L978.988 126.948Z" fill="url(#paint52_radial_0_1)"/>
<path d="M978.988 123.382C952.91 120.623 928.269 116.53 902.501 112.242L895.644 111.101C893.645 110.768 891.626 110.425 889.591 110.078C884.105 109.139 878.426 108.169 872.508 107.351C830.583 101.569 779.468 92.2801 725.355 82.4464C707.566 79.2134 689.177 75.8741 671.185 72.6729C621.11 63.8802 583.17 60.0664 548.163 60.3037C516.722 60.5197 486.247 63.8059 449.348 70.9661C431.95 74.3124 414.647 78.3033 397.915 82.1596C385.278 85.0739 372.212 88.0874 358.947 90.8672C343.226 94.1605 326.828 97.3192 309.472 100.662C295.317 103.389 280.678 106.207 265.552 109.267C246.776 113.067 228.078 117.227 208.282 121.636C186.993 126.378 164.978 131.279 143.066 135.634C113.178 141.576 82.1609 146.385 50.8865 149.93C33.6565 151.885 16.6794 153.365 0.00405884 154.47V155.206C16.7405 154.098 33.7829 152.61 51.0823 150.649C82.4097 147.097 113.48 142.277 143.421 136.325C165.354 131.966 187.377 127.061 208.678 122.32C228.465 117.914 247.152 113.754 265.915 109.957C281.028 106.898 295.664 104.083 309.814 101.356C327.183 98.0132 343.585 94.851 359.322 91.5542C372.604 88.7709 385.677 85.7574 398.322 82.8395C415.039 78.9832 432.322 74.9959 449.69 71.6566C486.471 64.5212 516.836 61.2421 548.151 61.0296C583.031 60.7924 620.865 64.5991 670.821 73.3705C688.81 76.5681 707.199 79.911 724.984 83.1405C779.117 92.9777 830.248 102.266 872.214 108.056C878.104 108.87 883.766 109.837 889.24 110.772C891.28 111.123 893.303 111.466 895.302 111.799L902.158 112.939C928.032 117.245 952.772 121.356 978.988 124.122V123.375V123.382Z" fill="url(#paint53_radial_0_1)"/>
<path d="M978.987 120.375C950.54 116.006 923.961 110.078 896.084 103.856L888.057 102.064C886.356 101.685 884.638 101.299 882.913 100.91C877.023 99.5818 870.933 98.2078 864.581 96.9826C844.904 93.1901 823.248 88.7672 800.316 84.0823C758.427 75.5269 710.947 65.8313 665.008 57.8991C616.843 49.6766 577.757 46.4542 541.995 47.7644C510.313 48.9259 479.708 53.4444 442.768 62.4176C425.705 66.5359 408.781 71.3094 392.416 75.9235C379.44 79.5815 366.024 83.3634 352.412 86.862C326.608 93.4981 298.556 99.7376 268.86 106.342L259.923 108.332C250.243 110.488 240.249 112.765 230.582 114.968C200.678 121.781 169.759 128.828 138.562 134.54C108.683 140.011 77.49 144.122 45.8445 146.753C30.4174 148.035 15.1371 148.917 0.0078125 149.469V150.202C15.1779 149.646 30.5071 148.765 45.9831 147.479C77.6939 144.841 108.952 140.726 138.888 135.241C170.122 129.519 201.062 122.468 230.986 115.651C240.649 113.449 250.643 111.172 260.318 109.019L269.256 107.029C298.968 100.421 327.036 94.178 352.865 87.5349C366.497 84.0292 379.921 80.2437 392.905 76.5821C409.258 71.9716 426.166 67.2052 443.196 63.094C480.01 54.1526 510.497 49.6483 542.04 48.4939C577.659 47.1907 616.622 50.4025 664.649 58.6003C710.559 66.5289 758.024 76.2245 799.899 84.7763C822.836 89.4612 844.496 93.8841 864.182 97.6802C870.508 98.8984 876.586 100.272 882.46 101.597C884.19 101.986 885.907 102.376 887.612 102.755L895.635 104.543C923.647 110.797 950.352 116.749 978.979 121.133V120.375H978.987Z" fill="url(#paint54_radial_0_1)"/>
<path d="M978.987 117.868C947.26 111.572 917.14 103.215 887.91 95.0987L876.452 91.9153C870.088 90.1412 863.505 88.3068 856.652 86.6142L850.366 85.0632C795.102 71.4121 726.321 54.4253 658.837 43.122C611.678 35.2996 572.593 32.7889 535.832 35.2252C503.909 37.3393 473.177 43.0866 436.196 53.8693C419.301 58.7738 402.585 64.344 386.419 69.7336C373.264 74.1175 359.66 78.6537 345.881 82.8606C320.954 90.4705 292.706 98.0379 254.29 107.397C219.703 115.825 176.657 126.314 134.055 133.449C104.159 138.456 72.7827 141.863 40.7986 143.577C27.1092 144.31 13.5014 144.699 0.0078125 144.813V145.546C13.5259 145.429 27.1582 145.039 40.8761 144.306C72.9336 142.589 104.383 139.175 134.352 134.154C177.024 127.008 220.103 116.512 254.718 108.077C293.167 98.7107 321.444 91.1327 346.408 83.5121C360.207 79.2982 373.823 74.762 386.986 70.3745C403.135 64.992 419.839 59.4254 436.702 54.528C473.557 43.7842 504.162 38.0546 535.938 35.9547C572.544 33.5326 611.483 36.0362 658.49 43.8302C725.905 55.1229 794.65 72.1026 849.889 85.7431L856.174 87.2941C863.003 88.9797 869.57 90.8104 875.925 92.581L887.384 95.7645C916.769 103.923 947.052 112.326 978.987 118.644V117.868Z" fill="url(#paint55_radial_0_1)"/>
<path d="M978.988 115.829C943.72 107.376 910.402 96.3808 878.108 85.7255L870.378 83.1759C863.407 80.8742 856.195 78.4945 848.714 76.2495C794.385 59.939 723.001 39.7545 652.661 28.345C606.984 20.9936 566.752 19.1416 529.669 22.6827C497.509 25.7529 466.655 32.736 429.625 45.3177C412.779 51.026 396.144 57.4248 380.056 63.6147C366.836 68.6998 353.167 73.9583 339.347 78.8522C312.388 88.3956 282.721 97.4254 248.653 106.455C216.563 114.965 174.026 125.595 129.543 132.348C99.6234 136.888 68.0676 139.597 35.745 140.39C23.7729 140.684 11.8538 140.702 0.00405884 140.493V141.226C11.862 141.435 23.7851 141.417 35.7695 141.123C68.1737 140.326 99.8151 137.614 129.817 133.06C174.389 126.293 216.987 115.645 249.118 107.125C283.231 98.0806 312.939 89.0365 339.943 79.479C353.779 74.5816 367.46 69.3159 380.693 64.2273C396.764 58.0445 413.382 51.6527 430.2 45.9515C467.096 33.4124 497.823 26.4576 529.828 23.4016C566.744 19.8746 606.813 21.7231 652.323 29.0461C722.557 40.4415 793.875 60.6047 848.156 76.901C855.612 79.1426 862.816 81.5187 869.779 83.8169L877.509 86.3665C909.974 97.0784 943.484 108.134 978.988 116.615V115.825V115.829Z" fill="url(#paint56_radial_0_1)"/>
<path d="M978.987 114.189C939.579 103.226 902.537 89.1462 866.694 75.5093L865.267 74.9675C857.406 71.9788 849.281 68.8874 840.776 65.8881C792.924 49.0075 720.72 25.2146 646.489 13.5713C601.534 6.5599 561.302 5.4409 523.505 10.1471C491.113 14.1804 460.136 22.3923 423.062 36.7764C406.166 43.3204 389.515 50.5797 373.415 57.6018C360.219 63.3561 346.575 69.3088 332.824 74.8507C305.172 86.0017 274.958 96.3206 243.027 105.524C199.63 117.943 161.038 126.36 125.044 131.257C94.8995 135.362 64.0372 137.309 30.7029 137.217C20.4114 137.168 10.1851 136.913 0.0078125 136.481V137.214C10.1729 137.646 20.3869 137.897 30.6662 137.947C64.0943 138.042 95.0423 136.087 125.28 131.969C161.364 127.058 200.038 118.623 243.521 106.179C275.509 96.9615 305.776 86.6249 333.477 75.4527C347.244 69.9002 360.901 63.9475 374.104 58.1861C390.192 51.1711 406.831 43.9153 423.698 37.3819C460.638 23.051 491.488 14.8709 523.721 10.8553C561.338 6.17038 601.387 7.28937 646.163 14.2725C720.251 25.8945 792.357 49.6555 840.148 66.5148C848.636 69.5106 856.754 72.5985 864.606 75.5837L866.034 76.1255C902.068 89.8332 939.314 103.994 978.987 114.996V114.182V114.189Z" fill="url(#paint57_radial_0_1)"/>
<path d="M978.988 112.946C978.355 112.748 977.727 112.553 977.095 112.355C936.17 99.3587 897.247 82.9845 857.659 65.9375C849.762 62.5557 841.339 58.965 832.834 55.523C758.534 25.4588 697.36 7.43085 640.318 -1.20597C596.117 -7.87747 555.889 -8.26345 517.342 -2.39225C484.607 2.6574 453.504 12.1016 416.498 28.2279C399.468 35.6431 382.72 43.8089 366.522 51.7057C353.428 58.0903 339.893 64.6874 326.298 70.849C297.703 83.8025 267.791 95.1554 237.39 104.589C197.195 117.018 157.876 125.623 120.537 130.163C90.3962 133.757 58.4733 135.06 25.653 134.037C17.091 133.761 8.54125 133.325 0.0078125 132.762V133.499C8.5127 134.062 17.0298 134.494 25.5633 134.766C58.4815 135.79 90.5063 134.483 120.749 130.878C158.203 126.324 197.627 117.695 237.924 105.233C268.391 95.7786 298.364 84.4045 327.012 71.4262C340.623 65.2611 354.17 58.6534 367.272 52.2687C383.458 44.3755 400.194 36.2167 417.196 28.8158C454.071 12.7461 485.039 3.34084 517.619 -1.68403C555.966 -7.5269 595.999 -7.13737 640.004 -0.497747C696.911 8.11783 757.967 26.1139 832.149 56.1321C840.646 59.567 849.057 63.1577 856.95 66.5324C896.57 83.5936 935.529 99.9855 976.52 112.999C977.344 113.261 978.168 113.516 978.992 113.775V112.942L978.988 112.946Z" fill="url(#paint58_radial_0_1)"/>
<path d="M646.951 -14H642.423C715.81 -1.91411 786.202 27.4065 849.285 57.4813C892.442 78.0518 935.399 97.6024 978.984 112.826V111.972C935.668 96.8021 892.956 77.3577 850.048 56.9041C788.058 27.3498 719.016 -1.47501 646.951 -14Z" fill="url(#paint59_radial_0_1)" fill-opacity="0.8"/>
<path d="M506.312 -14C449.967 -2.84897 403.955 21.9461 359.424 45.9514C346.501 52.9168 333.142 60.1195 319.779 66.8441C251.716 101.108 183.167 122.043 116.033 129.072C77.2575 133.131 38.2859 132.638 0.0119019 129.292V130.036C38.3308 133.375 77.3635 133.86 116.213 129.791C183.562 122.741 252.311 101.749 320.542 67.4001C333.922 60.6648 347.289 53.4586 360.219 46.4897C405.611 22.024 452.545 -3.26682 510.309 -14H506.316H506.312Z" fill="url(#paint60_radial_0_1)"/>
</g>
<defs>
<radialGradient id="paint0_radial_0_1" cx="0" cy="0" r="1" gradientUnits="userSpaceOnUse" gradientTransform="translate(167.706 62.6826) scale(892.75 778.1)">
<stop stop-color="white"/>
<stop offset="1" stop-color="#C2C2C2"/>
</radialGradient>
<radialGradient id="paint1_radial_0_1" cx="0" cy="0" r="1" gradientUnits="userSpaceOnUse" gradientTransform="translate(167.706 62.6823) scale(892.832 778.172)">
<stop stop-color="white"/>
<stop offset="1" stop-color="#C2C2C2"/>
</radialGradient>
<radialGradient id="paint2_radial_0_1" cx="0" cy="0" r="1" gradientUnits="userSpaceOnUse" gradientTransform="translate(167.706 62.6826) scale(892.75 778.1)">
<stop stop-color="white"/>
<stop offset="1" stop-color="#C2C2C2"/>
</radialGradient>
<radialGradient id="paint3_radial_0_1" cx="0" cy="0" r="1" gradientUnits="userSpaceOnUse" gradientTransform="translate(167.706 62.6826) scale(892.75 778.1)">
<stop stop-color="white"/>
<stop offset="1" stop-color="#C2C2C2"/>
</radialGradient>
<radialGradient id="paint4_radial_0_1" cx="0" cy="0" r="1" gradientUnits="userSpaceOnUse" gradientTransform="translate(167.706 62.6827) scale(892.832 778.172)">
<stop stop-color="white"/>
<stop offset="1" stop-color="#C2C2C2"/>
</radialGradient>
<radialGradient id="paint5_radial_0_1" cx="0" cy="0" r="1" gradientUnits="userSpaceOnUse" gradientTransform="translate(167.706 62.6827) scale(892.75 778.1)">
<stop stop-color="white"/>
<stop offset="1" stop-color="#C2C2C2"/>
</radialGradient>
<radialGradient id="paint6_radial_0_1" cx="0" cy="0" r="1" gradientUnits="userSpaceOnUse" gradientTransform="translate(167.706 62.6828) scale(892.832 778.172)">
<stop stop-color="white"/>
<stop offset="1" stop-color="#C2C2C2"/>
</radialGradient>
<radialGradient id="paint7_radial_0_1" cx="0" cy="0" r="1" gradientUnits="userSpaceOnUse" gradientTransform="translate(167.706 62.6826) scale(892.75 778.1)">
<stop stop-color="white"/>
<stop offset="1" stop-color="#C2C2C2"/>
</radialGradient>
<radialGradient id="paint8_radial_0_1" cx="0" cy="0" r="1" gradientUnits="userSpaceOnUse" gradientTransform="translate(167.706 62.6827) scale(892.832 778.172)">
<stop stop-color="white"/>
<stop offset="1" stop-color="#C2C2C2"/>
</radialGradient>
<radialGradient id="paint9_radial_0_1" cx="0" cy="0" r="1" gradientUnits="userSpaceOnUse" gradientTransform="translate(167.706 62.6827) scale(892.75 778.1)">
<stop stop-color="white"/>
<stop offset="1" stop-color="#C2C2C2"/>
</radialGradient>
<radialGradient id="paint10_radial_0_1" cx="0" cy="0" r="1" gradientUnits="userSpaceOnUse" gradientTransform="translate(167.706 62.6827) scale(892.832 778.172)">
<stop stop-color="white"/>
<stop offset="1" stop-color="#C2C2C2"/>
</radialGradient>
<radialGradient id="paint11_radial_0_1" cx="0" cy="0" r="1" gradientUnits="userSpaceOnUse" gradientTransform="translate(167.706 62.6827) scale(892.75 778.1)">
<stop stop-color="white"/>
<stop offset="1" stop-color="#C2C2C2"/>
</radialGradient>
<radialGradient id="paint12_radial_0_1" cx="0" cy="0" r="1" gradientUnits="userSpaceOnUse" gradientTransform="translate(167.706 62.6824) scale(892.832 778.172)">
<stop stop-color="white"/>
<stop offset="1" stop-color="#C2C2C2"/>
</radialGradient>
<radialGradient id="paint13_radial_0_1" cx="0" cy="0" r="1" gradientUnits="userSpaceOnUse" gradientTransform="translate(167.706 62.6827) scale(892.75 778.1)">
<stop stop-color="white"/>
<stop offset="1" stop-color="#C2C2C2"/>
</radialGradient>
<radialGradient id="paint14_radial_0_1" cx="0" cy="0" r="1" gradientUnits="userSpaceOnUse" gradientTransform="translate(167.706 62.6825) scale(892.832 778.172)">
<stop stop-color="white"/>
<stop offset="1" stop-color="#C2C2C2"/>
</radialGradient>
<radialGradient id="paint15_radial_0_1" cx="0" cy="0" r="1" gradientUnits="userSpaceOnUse" gradientTransform="translate(167.706 62.6826) scale(892.75 778.1)">
<stop stop-color="white"/>
<stop offset="1" stop-color="#C2C2C2"/>
</radialGradient>
<radialGradient id="paint16_radial_0_1" cx="0" cy="0" r="1" gradientUnits="userSpaceOnUse" gradientTransform="translate(167.706 62.6826) scale(892.75 778.1)">
<stop stop-color="white"/>
<stop offset="1" stop-color="#C2C2C2"/>
</radialGradient>
<radialGradient id="paint17_radial_0_1" cx="0" cy="0" r="1" gradientUnits="userSpaceOnUse" gradientTransform="translate(167.706 62.6827) scale(892.75 778.1)">
<stop stop-color="white"/>
<stop offset="1" stop-color="#C2C2C2"/>
</radialGradient>
<radialGradient id="paint18_radial_0_1" cx="0" cy="0" r="1" gradientUnits="userSpaceOnUse" gradientTransform="translate(167.706 62.6825) scale(892.75 778.1)">
<stop stop-color="white"/>
<stop offset="1" stop-color="#C2C2C2"/>
</radialGradient>
<radialGradient id="paint19_radial_0_1" cx="0" cy="0" r="1" gradientUnits="userSpaceOnUse" gradientTransform="translate(167.706 62.6826) scale(892.75 778.1)">
<stop stop-color="white"/>
<stop offset="1" stop-color="#C2C2C2"/>
</radialGradient>
<radialGradient id="paint20_radial_0_1" cx="0" cy="0" r="1" gradientUnits="userSpaceOnUse" gradientTransform="translate(167.706 62.5398) scale(892.832 778.172)">
<stop stop-color="white"/>
<stop offset="1" stop-color="#C2C2C2"/>
</radialGradient>
<radialGradient id="paint21_radial_0_1" cx="0" cy="0" r="1" gradientUnits="userSpaceOnUse" gradientTransform="translate(167.706 62.6826) scale(892.75 778.1)">
<stop stop-color="white"/>
<stop offset="1" stop-color="#C2C2C2"/>
</radialGradient>
<radialGradient id="paint22_radial_0_1" cx="0" cy="0" r="1" gradientUnits="userSpaceOnUse" gradientTransform="translate(167.706 62.6825) scale(892.75 778.1)">
<stop stop-color="white"/>
<stop offset="1" stop-color="#C2C2C2"/>
</radialGradient>
<radialGradient id="paint23_radial_0_1" cx="0" cy="0" r="1" gradientUnits="userSpaceOnUse" gradientTransform="translate(167.706 62.6828) scale(892.75 778.1)">
<stop stop-color="white"/>
<stop offset="1" stop-color="#C2C2C2"/>
</radialGradient>
<radialGradient id="paint24_radial_0_1" cx="0" cy="0" r="1" gradientUnits="userSpaceOnUse" gradientTransform="translate(167.706 62.6826) scale(892.75 778.1)">
<stop stop-color="white"/>
<stop offset="1" stop-color="#C2C2C2"/>
</radialGradient>
<radialGradient id="paint25_radial_0_1" cx="0" cy="0" r="1" gradientUnits="userSpaceOnUse" gradientTransform="translate(167.706 62.6826) scale(892.75 778.1)">
<stop stop-color="white"/>
<stop offset="1" stop-color="#C2C2C2"/>
</radialGradient>
<radialGradient id="paint26_radial_0_1" cx="0" cy="0" r="1" gradientUnits="userSpaceOnUse" gradientTransform="translate(167.706 62.6826) scale(892.75 778.1)">
<stop stop-color="white"/>
<stop offset="1" stop-color="#C2C2C2"/>
</radialGradient>
<radialGradient id="paint27_radial_0_1" cx="0" cy="0" r="1" gradientUnits="userSpaceOnUse" gradientTransform="translate(167.706 62.6827) scale(892.75 778.1)">
<stop stop-color="white"/>
<stop offset="1" stop-color="#C2C2C2"/>
</radialGradient>
<radialGradient id="paint28_radial_0_1" cx="0" cy="0" r="1" gradientUnits="userSpaceOnUse" gradientTransform="translate(167.706 62.6826) scale(892.75 778.1)">
<stop stop-color="white"/>
<stop offset="1" stop-color="#C2C2C2"/>
</radialGradient>
<radialGradient id="paint29_radial_0_1" cx="0" cy="0" r="1" gradientUnits="userSpaceOnUse" gradientTransform="translate(167.706 62.6826) scale(892.75 778.1)">
<stop stop-color="white"/>
<stop offset="1" stop-color="#C2C2C2"/>
</radialGradient>
<radialGradient id="paint30_radial_0_1" cx="0" cy="0" r="1" gradientUnits="userSpaceOnUse" gradientTransform="translate(167.706 62.6826) scale(892.75 778.1)">
<stop stop-color="white"/>
<stop offset="1" stop-color="#C2C2C2"/>
</radialGradient>
<radialGradient id="paint31_radial_0_1" cx="0" cy="0" r="1" gradientUnits="userSpaceOnUse" gradientTransform="translate(167.706 62.6826) scale(892.75 778.1)">
<stop stop-color="white"/>
<stop offset="1" stop-color="#C2C2C2"/>
</radialGradient>
<radialGradient id="paint32_radial_0_1" cx="0" cy="0" r="1" gradientUnits="userSpaceOnUse" gradientTransform="translate(167.706 62.6826) scale(892.75 778.1)">
<stop stop-color="white"/>
<stop offset="1" stop-color="#C2C2C2"/>
</radialGradient>
<radialGradient id="paint33_radial_0_1" cx="0" cy="0" r="1" gradientUnits="userSpaceOnUse" gradientTransform="translate(167.706 62.6827) scale(892.75 778.1)">
<stop stop-color="white"/>
<stop offset="1" stop-color="#C2C2C2"/>
</radialGradient>
<radialGradient id="paint34_radial_0_1" cx="0" cy="0" r="1" gradientUnits="userSpaceOnUse" gradientTransform="translate(167.706 62.6827) scale(892.75 778.1)">
<stop stop-color="white"/>
<stop offset="1" stop-color="#C2C2C2"/>
</radialGradient>
<radialGradient id="paint35_radial_0_1" cx="0" cy="0" r="1" gradientUnits="userSpaceOnUse" gradientTransform="translate(167.706 62.6827) scale(892.75 778.1)">
<stop stop-color="white"/>
<stop offset="1" stop-color="#C2C2C2"/>
</radialGradient>
<radialGradient id="paint36_radial_0_1" cx="0" cy="0" r="1" gradientUnits="userSpaceOnUse" gradientTransform="translate(167.706 62.6826) scale(892.75 778.1)">
<stop stop-color="white"/>
<stop offset="1" stop-color="#C2C2C2"/>
</radialGradient>
<radialGradient id="paint37_radial_0_1" cx="0" cy="0" r="1" gradientUnits="userSpaceOnUse" gradientTransform="translate(167.706 62.6826) scale(892.75 778.1)">
<stop stop-color="white"/>
<stop offset="1" stop-color="#C2C2C2"/>
</radialGradient>
<radialGradient id="paint38_radial_0_1" cx="0" cy="0" r="1" gradientUnits="userSpaceOnUse" gradientTransform="translate(167.706 62.6827) scale(892.75 778.1)">
<stop stop-color="white"/>
<stop offset="1" stop-color="#C2C2C2"/>
</radialGradient>
<radialGradient id="paint39_radial_0_1" cx="0" cy="0" r="1" gradientUnits="userSpaceOnUse" gradientTransform="translate(167.706 62.6826) scale(892.75 778.1)">
<stop stop-color="white"/>
<stop offset="1" stop-color="#C2C2C2"/>
</radialGradient>
<radialGradient id="paint40_radial_0_1" cx="0" cy="0" r="1" gradientUnits="userSpaceOnUse" gradientTransform="translate(167.706 62.6826) scale(892.75 778.1)">
<stop stop-color="white"/>
<stop offset="1" stop-color="#C2C2C2"/>
</radialGradient>
<radialGradient id="paint41_radial_0_1" cx="0" cy="0" r="1" gradientUnits="userSpaceOnUse" gradientTransform="translate(167.706 62.6826) scale(892.75 778.1)">
<stop stop-color="white"/>
<stop offset="1" stop-color="#C2C2C2"/>
</radialGradient>
<radialGradient id="paint42_radial_0_1" cx="0" cy="0" r="1" gradientUnits="userSpaceOnUse" gradientTransform="translate(167.706 62.6825) scale(892.75 778.1)">
<stop stop-color="white"/>
<stop offset="1" stop-color="#C2C2C2"/>
</radialGradient>
<radialGradient id="paint43_radial_0_1" cx="0" cy="0" r="1" gradientUnits="userSpaceOnUse" gradientTransform="translate(167.706 62.6825) scale(892.75 778.1)">
<stop stop-color="white"/>
<stop offset="1" stop-color="#C2C2C2"/>
</radialGradient>
<radialGradient id="paint44_radial_0_1" cx="0" cy="0" r="1" gradientUnits="userSpaceOnUse" gradientTransform="translate(167.706 62.6826) scale(892.75 778.1)">
<stop stop-color="white"/>
<stop offset="1" stop-color="#C2C2C2"/>
</radialGradient>
<radialGradient id="paint45_radial_0_1" cx="0" cy="0" r="1" gradientUnits="userSpaceOnUse" gradientTransform="translate(167.706 62.6827) scale(892.75 778.1)">
<stop stop-color="white"/>
<stop offset="1" stop-color="#C2C2C2"/>
</radialGradient>
<radialGradient id="paint46_radial_0_1" cx="0" cy="0" r="1" gradientUnits="userSpaceOnUse" gradientTransform="translate(167.706 62.6827) scale(892.75 778.1)">
<stop stop-color="white"/>
<stop offset="1" stop-color="#C2C2C2"/>
</radialGradient>
<radialGradient id="paint47_radial_0_1" cx="0" cy="0" r="1" gradientUnits="userSpaceOnUse" gradientTransform="translate(167.706 62.6826) scale(892.75 778.1)">
<stop stop-color="white"/>
<stop offset="1" stop-color="#C2C2C2"/>
</radialGradient>
<radialGradient id="paint48_radial_0_1" cx="0" cy="0" r="1" gradientUnits="userSpaceOnUse" gradientTransform="translate(167.706 62.6827) scale(892.75 778.1)">
<stop stop-color="white"/>
<stop offset="1" stop-color="#C2C2C2"/>
</radialGradient>
<radialGradient id="paint49_radial_0_1" cx="0" cy="0" r="1" gradientUnits="userSpaceOnUse" gradientTransform="translate(167.706 62.6826) scale(892.75 778.1)">
<stop stop-color="white"/>
<stop offset="1" stop-color="#C2C2C2"/>
</radialGradient>
<radialGradient id="paint50_radial_0_1" cx="0" cy="0" r="1" gradientUnits="userSpaceOnUse" gradientTransform="translate(167.706 62.6826) scale(892.75 778.1)">
<stop stop-color="white"/>
<stop offset="1" stop-color="#C2C2C2"/>
</radialGradient>
<radialGradient id="paint51_radial_0_1" cx="0" cy="0" r="1" gradientUnits="userSpaceOnUse" gradientTransform="translate(167.706 62.6827) scale(892.75 778.1)">
<stop stop-color="white"/>
<stop offset="1" stop-color="#C2C2C2"/>
</radialGradient>
<radialGradient id="paint52_radial_0_1" cx="0" cy="0" r="1" gradientUnits="userSpaceOnUse" gradientTransform="translate(167.706 62.6827) scale(892.75 778.1)">
<stop stop-color="white"/>
<stop offset="1" stop-color="#C2C2C2"/>
</radialGradient>
<radialGradient id="paint53_radial_0_1" cx="0" cy="0" r="1" gradientUnits="userSpaceOnUse" gradientTransform="translate(167.706 62.6827) scale(892.75 778.1)">
<stop stop-color="white"/>
<stop offset="1" stop-color="#C2C2C2"/>
</radialGradient>
<radialGradient id="paint54_radial_0_1" cx="0" cy="0" r="1" gradientUnits="userSpaceOnUse" gradientTransform="translate(167.706 62.6825) scale(892.75 778.1)">
<stop stop-color="white"/>
<stop offset="1" stop-color="#C2C2C2"/>
</radialGradient>
<radialGradient id="paint55_radial_0_1" cx="0" cy="0" r="1" gradientUnits="userSpaceOnUse" gradientTransform="translate(167.706 62.6825) scale(892.75 778.1)">
<stop stop-color="white"/>
<stop offset="1" stop-color="#C2C2C2"/>
</radialGradient>
<radialGradient id="paint56_radial_0_1" cx="0" cy="0" r="1" gradientUnits="userSpaceOnUse" gradientTransform="translate(167.706 62.6827) scale(892.75 778.1)">
<stop stop-color="white"/>
<stop offset="1" stop-color="#C2C2C2"/>
</radialGradient>
<radialGradient id="paint57_radial_0_1" cx="0" cy="0" r="1" gradientUnits="userSpaceOnUse" gradientTransform="translate(167.706 62.6827) scale(892.75 778.1)">
<stop stop-color="white"/>
<stop offset="1" stop-color="#C2C2C2"/>
</radialGradient>
<radialGradient id="paint58_radial_0_1" cx="0" cy="0" r="1" gradientUnits="userSpaceOnUse" gradientTransform="translate(167.706 62.6825) scale(892.75 778.1)">
<stop stop-color="white"/>
<stop offset="1" stop-color="#C2C2C2"/>
</radialGradient>
<radialGradient id="paint59_radial_0_1" cx="0" cy="0" r="1" gradientUnits="userSpaceOnUse" gradientTransform="translate(167.706 62.6826) scale(892.75 778.1)">
<stop stop-color="white"/>
<stop offset="1" stop-color="#C2C2C2"/>
</radialGradient>
<radialGradient id="paint60_radial_0_1" cx="0" cy="0" r="1" gradientUnits="userSpaceOnUse" gradientTransform="translate(167.706 62.6826) scale(892.75 778.101)">
<stop stop-color="white"/>
<stop offset="1" stop-color="#C2C2C2"/>
</radialGradient>
<clipPath id="clip0_0_1">
<rect width="979" height="574" fill="white"/>
</clipPath>
</defs>
</svg>
