<svg width="78" height="78" viewBox="0 0 78 78" fill="none" xmlns="http://www.w3.org/2000/svg">
<path d="M44.57 32.94C38.58 27.17 31.55 24.14 23.31 24.18C15.11 24.22 8.07997 27.21 2.21997 32.97C-1.50003 25.35 -1.02003 13.34 8.53997 5.43002C18.61 -2.89998 32.37 -1.23998 40.52 7.62002C44.84 12.32 46.91 17.91 46.71 24.31C46.62 27.31 45.84 30.14 44.57 32.94Z" fill="white"/>
<path d="M32.9701 75.13C24.0101 79.35 12.5901 77.35 5.52006 68.87C-2.22994 59.58 -1.46994 47.12 5.67006 38.91C13.7101 29.66 25.0801 29.06 32.9701 32.79C32.7101 33.07 32.4801 33.35 32.2301 33.61C29.5901 36.43 27.6001 39.65 26.2001 43.24C25.4701 45.12 25.0101 47.05 24.6601 49.02C24.2601 51.23 24.1901 53.47 24.3101 55.72C24.4301 57.93 24.7001 60.11 25.3701 62.21C26.2001 64.82 27.1301 67.41 28.7401 69.67C29.7001 71.02 30.6601 72.37 31.6501 73.69C32.0301 74.2 32.5101 74.63 32.9801 75.14L32.9701 75.13Z" fill="white"/>
<path d="M44.4202 44.55C44.5602 44.38 44.6302 44.26 44.7402 44.17C45.8202 43.25 46.5502 42.04 47.4202 40.95C48.8302 39.18 49.8602 37.19 50.7702 35.14C51.6202 33.22 52.2702 31.22 52.6402 29.14C53.0602 26.78 53.2602 24.39 53.1402 21.98C52.9702 18.62 52.2902 15.41 51.0502 12.28C50.0002 9.63003 48.5702 7.20003 46.8202 4.97003C46.2602 4.25003 45.6402 3.58003 45.0202 2.92003C44.3702 2.24003 44.3802 2.04003 45.2802 1.74003C46.4902 1.34003 47.6802 0.900026 48.9202 0.630026C51.9102 -0.0299739 54.9302 -0.159974 57.9702 0.410026C60.4102 0.860026 62.7302 1.65003 64.9102 2.80003C67.5002 4.16003 69.6902 6.03003 71.6702 8.20003C73.9602 10.71 75.3702 13.69 76.3702 16.86C76.9402 18.68 77.3002 20.56 77.3202 22.5C77.3402 24.45 77.2502 26.38 76.8402 28.29C76.4902 29.94 75.8602 31.51 75.1602 33.04C74.0602 35.44 72.6302 37.63 70.7802 39.5C68.7902 41.53 66.5502 43.25 63.9302 44.43C62.2102 45.21 60.4502 45.89 58.5902 46.24C57.6802 46.41 56.7502 46.52 55.8302 46.55C54.4302 46.6 53.0202 46.67 51.6402 46.53C50.3702 46.41 49.1202 46.07 47.8802 45.75C46.8902 45.49 45.9202 45.13 44.9502 44.8C44.7902 44.75 44.6402 44.66 44.4202 44.55Z" fill="white"/>
<path d="M75.2101 44.36C75.2501 44.42 75.3101 44.46 75.3301 44.53C75.6701 45.47 76.0501 46.4 76.3201 47.36C76.6501 48.54 76.8801 49.74 77.1501 50.94C77.1901 51.11 77.2401 51.28 77.2401 51.44C77.2801 53.41 77.3701 55.37 77.1101 57.34C76.7601 59.99 75.8501 62.44 74.6101 64.77C73.3601 67.12 71.8201 69.28 69.8501 71.07C68.0701 72.68 66.0501 73.98 63.8901 75.06C62.2401 75.89 60.5001 76.47 58.7201 76.81C56.2501 77.28 53.7401 77.49 51.2201 77.12C49.4201 76.85 47.6901 76.35 45.9601 75.79C43.8901 75.12 42.0601 74.01 40.3301 72.76C38.9501 71.76 37.6801 70.62 36.5201 69.33C35.4001 68.08 34.4701 66.73 33.6601 65.29C32.9701 64.07 32.4401 62.74 31.9401 61.43C31.1001 59.22 30.7701 56.9 30.7201 54.55C30.6901 52.98 30.7801 51.42 31.0701 49.86C31.4001 48.12 31.8901 46.45 32.5901 44.83C32.7801 44.4 32.9101 44.37 33.2301 44.7C35.2201 46.72 37.4701 48.39 39.9901 49.69C42.9801 51.23 46.1201 52.34 49.4701 52.78C50.9701 52.97 52.4801 53.15 53.9901 53.17C56.1501 53.2 58.2901 53 60.3901 52.46C61.4001 52.2 62.4401 52.02 63.4101 51.66C64.9001 51.1 66.3701 50.46 67.8101 49.77C68.8101 49.29 69.7501 48.69 70.7101 48.12C71.0901 47.89 71.4201 47.6 71.7801 47.34C72.9701 46.48 74.0901 45.53 75.0901 44.44C75.1201 44.41 75.1601 44.4 75.2201 44.37L75.2101 44.36Z" fill="white"/>
</svg>
