<svg width="78" height="78" viewBox="0 0 78 78" fill="none" xmlns="http://www.w3.org/2000/svg">
<path d="M44.5639 32.9416C38.5739 27.1716 31.5439 24.1416 23.3039 24.1816C15.1039 24.2216 8.07386 27.2116 2.21386 32.9716C-1.50614 25.3516 -1.02614 13.3416 8.53386 5.4316C18.6039 -2.8984 32.3639 -1.23839 40.5139 7.6216C44.8339 12.3216 46.9039 17.9116 46.7039 24.3116C46.6139 27.3116 45.8339 30.1416 44.5639 32.9416Z" fill="black"/>
<path d="M32.964 75.1316C24.004 79.3516 12.584 77.3516 5.51396 68.8716C-2.23604 59.5816 -1.47604 47.1216 5.66396 38.9116C13.704 29.6616 25.074 29.0616 32.964 32.7916C32.704 33.0716 32.474 33.3516 32.224 33.6116C29.584 36.4316 27.594 39.6516 26.194 43.2416C25.464 45.1216 25.004 47.0516 24.654 49.0216C24.254 51.2316 24.184 53.4716 24.304 55.7216C24.424 57.9316 24.694 60.1116 25.364 62.2116C26.194 64.8216 27.124 67.4116 28.734 69.6716C29.694 71.0216 30.654 72.3716 31.644 73.6916C32.024 74.2016 32.504 74.6316 32.974 75.1416L32.964 75.1316Z" fill="black"/>
<path d="M44.4141 44.5516C44.5541 44.3816 44.6241 44.2616 44.7341 44.1716C45.8141 43.2516 46.5441 42.0416 47.4141 40.9516C48.8241 39.1816 49.8541 37.1916 50.7641 35.1416C51.6141 33.2216 52.2641 31.2216 52.6341 29.1416C53.0541 26.7816 53.2541 24.3916 53.1341 21.9816C52.9641 18.6216 52.2841 15.4116 51.0441 12.2816C49.9941 9.63161 48.5641 7.20161 46.8141 4.97161C46.2541 4.25161 45.6341 3.58161 45.0141 2.92161C44.3641 2.24161 44.3741 2.04161 45.2741 1.74161C46.4841 1.34161 47.6741 0.901613 48.9141 0.631613C51.9041 -0.028387 54.9241 -0.158387 57.9641 0.411613C60.4041 0.861613 62.7241 1.65161 64.9041 2.80161C67.4941 4.16161 69.6841 6.03161 71.6641 8.20161C73.9541 10.7116 75.3641 13.6916 76.3641 16.8616C76.9341 18.6816 77.2941 20.5616 77.3141 22.5016C77.3341 24.4516 77.2441 26.3816 76.8341 28.2916C76.4841 29.9416 75.8541 31.5116 75.1541 33.0416C74.0541 35.4416 72.6241 37.6316 70.7741 39.5016C68.7841 41.5316 66.5441 43.2516 63.9241 44.4316C62.2041 45.2116 60.4441 45.8916 58.5841 46.2416C57.6741 46.4116 56.7441 46.5216 55.8241 46.5516C54.4241 46.6016 53.0141 46.6716 51.6341 46.5316C50.3641 46.4116 49.1141 46.0716 47.8741 45.7516C46.8841 45.4916 45.9141 45.1316 44.9441 44.8016C44.7841 44.7516 44.6341 44.6616 44.4141 44.5516Z" fill="black"/>
<path d="M75.204 44.3616C75.244 44.4216 75.304 44.4616 75.324 44.5316C75.664 45.4716 76.044 46.4016 76.314 47.3616C76.644 48.5416 76.874 49.7416 77.144 50.9416C77.184 51.1116 77.234 51.2816 77.234 51.4416C77.274 53.4116 77.364 55.3716 77.104 57.3416C76.754 59.9916 75.844 62.4416 74.604 64.7716C73.354 67.1216 71.814 69.2816 69.844 71.0716C68.064 72.6816 66.044 73.9816 63.884 75.0616C62.234 75.8916 60.494 76.4716 58.714 76.8116C56.244 77.2816 53.734 77.4916 51.214 77.1216C49.414 76.8516 47.684 76.3516 45.954 75.7916C43.884 75.1216 42.054 74.0116 40.324 72.7616C38.944 71.7616 37.674 70.6216 36.514 69.3316C35.394 68.0816 34.464 66.7316 33.654 65.2916C32.964 64.0716 32.434 62.7416 31.934 61.4316C31.094 59.2216 30.764 56.9016 30.714 54.5516C30.684 52.9816 30.774 51.4216 31.064 49.8616C31.394 48.1216 31.884 46.4516 32.584 44.8316C32.774 44.4016 32.904 44.3716 33.224 44.7016C35.214 46.7216 37.464 48.3916 39.984 49.6916C42.974 51.2316 46.114 52.3416 49.464 52.7816C50.964 52.9716 52.474 53.1516 53.984 53.1716C56.144 53.2016 58.284 53.0016 60.384 52.4616C61.394 52.2016 62.434 52.0216 63.404 51.6616C64.894 51.1016 66.364 50.4616 67.804 49.7716C68.804 49.2916 69.744 48.6916 70.704 48.1216C71.084 47.8916 71.414 47.6016 71.774 47.3416C72.964 46.4816 74.084 45.5316 75.084 44.4416C75.114 44.4116 75.154 44.4016 75.214 44.3716L75.204 44.3616Z" fill="black"/>
</svg>
